<?xml version="1.0" encoding="UTF-8" standalone="no"?>
<svg
   width="23in"
   height="11in"
   viewBox="0 0 584.2 279.40001"
   version="1.1"
   id="svg8"
   inkscape:version="1.4 (86a8ad7, 2024-10-11)"
   sodipodi:docname="Squarepit Canvas Size.svg"
   xmlns:inkscape="http://www.inkscape.org/namespaces/inkscape"
   xmlns:sodipodi="http://sodipodi.sourceforge.net/DTD/sodipodi-0.dtd"
   xmlns="http://www.w3.org/2000/svg"
   xmlns:svg="http://www.w3.org/2000/svg"
   xmlns:rdf="http://www.w3.org/1999/02/22-rdf-syntax-ns#"
   xmlns:cc="http://creativecommons.org/ns#"
   xmlns:dc="http://purl.org/dc/elements/1.1/">
  <title
     id="title833">Plasma CNC</title>
  <defs
     id="defs2" />
  <sodipodi:namedview
     id="base"
     pagecolor="#ffffff"
     bordercolor="#666666"
     borderopacity="1.0"
     inkscape:pageopacity="0.0"
     inkscape:pageshadow="2"
     inkscape:zoom="0.35"
     inkscape:cx="1060"
     inkscape:cy="501.42857"
     inkscape:document-units="in"
     inkscape:current-layer="layer1"
     inkscape:document-rotation="0"
     showgrid="false"
     units="in"
     inkscape:showpageshadow="false"
     inkscape:pagecheckerboard="0"
     inkscape:deskcolor="#d1d1d1"
     inkscape:window-width="2560"
     inkscape:window-height="1351"
     inkscape:window-x="2551"
     inkscape:window-y="-9"
     inkscape:window-maximized="1">
    <inkscape:grid
       type="xygrid"
       id="grid835"
       originx="-20.785727"
       originy="-2140.5652"
       spacingy="1"
       spacingx="1"
       units="in"
       visible="false" />
  </sodipodi:namedview>
  <metadata
     id="metadata5">
    <rdf:RDF>
      <cc:Work
         rdf:about="">
        <dc:format>image/svg+xml</dc:format>
        <dc:type
           rdf:resource="http://purl.org/dc/dcmitype/StillImage" />
        <dc:title>Plasma CNC</dc:title>
        <dc:creator>
          <cc:Agent>
            <dc:title>Kale Dobrohoczki</dc:title>
          </cc:Agent>
        </dc:creator>
        <dc:subject>
          <rdf:Bag>
            <rdf:li>CNC plasma 4x8</rdf:li>
          </rdf:Bag>
        </dc:subject>
        <dc:description>48x96</dc:description>
      </cc:Work>
    </rdf:RDF>
  </metadata>
  <g
     inkscape:label="Guide Layer"
     inkscape:groupmode="layer"
     id="layer1"
     transform="translate(-20.785727,-2140.5652)"
     style="display:none"
     sodipodi:insensitive="true">
    <path
       id="path3"
       style="fill:#666666;stroke:none;stroke-width:0.245529"
       d="M 556.51329,2419.9652 H 69.258188 c -16.15749,-93.1333 -32.314981,-186.2668 -48.472461,-279.4 H 604.98575 c -16.15749,93.1332 -32.31497,186.2667 -48.47246,279.4 z"
       sodipodi:nodetypes="ccccc"
       sodipodi:insensitive="true" />
  </g>
  <g
     inkscape:groupmode="layer"
     id="layer2"
     inkscape:label="Art Layer"
     transform="matrix(0.42660555,0,0,1,114.86661,0)">
    <path
       id="path6256"
       style="fill:#ff6600;stroke:none;stroke-width:1.53104;stroke-linecap:round;stroke-miterlimit:4;stroke-dasharray:none;stroke-opacity:1"
       d="m 601.91466,3.2659874 c 2.23504,-0.032 4.07712,0.62887 5.91373,1.08366 22.48656,6.6343996 39.42408,16.4607596 46.65959,17.6087596 7.23551,1.148 5.24311,-2.77373 4.45172,-6.43115 -0.29087,-1.75368 1.26236,-2.75513 3.18098,-3.29644 0.1969,0.89381 0.30475,1.62142 0.97514,3.47112 4.23761,11.69199 7.01758,25.64207 7.09962,35.66395 0.0961,11.38801 -0.20628,11.84069 -6.10512,9.15088 l -3.66069,-1.66812 -0.55846,-7.79279 c -0.79553,-11.05361 -4.47092,-17.66203 -14.25138,-25.63464 -8.91646,-7.26768 -21.40643,-13.66181 -35.68728,-18.2712196 -4.36004,-1.40761 -6.99623,-2.12656 -7.57571,-2.11357 l -0.0241,5.3e-4 c -0.30335,0.01 -0.0424,0.22942 0.83337,0.66352 7.02475,3.48689 23.11669,14.4815196 28.77904,19.6675396 9.25701,8.47359 15.74251,19.26484 15.55967,25.88574 l -0.0849,3.11661 -1.34583,-3.17759 c -0.74104,-1.74789 -1.89566,-3.751 -2.5656,-4.45141 -1.11192,-1.1621 -1.2186,-0.94895 -1.2186,2.44274 0,4.87932 -0.93428,5.36803 -8.91186,4.65503 -3.05271,-0.273 -7.91096,-1.00531 -10.79182,-1.6278 -5.21447,-1.1267 -5.25755,-1.15395 -9.71251,-5.65756 -11.69886,-11.82589 -24.67408,-20.60754 -40.29887,-27.27274 -4.44762,-1.89741 -11.68196,-4.50091 -16.90062,-6.20221 2.87833,-0.22471 7.30745,0.19355 13.20848,2.38125 19.56749,7.22411 33.369,16.82745 50.81087,18.34825 17.44187,1.52069 12.34018,-4.79772 5.07068,-10.5823 -6.69239,-5.08871 -13.75015,-10.10973 -21.87801,-14.8094496 -1.3554,-0.94059 -3.60279,-1.63811 -4.49167,-2.68819 -1.00467,-1.07942 0.79859,-2.36527 3.51651,-2.45827 h 0.002 z M 421.27967,10.923407 c 1.4444,-0.01 2.86126,0.23354 3.73091,0.78134 1.65118,1.20181 -0.7535,2.47282 -2.04718,3.5171 -8.79309,6.3195 -18.25583,12.5263 -24.78641,19.358 -4.14317,4.1583 -6.59534,8.55057 5.90281,10.16217 12.49822,1.61169 19.8345,-9.9941 38.36799,-21.3248 1.87035,-1.0636 4.61272,-1.47858 6.94464,-1.43558 -1.13548,0.6613 -1.74267,0.92615 -3.44625,2.05674 -19.57668,12.99181 -27.73853,27.20551 -24.95845,43.46091 0.60196,3.52329 0.82376,6.59257 0.49301,6.82077 -1.69032,1.1666 -14.43134,-0.0481 -22.7102,-2.16421 -5.95492,-1.52289 -9.05167,-3.27017 -11.05352,-6.23838 -1.58816,-2.35471 -3.47234,-7.63936 -2.87204,-8.05378 0.218,-0.1502 4.18515,-1.26442 8.8161,-2.47581 4.63103,-1.2115 10.23135,-2.96614 12.44654,-3.89795 3.94439,-1.6588 9.09955,-4.76578 9.09955,-5.48338 5e-5,-0.1995 -3.88863,0.26045 -8.64166,1.02216 -3.70738,0.5942 -12.51594,1.78586 -21.87559,3.00136 l 1.60138,-3.83181 c 3.42286,-9.11759 10.78327,-16.42544 29.33624,-29.12795 3.40455,-2.33119 6.02207,-4.30911 5.8205,-4.3961 -0.63135,-0.2693 -9.41237,3.04527 -16.48638,6.22236 -8.15924,3.6644 -18.18635,9.98159 -23.44786,14.77119 -4.34734,3.95721 -8.40796,9.96598 -9.3346,13.81519 -0.26186,1.08879 -1.02739,3.01858 -1.13988,4.28448 -9.28045,1.15609 -16.78712,2.03618 -17.0145,1.93529 -0.18987,-0.084 -0.82027,-1.84163 -1.40514,-3.90623 -2.54427,-8.98599 3.66519,-19.75062 17.8467,-30.93971 0.95404,-0.75279 0.90362,-0.84759 1.57593,-1.43608 1.54897,0.75668 2.35423,1.86285 0.68199,3.36825 -6.81546,5.58321 -12.20158,11.45572 -14.87405,17.59223 -1.98706,4.3384 -2.17343,8.78699 4.19849,7.5711 6.37193,-1.21579 9.44576,-6.87345 14.83528,-12.13157 6.37497,-5.92119 14.97833,-11.41346 25.30731,-16.21348 4.78899,-2.10219 9.63199,-4.22034 15.19146,-5.95672 0.98072,-0.45882 2.45266,-0.7171 3.89688,-0.7271 z m 244.5925,0.79375 v 0.002 c 0.22386,-0.01 0.43856,-0.01 0.64205,0 v -5.3e-4 c 0.98848,0.041 1.73713,0.18925 1.95747,0.39947 4.61131,4.1348 9.18174,8.33807 11.63012,12.81625 0.23827,0.39701 0.11251,-1.00166 0.26408,-1.29034 -0.40932,-1.11281 3.15945,-1.87786 4.97734,-1.05574 3.09565,2.04308 5.28441,4.32712 7.3541,6.59183 8.78249,9.4507 8.9846,20.00543 4.06767,29.85243 -2.40855,4.49321 -5.39974,8.95247 -9.59259,13.20697 -5.36678,5.6488 -15.02641,10.40064 -26.39876,14.02085 -11.53874,3.50689 -24.44233,6.07761 -37.13602,8.71831 4.4062,-0.1452 8.93636,-0.41402 13.28593,0.061 3.77079,0.26551 5.78373,1.97575 5.43771,3.48763 -1.14811,3.102823 -3.12422,6.148203 -5.1954,9.160703 -2.75109,4.1448 -7.0216,8.26254 -14.53488,11.24376 -6.77322,2.88999 -14.84205,4.74456 -23.84526,5.82496 -6.38651,0.66259 -10.25753,1.93275 -14.46824,4.13824 2.20161,3.00961 3.49848,5.44494 5.85686,8.43206 9.32058,11.57549 14.37825,23.85012 13.1612,36.10993 -0.38396,4.45551 -1.69768,8.90469 -8.33524,19.73988 -5.78567,7.67752 -6.80776,8.93042 -8.1874,10.12232 -0.87158,-0.3677 -4.43424,-0.9145 -5.46559,-1.4211 1.75891,-1.5972 3.20953,-3.1885 8.57146,-10.97291 5.09782,-9.07261 6.04371,-12.05423 6.55333,-15.31794 2.05244,-13.14559 -2.717,-26.07059 -14.9637,-40.55359 -2.88557,-3.41281 -5.24752,-6.51029 -5.24752,-6.88279 0,-0.7425 4.48949,-2.56699 9.69432,-3.93928 1.82956,-0.48231 6.79518,-1.2718 11.03657,-1.75339 10.79779,-1.2259 17.63669,-2.64258 22.46548,-4.65397 8.11832,-3.38172 11.33347,-6.27049 16.50454,-14.82598 3.7177,-6.150113 3.47881,-6.440963 -5.2984,-6.440963 -12.25702,2e-5 -27.18111,1.84031 -37.42919,4.614733 -6.65018,1.80049 -14.74491,5.06521 -18.10352,7.30289 -2.43337,1.62071 -3.444,1.91863 -8.53025,2.51251 -3.17365,0.3705 -5.76959,0.54378 -5.76959,0.38447 0,-0.62169 20.10516,-8.58023 25.92512,-10.26242 3.38744,-0.97891 12.93389,-3.154553 21.21414,-4.834843 39.3197,-7.97941 48.36714,-10.18865 58.12131,-14.19344 10.93802,-4.4904 15.60092,-7.7997 21.36807,-15.16549 11.36226,-14.51139 11.27733,-27.6647 -0.26167,-38.8488 l -2.97021,-2.87837 0.61778,12.34032 c 0.33844,6.78701 0.32351,12.22267 -0.0352,12.07887 -0.36059,-0.14402 -1.08836,-2.08794 -1.61838,-4.31964 -1.87761,-7.91279 -5.69449,-18.17029 -8.1051,-21.78421 -1.68497,-2.52568 -8.022,-8.8198 -11.36961,-11.56001 0.73381,-0.10441 1.48315,-0.18619 2.15496,-0.20619 z m -112.95261,1.92598 c 9.99216,5.7808 26.49626,17.31078 35.19186,24.67189 6.1783,5.22989 12.3895,11.39926 11.74998,11.67215 -0.21331,0.091 -4.63657,-0.044 -9.83367,-0.29922 -11.0308,-0.5415 -39.52436,-0.43368 -62.04844,-1.83346 -4.32836,-0.095 -7.24977,-0.15351 -9.9499,-0.20053 0.56462,-0.79578 0.1594,-1.75098 3.13128,-1.69497 6.06413,0.047 12.09588,0.46514 18.14829,0.69453 18.19226,0.79759 36.52568,0.68223 37.64967,-6.24459 1.63195,-10.05218 -18.02189,-17.03178 -25.02506,-25.8532 -0.18284,-0.25869 0.21097,-0.60389 0.98599,-0.9126 z m -186.53055,2.60088 h 0.001 c 0.39898,-0.012 0.88262,0.01 1.41123,0.062 h 10e-4 c 0.7672,0.077 1.61161,0.29998 2.42991,0.51416 -4.5156,1.93371 -11.30755,5.134 -13.51007,6.51021 -7.42977,4.64309 -12.52909,9.50756 -15.84553,15.11845 -2.6765,4.52871 -2.92861,12.41242 -0.533,16.66771 1.41227,2.5019 1.42504,2.92473 0.13197,3.98995 -0.79485,0.65529 -2.0202,1.80237 -0.54511,5.18366 1.47541,3.3813 4.78285,4.97404 9.10562,6.80733 6.58895,2.79451 14.13407,4.87233 28.09099,7.73753 10.70476,2.19758 18.6852,3.55015 41.46176,7.02694 29.93208,4.56872 46.98545,8.53053 56.83365,13.20334 5.23386,2.483803 6.86264,3.696153 7.78408,5.790353 1.07662,2.4496 -0.28673,2.50682 -5.03074,0.21032 -13.50282,-6.534603 -33.94852,-10.261393 -59.49252,-10.843793 -11.45341,-0.26141 -11.89178,-0.24069 -13.32477,0.63201 -1.38062,0.84101 -1.16491,1.23775 3.15922,5.812553 6.2149,6.57511 10.06905,9.56443 15.74499,12.21373 9.45956,4.4156 18.80184,6.16653 30.64208,5.74333 l 6.52183,-0.23307 -0.55602,1.1865 c -0.38489,0.82111 0.0891,1.6356 1.55052,2.6417 1.22437,0.84379 1.79227,1.67103 1.35796,1.97094 -1.02231,0.70548 -5.40994,2.26036 -11.93053,4.22815 -2.99851,0.9049 -6.74971,2.16892 -8.3352,2.80863 -1.58556,0.63989 -4.55313,1.56583 -6.59579,2.05724 -4.70711,1.13239 -6.04823,2.6457 -3.94048,4.44831 0.83778,0.71609 1.52268,1.97839 1.52268,2.80551 0,1.6906 1.37853,2.69504 4.70364,3.42614 1.24468,0.27389 2.82052,1.20184 3.50802,2.06655 1.47979,1.86209 3.75775,3.01501 7.65688,3.8752 2.29158,0.50569 4.81553,0.57597 12.79055,0.35605 9.6996,-0.26768 9.9916,-0.2499 12.33261,0.74879 0.31861,0.13592 0.49034,0.29501 0.74259,0.43823 -5.886,0.1197 -14.41719,0.67128 -17.86609,0.67128 -6.10301,0.30419 -12.48774,-0.75089 -16.28401,-2.83189 -2.04519,-1.05789 -2.69188,-2.4688 -4.46257,-3.57651 -2.37501,-0.75059 -5.09295,-1.48211 -6.14029,-2.7373 -1.66172,-1.339 -0.51216,-2.92788 -2.05084,-4.27468 -1.6748,-1.4078 -2.17513,-3.1373 -0.31369,-4.562 2.03465,-1.85799 6.96864,-2.45679 10.34485,-3.74499 6.24746,-2.47619 13.74197,-4.2916 19.97865,-6.7722 -1.2096,-1.04259 -2.66305,-2.09555 -2.82245,-3.28507 -5.94083,0.268 -12.04991,0.028 -17.6783,-0.84698 -11.46351,-1.89418 -20.18998,-5.99165 -26.07406,-10.49187 -4.71171,-3.92657 -8.76376,-8.01108 -12.06259,-12.188403 -1.26316,-1.82978 1.4462,-4.01637 5.99256,-4.34597 4.22566,-0.3004 8.54494,-0.0201 12.79901,0.0269 11.30951,-0.032 35.49122,2.6806 30.10901,0.8382 -18.36336,-4.04701 -38.28954,-6.51399 -57.43324,-9.75857 -12.31227,-2.18642 -24.67186,-4.45882 -35.78658,-7.63882 -7.17548,-2.1745 -14.38375,-4.66804 -18.28523,-8.12096 -2.14603,-2.2166 -3.36784,-4.65764 -2.94356,-7.06363 -0.10079,-1.18452 1.73001,-2.16334 2.04116,-3.30213 -2.19334,-3.8467 -3.05277,-7.82646 -2.62744,-11.78275 0.37492,-6.31571 4.61291,-12.51619 11.40846,-18.10639 4.73941,-4.21431 11.73144,-7.8764 19.41653,-11.17761 0.18284,-0.0763 0.49716,-0.12028 0.89521,-0.13229 z m 84.73324,5.95675 c 1.47557,0.22238 2.66482,0.59716 2.73517,1.21645 -2.91907,4.3756 -3.98762,6.6948 -6.61513,11.1063 -2.84551,4.96779 -7.25963,13.92214 2.86846,18.20045 7.47763,3.15878 11.11472,-3.36068 20.83866,-14.02188 4.16898,-4.30221 8.84663,-8.54747 14.87044,-12.44007 1.03351,-1.15412 4.75749,-1.72136 7.09602,-0.92036 2.22854,0.82839 1.16667,2.23319 0.81644,3.31089 -4.40501,7.92671 -8.36452,15.92646 -10.74822,23.96496 -2.03558,7.12149 -3.30446,14.26228 5.47766,10.53218 4.46244,-1.89521 8.81449,-3.49353 12.94922,-4.99763 l 1.49115,2.01123 -0.64681,0.25892 c -4.00088,1.60078 -11.03916,6.44565 -14.87526,10.24173 -3.79275,3.75272 -7.57086,10.52042 -7.57086,13.56302 0,2.8316 -1.0265,1.58353 -2.45782,-2.97916 -3.61245,-11.51821 -0.16409,-29.6092 8.83793,-46.35222 4.58388,-8.524 4.63531,-8.6419 3.31545,-7.87651 -3.66784,2.12651 -11.95223,9.05669 -14.99279,12.54239 -8.41176,9.6421 -11.59341,19.70619 -10.77368,34.04287 0.30712,5.3734 0.35215,9.76943 0.0945,9.76943 -2.28427,0 -15.10356,-3.34876 -18.71155,-4.88807 -5.53392,-2.36059 -8.0187,-4.9833 -9.69071,-10.23142 -1.51826,-4.7662 -0.74699,-16.90057 1.40631,-22.10718 2.06472,-4.9934 8.4392,-15.88375 12.46597,-21.29636 0.76787,-1.03219 1.34119,-1.89656 1.81943,-2.64996 z m 62.07263,27.74611 c 9.35171,3.2017 27.47637,5.64367 58.70641,7.90596 3.97112,0.2876 7.51694,0.57838 11.16978,0.86818 2.75118,2.0057 7.56336,6.26996 11.20489,10.84016 4.61476,5.7912 6.96032,12.11519 6.88763,12.73358 -0.16408,1.3811 0.74115,3.81693 1.6959,5.30923 -0.5281,0.086 -0.94959,0.18627 -1.48992,0.27028 -6.37901,0.99041 -8.87415,1.44399 -8.83435,0.51419 0.11955,-16.03682 -11.35416,-23.58724 -17.6722,-28.25565 -1.55952,-0.79931 -1.59035,-0.78827 -1.10111,0.41082 0.27637,0.67892 1.42553,4.75223 2.55468,9.05063 3.5861,13.65538 0.33553,20.56664 -12.37502,26.32604 l -4.53892,2.05724 -0.70374,-2.26293 c -0.38652,-1.24439 -1.32683,-3.09502 -2.09079,-4.11292 l 5.69932,0.73226 c 3.08974,-0.3221 9.82884,-6.13664 9.97423,-6.77376 2.60678,-11.46929 -2.58124,-23.66216 -1.93214,-23.94685 -25.63052,-3.44379 -43.84148,-4.28636 -55.69133,-9.45936 -1.6402,-0.51522 -1.98795,-1.4148 -1.46332,-2.2071 z m 72.84519,9.00462 c 17.7583,1.44528 31.88235,2.92983 42.84871,4.54803 0.13596,0.6949 1.03234,3.29676 1.50444,4.86637 1.20952,4.0205 0.53072,9.36339 -1.43906,11.32232 -2.12792,2.1168 -8.04406,4.24307 -16.536,6.11486 3.49927,-2.22221 6.93694,-5.06304 8.52058,-6.59805 4.43082,-4.29429 2.71893,-10.75205 0.92423,-13.21366 -0.52643,-0.7222 -12.83467,-2.15633 -23.81249,-4.25452 -4.54427,-0.8686 -8.85202,-1.93797 -12.01041,-2.78535 z m -216.81535,1.38647 c 0.23469,0 1.20451,1.57556 2.15138,3.50057 0.94698,1.925 1.54208,3.57333 1.32635,3.66334 -0.7224,0.3003 -10.64949,-2.75307 -12.17153,-3.74396 -0.82507,-0.53721 -1.33165,-1.03058 -1.12774,-1.09659 1.02653,-0.33068 9.45047,-2.32336 9.82154,-2.32336 z m 134.33519,0.70487 3.62431,4.88651 c 0.43171,1.66111 -1.5876,4.43733 -2.56438,6.69571 -2.32601,5.37861 -5.15701,13.08642 -4.87685,16.27603 0.19456,2.22139 9.24782,-2.98961 9.60834,-1.18703 1.16358,5.81491 2.49106,10.71086 6.48916,12.741883 3.65815,1.85828 9.83189,1.10064 14.36043,0.95703 6.61679,-0.2099 11.82814,-1.37642 17.04959,-5.256513 1.71376,-1.4782 3.83002,-5.1713 7.81802,-4.70101 -0.19456,0.89311 -0.84807,2.52677 -1.58929,3.91708 -1.18681,2.2266 -2.37248,3.29383 -5.06466,4.56922 -4.67741,2.215203 -9.2972,3.015063 -20.98765,3.633373 -11.68642,0.61809 -15.3266,0.30056 -18.32518,-1.59782 -2.65137,-1.67862 -4.4829,-6.111853 -3.75998,-9.097653 l 0.55726,-2.30735 -2.86604,2.88044 c -1.57687,1.58369 -2.89122,3.21384 -2.91937,3.62305 -0.0961,1.41988 -1.68064,0.30186 -3.51168,-2.47635 -1.50629,-2.2847 -1.84163,-4.1399 -1.81819,-10.1973 0.0258,-6.4883 0.35279,-8.08236 2.70374,-12.88656 1.47584,-3.01519 3.68568,-6.9574 4.90955,-8.76019 z m 139.42281,4.94078 c 7.21059,1.5076 12.41671,2.94965 15.82736,4.39767 l -0.0703,0.16483 -1.31184,1.68 c -0.79959,1.0238 -2.8818,2.25518 -5.33235,3.1528 l -4.02168,1.47225 -0.79701,-1.77766 c -0.43811,-0.97761 -1.43268,-3.0853 -2.19615,-4.6855 z m -217.11329,32.26313 c 1.1464,-0.011 4.47144,0.26149 9.96082,0.80357 16.28017,1.608113 26.00742,4.480243 33.57108,9.911553 3.79627,2.72601 3.86885,2.84311 2.2034,3.62821 -0.94725,0.4463 -2.19789,0.80055 -2.77878,0.78753 -2.14106,-0.048 -18.54842,-2.35561 -22.75019,-3.20032 -4.11385,-0.8268 -4.18945,-0.87183 -1.44752,-0.8578 1.59083,0.011 5.82034,0.34136 9.39997,0.73948 3.57989,0.39838 6.50852,0.69699 6.50852,0.66299 0,-0.1184 -9.20888,-2.59593 -15.18656,-4.08553 -3.31451,-0.82619 -6.024,-1.57552 -6.024,-1.66553 0,-0.26059 9.84596,1.05473 12.86444,1.71823 6.19568,1.36242 3.03641,0.036 -6.0882,-2.5554 -5.35832,-1.52209 -9.55712,-2.84752 -9.32974,-2.94452 0.22737,-0.097 2.04746,0.11364 4.04223,0.46924 3.9653,0.7067 5.70776,0.57668 2.39723,-0.17934 -1.1348,-0.25908 -6.05328,-1.09804 -10.92989,-1.863433 -5.75942,-0.90411 -7.88703,-1.35893 -6.41281,-1.36893 z m 188.18886,2.832393 v 5.3e-4 c 0.12119,0.007 0.30696,0.0622 0.35621,0.0832 0.23741,0.1012 -2.0132,0.8768 -5.00167,1.72341 -5.90989,1.67421 -13.88076,4.65821 -13.88076,5.19711 7e-5,0.1851 2.66564,-0.30549 5.92228,-1.0909 3.25664,-0.78529 6.05346,-1.37235 6.21056,-1.30535 0.29409,0.12552 -12.01953,4.79102 -15.50638,5.87563 -1.83891,0.57179 9.21134,-1.0196 13.41921,-1.93271 l 2.00717,-0.43513 -1.92841,0.82838 c -1.06025,0.45562 -5.18176,1.69598 -9.15895,2.75797 l -7.23291,1.93167 4.80901,-0.28475 c 2.64462,-0.15629 5.98747,-0.54403 7.42672,-0.86143 3.73574,-0.8242 4.5584,-0.69654 1.74557,0.26975 -3.26625,1.1222 -11.20614,2.87443 -15.91095,3.51194 l -3.85453,0.52245 6.26626,0.0542 c 8.04959,0.068 5.80996,0.50832 -9.62045,1.88981 -6.08663,0.54502 -11.17661,0.99065 -11.30785,0.99065 -0.13127,0 1.69745,-0.76239 4.06886,-1.695 3.56892,-1.40308 4.65311,-2.20104 6.28808,-4.62814 1.08649,-1.6128 2.67348,-3.6254 3.52626,-4.4731 2.2165,-2.20382 10.79182,-5.48574 17.86601,-6.83834 6.37988,-1.21981 13.38288,-1.35202 13.38288,-2.05052 0,-0.025 0.0256,-0.0403 0.0605,-0.0403 v -5.1e-4 c 0.0141,-0.001 0.0307,-0.002 0.0471,-5.3e-4 z m -88.26306,15.23164 c 0.19503,0.001 0.3906,3e-5 0.58752,0.001 6.56136,0.034 12.88516,0.83215 12.49014,1.57666 -0.1383,0.26029 0.40452,1.01422 1.20526,1.67481 2.32341,1.91672 1.69824,2.31531 -1.58564,1.01081 -2.94459,-1.16951 -3.03273,-1.09749 -1.12535,0.92501 0.45473,0.48189 -0.42962,0.3411 -2.89747,-0.46199 -3.87407,-1.26031 -9.80771,-1.75006 -15.59242,-1.28727 -4.46295,0.35721 -10.36911,2.62678 -13.10304,5.03586 -1.16827,1.02931 -2.38928,2.91587 -2.71464,4.19098 -0.37721,1.47878 -0.88435,2.12288 -1.40031,1.77869 -0.44535,-0.2966 -1.84151,-0.70697 -3.10101,-0.91157 -3.80677,-0.6173 -3.88275,-2.09201 -0.2677,-5.1666 6.80219,-5.7858 15.21837,-8.35041 27.50466,-8.36642 z m 6.832,8.24497 2.14163,0.97256 c 1.8992,0.86238 2.02046,1.13263 1.05751,2.37763 -1.16616,1.50741 -5.86293,4.47206 -5.86293,3.70107 0,-0.25562 0.46108,-0.98584 1.02483,-1.62264 0.97491,-1.1026 0.83703,-1.08021 -2.89269,0.46818 -2.73175,1.13361 -3.91746,1.42132 -3.91746,0.9498 0,-1.10498 -1.87701,-1.26418 -2.79697,-0.23717 -0.83831,0.93649 -0.86393,0.93162 -1.65837,-0.28215 l -0.80917,-1.23405 -0.50391,1.64537 c -0.38026,1.2379 -0.68272,1.45883 -1.22467,0.89194 -0.39643,-0.4145 -0.72191,-1.11882 -0.72191,-1.56631 0,-0.44731 -0.4326,-0.69903 -0.96307,-0.55915 -0.53002,0.13962 -0.95648,0.75124 -0.97992,1.36015 -0.0258,0.86579 -0.21683,0.97308 -0.94848,0.4904 -0.51434,-0.3394 -0.92627,-1.03335 -0.94971,-1.54254 -0.0258,-1.3452 -1.68233,-1.13401 -2.42508,0.3085 -0.81761,1.58811 -1.94981,1.56689 -3.28033,-0.062 -1.58765,-1.9427 -1.30683,-2.80678 1.40155,-4.3217 2.87385,-1.60708 4.31954,-1.69506 8.12444,-0.49504 3.38415,1.06738 9.44425,0.88162 13.55486,-0.41497 z m -81.58984,9.12191 c 0.0577,0 0.11416,5.6e-4 0.17206,0.001 1.17745,0.013 2.30306,0.1746 3.92472,0.50279 1.94963,0.3947 3.28175,0.82851 2.9629,0.9648 -1.30188,0.55581 -8.06143,1.16054 -9.28244,0.83045 -0.71236,-0.1927 -2.59556,-0.35277 -4.18639,-0.36277 -1.591,-0.011 -3.52126,-0.18243 -4.2894,-0.38963 -1.07617,-0.2903 -0.74399,-0.43487 1.44637,-0.63098 1.56325,-0.13991 4.40899,-0.45063 6.3232,-0.69143 1.0832,-0.13629 1.94547,-0.21323 2.75575,-0.22323 0.0574,-5e-4 0.11557,-0.001 0.17323,-0.001 z m 14.14002,0.94311 h 10e-4 0.001 c 0.56774,0 2.18364,0.933 5.37956,2.98378 4.21678,2.706 7.36749,3.76878 11.17946,3.76878 2.13127,0 3.4922,0.73806 2.2906,1.24386 -1.34176,0.56449 -10.10955,0.79227 -14.81343,0.38497 -5.30277,-0.45918 -12.55235,-1.59787 -12.5289,-1.97197 0,-0.15089 1.28587,-0.58552 2.85026,-0.9653 3.1622,-0.7675 6.15848,-3.336 5.53702,-4.74649 -0.20371,-0.46019 -0.19339,-0.69702 0.1029,-0.69763 z m -7.33711,9.45473 c 0.46226,-0.002 0.74259,0.0683 0.74259,0.26045 v 0.001 c -8e-5,0.8408 3.61922,0.18111 6.45275,0.57359 6.2753,0.86911 7.49575,1.74665 3.51899,2.52855 -3.28008,0.64468 -12.26731,0.61298 -16.61838,-0.0589 -1.81317,-0.27979 -3.89681,-0.8936 -4.63219,-1.3658 -1.29368,-0.83119 -1.12165,-0.87612 5.38439,-1.372 1.80963,-0.1379 3.91715,-0.53935 5.05734,-0.56536 0.0324,8.2e-4 0.0638,2.1e-4 0.0945,0 z m 53.31956,6.32105 11.57311,0.13539 c 9.52772,0.11149 12.45621,0.30369 16.58567,1.08418 5.72946,1.0827 13.45735,4.34038 16.66804,7.0249 2.1327,1.78319 4.99291,4.94543 4.47231,4.94543 -0.15237,0 -1.68324,-0.92543 -3.40146,-2.05674 -1.71798,-1.1312 -3.31948,-2.05671 -3.55527,-2.05671 -0.23462,0 0.6584,0.91506 1.98659,2.03346 4.45542,3.751 7.27482,8.79062 7.11542,12.7186 -0.0797,1.954 -0.31598,2.99804 -0.527,2.31926 -0.67669,-2.17681 -3.0787,-5.36496 -6.15596,-8.17005 -2.94413,-2.68412 -4.58215,-3.68495 -2.85151,-1.74305 3.03205,3.40149 3.98928,11.2135 1.87027,15.28951 l -1.267,2.43964 -0.72076,-3.7026 c -0.39594,-2.03611 -1.53315,-4.81288 -2.52566,-6.17019 l -1.80368,-2.46857 -0.62388,6.1712 c -0.3586,3.55449 -1.2208,6.95439 -2.03258,8.02068 l -1.41004,1.85158 -0.0654,-1.56477 c -0.0328,-0.86029 -0.79982,-2.89679 -1.69831,-4.5253 l -1.63169,-2.96002 -0.75585,2.67374 c -0.41493,1.47069 -1.25995,4.01577 -1.87762,5.65597 -1.13833,3.02242 -2.78001,4.03559 -2.78001,1.7162 0,-1.27871 -4.27862,-6.40498 -5.98157,-7.16598 -0.58553,-0.2617 -0.69537,1.00981 -0.2992,3.49591 l 0.62264,3.90827 -3.05986,-2.26237 c -1.68211,-1.24442 -4.34839,-3.3741 -5.92711,-4.73152 l -2.87087,-2.46753 0.41671,2.88303 c 0.22972,1.58528 1.15005,3.52931 2.04835,4.31911 l 1.63294,1.43608 -2.89996,-1.40713 c -2.94889,-1.43021 -9.259,-6.51015 -10.64527,-8.56798 -0.69029,-1.0246 -0.83487,-1.05558 -1.53718,-0.33226 -0.44817,0.46249 -0.16174,2.081 0.67955,3.84421 1.40434,2.94159 1.39503,3.01339 -0.2665,2.081 -2.65559,-1.4909 -7.56671,-6.7478 -8.22866,-8.80668 -0.32676,-1.01661 -0.85873,-1.91744 -1.18221,-2.00144 -1.19713,-0.31189 -1.02969,4.16068 0.24106,6.43887 1.45352,2.60501 0.60984,2.73341 -2.24947,0.34211 -6.56415,-5.48921 -9.64913,-11.0445 -10.17772,-18.32859 -0.32679,-4.49961 -0.19222,-5.44412 0.61178,-4.31911 0.56699,0.79179 2.06559,2.93272 3.33118,4.75731 2.13333,3.07721 7.56509,7.1405 8.82579,6.60271 0.3014,-0.1287 0.11252,-0.4698 -0.41549,-0.75809 -0.77985,-0.4237 -4.13187,-4.23682 -4.13187,-4.70101 0,-0.068 1.69733,0.66141 3.7721,1.62161 2.07477,0.9602 5.65372,2.18818 7.95487,2.72748 l 4.18274,0.98031 -2.54744,-1.19269 c -1.98396,-0.92893 -7.02396,-4.68966 -6.28442,-4.68966 0.0844,0 2.4374,0.36999 5.22691,0.82219 2.79012,0.45239 6.40238,0.82217 8.02882,0.82217 h 2.95807 l -4.07376,-1.33583 c -2.24012,-0.7352 -4.76921,-1.79059 -5.61938,-2.34508 -1.47727,-0.9634 -1.46084,-0.99362 0.38279,-0.68472 3.48141,0.58309 8.02776,0.76902 11.66881,0.478 l 3.58076,-0.28628 -4.97256,-1.21182 c -5.56885,-1.3572 -6.58423,-2.23456 -2.10047,-1.81435 1.57943,0.14801 5.3749,0.13404 8.43574,-0.03 l 5.5661,-0.29919 -3.37595,-0.45167 c -3.82743,-0.51199 -11.57076,-2.20803 -11.57076,-2.53473 0,-0.1188 1.41135,-0.1128 3.13495,0.015 1.72361,0.12679 5.95379,0.066 9.40122,-0.13436 3.44679,-0.2009 5.56671,-0.38907 4.70971,-0.41807 -0.85632,-0.029 -6.06473,-0.70561 -11.57193,-1.50481 z m -34.84542,8.54625 c -0.84645,1.9567 -1.79163,2.01369 -10.95654,2.37297 -3.44749,0.13531 -13.86217,0.69779 -23.14145,1.25058 -35.57595,2.11849 -47.73751,2.23922 -98.09551,0.97772 -69.43695,-1.7393 -101.08732,-0.011 -131.69566,7.20783 -10.91289,2.57241 -17.52361,4.6496 -27.64034,8.6863 -3.99059,1.59218 -10.86645,4.23611 -15.2799,5.8756 -15.31883,5.6901 -23.39592,10.29894 -29.10602,16.60674 -0.48623,0.5369 -0.70374,1.1265 -1.12661,1.6758 0.27451,-1.1068 -0.24454,-2.2227 -1.83029,-3.1026 4.99434,-5.2783 13.01026,-9.96948 22.63386,-13.88647 7.22733,-2.85981 14.73028,-5.59195 21.93129,-8.46564 11.04843,-4.52922 23.88272,-8.24918 37.83259,-10.95179 22.14197,-4.4337 46.87442,-5.75847 71.10083,-5.96657 33.48728,-0.4151 66.85058,1.30562 100.3171,1.35962 25.11059,0.20129 49.79832,-1.94985 74.75299,-3.04065 1.44681,-0.12469 6.35556,-0.37634 10.30366,-0.59944 z m -12.88502,6.69986 c 2.00302,-2e-5 1.99869,0.015 -0.27742,1.33633 -5.75142,3.33862 -7.93157,7.41966 -7.10087,13.27828 0.97683,6.8862 5.93909,15.56677 12.80633,22.40737 l 2.27001,2.2629 -2.33426,-1.204 c -3.59937,-1.8567 -11.62081,-8.7111 -14.47914,-12.37134 -1.41327,-1.80991 -3.07778,-4.63968 -3.69941,-6.28748 l -1.12896,-2.99569 -1.18348,3.40754 c -2.21139,6.37291 -1.63257,13.86597 2.17074,28.08147 0.30004,1.1271 0.33323,1.9572 0.0703,1.8449 -0.8821,-0.3763 -6.41614,-10.0348 -7.17963,-12.5326 l -0.75465,-2.4686 -1.28041,3.2913 c -0.70414,1.81 -1.55071,5.8822 -1.8824,9.0496 l -0.60327,5.7598 -1.30826,-3.0861 c -0.72006,-1.6967 -1.5406,-5.8396 -1.82304,-9.2046 l -0.51359,-6.1185 -2.2289,2.2107 c -1.22596,1.2163 -3.2252,3.9704 -4.44439,6.1196 l -2.21675,3.9082 -0.28101,-3.6447 c -0.24871,-3.2242 1.82316,-11.8059 3.31418,-13.7413 1.37929,-1.78964 -7.11542,4.579 -10.02141,7.5133 l -3.25849,3.2907 0.59111,-2.0567 c 1.1547,-4.0263 5.69313,-10.99372 9.09719,-13.97073 3.99455,-3.49401 3.64625,-3.542 -2.15255,-0.30541 -5.1727,2.88751 -8.91688,5.60654 -11.91961,8.65784 -2.19106,2.2258 -2.26598,2.2552 -1.70434,0.6816 2.05673,-5.76092 10.35378,-14.39078 17.14411,-17.82986 1.94088,-0.9829 3.5286,-1.88386 3.5286,-2.00248 0,-0.337 -6.79113,1.88611 -11.44955,3.74862 -2.3202,0.92729 -6.17217,2.79781 -8.56053,4.15531 -4.91135,2.79059 -4.71921,1.87968 0.47484,-2.26293 4.83022,-3.8526 11.08649,-7.46953 16.32642,-9.43713 3.9205,-1.47222 4.16586,-1.64799 1.75401,-1.25677 -4.08734,0.66299 -13.82556,3.53988 -18.55286,5.48079 -5.0283,2.0646 -5.3203,1.44026 -0.57542,-1.23404 9.89136,-5.5747 26.99243,-10.11325 44.51796,-11.81373 2.93878,-0.1706 5.87583,-0.66127 8.84885,-0.66146 z m -325.47854,39.91848 c -4.1258,6.6663 -4.11675,14.1389 0.58504,22.4017 1.67351,2.9411 3.10481,6.5919 3.1798,8.1127 l 0.13924,2.7663 6.08817,-2.5601 c 7.18186,-3.0194 13.37463,-7.0991 17.42756,-11.4753 2.93573,-3.1702 6.43444,-8.5285 7.07058,-10.8293 0.2804,-1.0144 0.56891,-0.7943 1.61955,1.2341 0.28293,0.5462 1.35906,2.0786 2.03626,3.146 -2.9587,3.6651 -8.73945,9.2307 -12.41498,11.9641 -6.2833,4.9648 -16.48228,8.6806 -25.7398,12.6008 -0.0656,-1.3878 -0.13666,-2.7757 -0.20464,-4.1636 0.24187,-3.6655 -1.51313,-7.2732 -3.4184,-10.8267 -3.21557,-5.7012 -4.27692,-11.6869 -2.67948,-17.5266 1.76604,-1.3655 3.49513,-2.7431 5.25483,-4.1005 0.39421,-0.2324 0.74753,-0.4821 1.05627,-0.7436 z m 437.55894,1.2485 c 0.48905,0.9675 3.34504,1.8017 4.04711,3.0189 -1.12183,3.3156 -0.69872,6.6844 -1.7346,10.0196 -2.04617,8.2882 -9.1871,16.2538 -22.34558,22.412 -2.78295,1.5255 -6.57952,2.619 -9.51992,4.0763 -2.14863,1.4184 -4.2112,3.0648 -5.39053,4.6343 -4.9305,7.6513 -9.49343,15.4386 -13.28593,23.2089 l -6.62844,-0.038 c 1.47373,-3.1303 3.39332,-6.7755 6.4964,-12.2432 2.63124,-4.6382 6.08298,-10.2246 7.66898,-12.4142 2.54308,-3.5085 3.36853,-4.1565 6.9749,-5.4648 6.79014,-2.4629 14.94226,-6.8198 19.09317,-10.204 7.61729,-6.2105 10.49027,-11.1296 11.2303,-19.2226 0.4545,-4.9667 0.68206,-5.6037 3.39414,-7.783 z m -397.76405,14.0968 h 0.001 c -4.2e-4,0 -7.2e-4,0.01 -0.001,0.01 0.55187,0.8208 0.80379,1.316 1.36522,2.11 6.6347,9.3848 7.80653,12.1406 7.86284,18.511 0.0586,6.5066 -1.84356,10.3815 -7.20146,14.6699 -4.29877,3.4408 -13.58418,7.0608 -22.70289,8.8501 -9.27648,1.8201 -13.1209,4.968 -14.88011,11.0769 h -6.64786 c 0.11252,-0.4372 0.1008,-0.63 0.33919,-1.3224 0.9566,-3.1749 3.13304,-6.977 8.45149,-9.3478 2.8884,-1.4546 8.34567,-2.6721 12.13885,-3.576 8.68884,-2.0778 16.34578,-4.7245 20.26816,-8.6202 4.91995,-4.5893 5.12084,-8.7736 4.76055,-13.6745 -0.24355,-4.0412 -2.41159,-7.9723 -5.01498,-11.8644 -0.89171,-1.3295 0.91717,-4.436 1.261,-6.8126 z m 118.56238,3.5176 c 0.45356,0.041 -0.24957,1.624 -2.04235,4.7734 -6.61921,11.6374 -18.86169,20.9967 -37.58181,28.7274 -12.71175,5.2497 -23.86875,8.5884 -43.61064,13.0504 -9.56223,2.1613 -16.6763,3.8367 -22.01732,5.1599 h -6.86587 c 5.40757,-2.1249 12.31599,-4.4264 18.4814,-5.9692 25.95909,-6.4958 41.30633,-12.3477 57.28669,-21.841 3.61742,-2.1494 8.34816,-5.2966 10.51198,-6.9929 2.16409,-1.6968 3.92431,-2.9694 3.94775,-2.8282 0.0703,1.3316 -8.15224,8.6059 -2.86239,6.1624 5.28943,-2.4437 12.78425,-8.2916 20.35661,-16.2915 2.52268,-2.6651 3.96994,-3.9887 4.39595,-3.9507 z m 9.58286,3.1585 h 0.001 c 0.38558,0 1.40545,0.2943 3.4099,0.834 13.05956,3.5173 43.26812,7.4399 63.45607,8.2404 3.7285,0.1479 6.77867,0.4268 6.77867,0.6206 0,0.1938 -3.36388,0.3616 -7.47398,0.3726 l -7.47156,0.019 5.53099,1.218 c 3.04241,0.67 7.98967,1.4913 10.99414,1.8252 3.00434,0.3339 5.68743,0.7026 5.96218,0.8196 0.94091,0.4018 -11.88501,-0.2881 -23.40305,-1.2588 -6.33677,-0.5342 -11.72085,-0.8863 -11.96445,-0.7824 -0.71534,0.3051 11.77083,2.5913 18.87151,3.4551 7.99797,0.9731 5.37731,1.0693 -6.10637,0.2243 -10.84772,-0.7982 -25.39838,-2.4328 -30.90128,-3.4711 -8.07545,-1.5239 -2.45972,0.2193 10.28669,3.1936 1.32605,0.3095 5.4454,1.0054 9.15771,1.5472 3.71235,0.5416 5.88452,0.9847 4.82359,0.9947 -3.54782,0.019 -30.79112,-2.9716 -36.06765,-3.9599 -2.86591,-0.5369 -5.40825,-0.8916 -5.6497,-0.7886 -0.60032,0.2563 9.48096,2.9869 17.12711,4.639 14.8669,3.2128 39.40678,5.6869 64.80186,6.5329 4.61717,0.1538 8.32272,0.3939 8.23831,0.5333 -0.43644,0.7079 1.76158,6.217 6.16938,15.4735 1.2527,2.6306 2.00035,5.1334 2.59586,7.4827 l -4.03858,0.1256 c 0,0 -2.10473,-6.3129 -3.60494,-9.463 -1.79346,-4.0499 -4.00258,-8.0901 -4.95074,-12.191 -7.33891,-0.2913 -14.766,-0.603 -22.09125,-1.0712 -14.90398,-0.952 -29.81665,-2.3123 -39.09475,-3.6773 -9.2774,-1.3649 -14.24302,-2.2348 -20.07675,-3.2138 -12.7856,-2.1454 -21.08774,-3.8542 -25.34484,-5.2188 l -3.16646,-1.0144 1.96116,-1.3534 c 1.07872,-0.7446 1.96115,-1.9209 1.96115,-2.6138 0,-1.1849 0.1594,-1.2399 2.70733,-0.9281 1.4899,0.1822 4.20325,0.6538 6.02882,1.048 l 3.31667,0.7157 -3.08409,-1.3844 c -3.46646,-1.5571 -7.0512,-4.7082 -4.9253,-4.331 0.69296,0.1227 4.19017,0.6224 7.77074,1.11 3.58064,0.488 6.75158,1.0548 7.04759,1.2589 0.29585,0.2041 0.91679,0.371 1.38095,0.371 0.46436,0 -1.44773,-0.978 -4.25058,-2.1735 -2.80165,-1.1953 -5.62241,-2.5936 -6.26631,-3.1068 -0.56649,-0.4515 -0.82816,-0.6532 -0.44699,-0.6532 z m 91.78807,0.7736 c 0,0 0.0267,3e-4 0.0267,0.01 l 2.73522,1.1664 c 0.0609,0 0.11486,0.027 0.1805,0.092 0.48171,0.4615 1.80734,3.7012 2.94715,7.1991 1.13951,3.498 2.47399,7.5537 2.96538,9.0134 0.49128,1.4596 0.75635,2.7123 0.58989,2.7833 -0.51354,0.2191 -7.04969,-6.8733 -8.06869,-9.4837 -1.25779,-3.2198 -1.9026,-10.7761 -1.37729,-10.7761 h 0.001 z m 104.87541,11.806 c 1.2937,0 0.52669,0.1465 -1.57717,0.4981 -10.51552,1.7568 -19.0164,4.2711 -27.2188,8.0507 -4.41438,2.0342 -7.95637,5.765 -10.11227,9.0739 -2.15583,3.3087 -4.16202,10.7019 -5.17724,16.2905 l -6.51581,0.1255 c 1.76393,-9.7866 5.7217,-18.0632 11.56949,-23.29 6.46338,-5.7779 21.10915,-10.3249 34.32209,-10.6573 2.41602,-0.06 3.9341,-0.1009 4.70971,-0.091 z m -51.42381,7.0786 c 0.41585,-10e-5 -0.0445,2.0977 -0.77525,4.5863 -0.73204,2.4888 -1.83451,10.356 -2.45051,17.4826 -0.16409,1.91 -0.3514,3.3494 -0.53424,5.0328 l -3.76967,0.1173 c -0.65519,-6.6604 0.19456,-14.7262 2.31001,-18.9306 1.99627,-3.9667 4.80406,-8.2882 5.21966,-8.2884 z m -121.64759,2.7957 c -0.19691,1.4032 -5e-4,2.8661 -1.85697,3.9347 -10.72428,5.6643 -23.28582,10.8669 -38.45158,14.3164 -12.396,2.8584 -25.81584,4.7899 -39.23163,6.5691 -3.15256,0.4071 -6.38503,0.8302 -9.57325,1.2785 h -11.69305 c 3.57239,-0.6811 7.54562,-1.3079 12.00922,-1.8831 37.98378,-4.8954 51.51413,-7.7121 68.23353,-14.2012 6.80837,-2.6427 16.03802,-7.2557 20.56373,-10.0144 z m 150.01842,5.6369 1.18707,4.8607 c 0.65357,2.6736 1.85775,6.7116 2.67589,8.9741 0.31338,0.8659 0.64778,2.6019 0.97148,4.3051 l -6.54368,-0.037 c -1.18119,-5.3863 -2.98864,-12.6218 -4.14638,-18.0521 z"
       sodipodi:nodetypes="ccsccsccccccscccccccscscccccccccccsccccccccccscccscccccccccccccccccccscccccccccccccccccccccccccccsccccscccscccccccccccccccscccccccccccccccccccsccccccscsccccscscsccccsccccccccccccccccccccccccscscccccccccccccscccccscccsssccccccccccccccccccccccccccsccsccccscccccscccccssccccccccccccccccccccscscccscsccsccccccssscccccccccccccccscscssccscsccscccccccccsscccsccscccccsccscsccsccscccccscscsccscscscccsccssccccsccccscssssccscccccccccccccccsscccccccccscccsccccccccssscsscsccscccsscccsccscccccccccccccccccccscccccscccccscssccsccccccccccccccscccsscccsscsccccssccccccccccccccccccccccccccccscccccccccccccccccsccccsccscssccssccscscccccccscscccccsccccscccccccscscccccccsscsccccssccccccccccccccccccccccccccccc" />
  </g>
</svg>
