<?xml version="1.0" encoding="UTF-8" standalone="no"?>
<!-- Created with Inkscape (http://www.inkscape.org/) -->

<svg
   width="305.19034mm"
   height="305.19037mm"
   viewBox="0 0 305.19034 305.19037"
   version="1.1"
   id="svg2578"
   inkscape:version="1.4 (86a8ad7, 2024-10-11)"
   sodipodi:docname="Buck.svg"
   xml:space="preserve"
   xmlns:inkscape="http://www.inkscape.org/namespaces/inkscape"
   xmlns:sodipodi="http://sodipodi.sourceforge.net/DTD/sodipodi-0.dtd"
   xmlns="http://www.w3.org/2000/svg"
   xmlns:svg="http://www.w3.org/2000/svg"><sodipodi:namedview
     id="namedview2580"
     pagecolor="#ffffff"
     bordercolor="#666666"
     borderopacity="1.0"
     inkscape:pageshadow="2"
     inkscape:pageopacity="0.0"
     inkscape:pagecheckerboard="0"
     inkscape:document-units="mm"
     showgrid="false"
     inkscape:zoom="0.47927888"
     inkscape:cx="57.377867"
     inkscape:cy="969.16434"
     inkscape:window-width="2560"
     inkscape:window-height="1351"
     inkscape:window-x="-9"
     inkscape:window-y="-9"
     inkscape:window-maximized="1"
     inkscape:current-layer="layer1"
     inkscape:snap-global="true"
     inkscape:showpageshadow="2"
     inkscape:deskcolor="#d1d1d1" /><defs
     id="defs2575" /><g
     inkscape:label="Layer 1"
     inkscape:groupmode="layer"
     id="layer1"
     transform="translate(679.34254,-792.34562)"><path
       id="path6256"
       style="fill:#ff6600;stroke:none;stroke-width:1;stroke-linecap:round;stroke-miterlimit:4;stroke-dasharray:none;stroke-opacity:1"
       d="m -447.39594,808.70195 c 0.95348,-0.032 1.73932,0.62887 2.52283,1.08366 9.59289,6.6344 16.81853,16.46076 19.90524,17.60876 3.08671,1.148 2.23674,-2.77373 1.89913,-6.43115 -0.12409,-1.75368 0.53853,-2.75513 1.35702,-3.29644 0.084,0.89381 0.13001,1.62142 0.416,3.47112 1.80779,11.69199 2.99374,25.64207 3.02874,35.66395 0.041,11.38801 -0.088,11.84069 -2.60448,9.15088 l -1.56167,-1.66812 -0.23824,-7.79279 c -0.33938,-11.05361 -1.90732,-17.66203 -6.07972,-25.63464 -3.80381,-7.26768 -9.1321,-13.66181 -15.22439,-18.27122 -1.86002,-1.40761 -2.98463,-2.12656 -3.23184,-2.11357 l -0.0103,5.3e-4 c -0.12941,0.01 -0.0181,0.22942 0.35552,0.66352 2.9968,3.48689 9.86171,14.48152 12.2773,19.66754 3.94909,8.47359 6.71584,19.26484 6.63784,25.88574 l -0.0362,3.11661 -0.57414,-3.17759 c -0.31613,-1.74789 -0.8087,-3.751 -1.0945,-4.45141 -0.47435,-1.1621 -0.51986,-0.94895 -0.51986,2.44274 0,4.87932 -0.39857,5.36803 -3.80185,4.65503 -1.3023,-0.273 -3.37486,-1.00531 -4.60385,-1.6278 -2.22452,-1.1267 -2.2429,-1.15395 -4.14341,-5.65756 -4.9908,-11.82589 -10.5261,-20.60754 -17.19172,-27.27274 -1.89738,-1.89741 -4.98359,-4.50091 -7.2099,-6.20221 1.22791,-0.22471 3.1174,0.19355 5.63481,2.38125 8.3476,7.22411 14.2354,16.82745 21.6762,18.34825 7.4408,1.52069 5.26439,-4.79772 2.16318,-10.5823 -2.85501,-5.08871 -5.86589,-10.10973 -9.33328,-14.80945 -0.57822,-0.94059 -1.53697,-1.63811 -1.91617,-2.68819 -0.4286,-1.07942 0.34068,-2.36527 1.50016,-2.45827 h 0.001 z m -77.05989,7.65742 c 0.61619,-0.01 1.22063,0.23354 1.59163,0.78134 0.7044,1.20181 -0.32145,2.47282 -0.87334,3.5171 -3.75118,6.3195 -7.78804,12.5263 -10.57402,19.358 -1.7675,4.1583 -2.81361,8.55057 2.51817,10.16217 5.33181,1.61169 8.46151,-9.9941 16.368,-21.3248 0.7979,-1.0636 1.96781,-1.47858 2.96262,-1.43558 -0.4844,0.6613 -0.74343,0.92615 -1.47019,2.05674 -8.35152,12.99181 -11.83341,27.20551 -10.64741,43.46091 0.2568,3.52329 0.35142,6.59257 0.21032,6.82077 -0.7211,1.1666 -6.15649,-0.0481 -9.6883,-2.16421 -2.5404,-1.52289 -3.86149,-3.27017 -4.71549,-6.23838 -0.67752,-2.35471 -1.48132,-7.63936 -1.22523,-8.05378 0.093,-0.1502 1.78541,-1.26442 3.761,-2.47581 1.97562,-1.2115 4.36475,-2.96614 5.30976,-3.89795 1.6827,-1.6588 3.88192,-4.76578 3.88192,-5.48338 2e-5,-0.1995 -1.65891,0.26045 -3.68658,1.02216 -1.58159,0.5942 -5.33937,1.78586 -9.33225,3.00136 l 0.68316,-3.83181 c 1.46021,-9.11759 4.6002,-16.42544 12.515,-29.12795 1.4524,-2.33119 2.56905,-4.30911 2.48306,-4.3961 -0.26934,-0.2693 -4.01537,3.04527 -7.03318,6.22236 -3.48078,3.6644 -7.7584,9.98159 -10.00299,14.77119 -1.8546,3.95721 -3.58688,9.96598 -3.98219,13.81519 -0.11171,1.08879 -0.43829,3.01858 -0.48628,4.28448 -3.95909,1.15609 -7.16148,2.03618 -7.25848,1.93529 -0.081,-0.084 -0.34993,-1.84163 -0.59944,-3.90623 -1.0854,-8.98599 1.56359,-19.75062 7.6135,-30.93971 0.407,-0.75279 0.38549,-0.84759 0.6723,-1.43608 0.6608,0.75668 1.00433,1.86285 0.29094,3.36825 -2.90751,5.58321 -5.20526,11.45572 -6.34535,17.59223 -0.84769,4.3384 -0.9272,8.78699 1.7911,7.5711 2.7183,-1.21579 4.02961,-6.87345 6.32881,-12.13157 2.7196,-5.92119 6.38984,-11.41346 10.79624,-16.21348 2.04301,-2.10219 4.10906,-4.22034 6.48076,-5.95672 0.41838,-0.45882 1.04632,-0.7171 1.66243,-0.7271 z m 104.34452,0.79375 v 0.002 c 0.0955,-0.01 0.18709,-0.01 0.2739,0 v -5.3e-4 c 0.42169,0.041 0.74107,0.18925 0.83507,0.39947 1.96721,4.1348 3.91698,8.33807 4.96147,12.81625 0.10165,0.39701 0.048,-1.00166 0.11266,-1.29034 -0.17462,-1.11281 1.34784,-1.87786 2.12336,-1.05574 1.32062,2.04308 2.25436,4.32712 3.1373,6.59183 3.74666,9.4507 3.83288,20.00543 1.73529,29.85243 -1.0275,4.49321 -2.30356,8.95247 -4.09225,13.20697 -2.2895,5.6488 -6.41035,10.40064 -11.26186,14.02085 -4.92249,3.50689 -10.42723,6.07761 -15.84243,8.71831 1.87971,-0.1452 3.8123,-0.41402 5.66785,0.061 1.60864,0.26551 2.46737,1.97575 2.31976,3.48763 -0.48979,3.10282 -1.33281,6.1482 -2.21639,9.1607 -1.17363,4.1448 -2.99545,8.26254 -6.20066,11.24376 -2.88949,2.88999 -6.3317,4.74456 -10.17252,5.82496 -2.72452,0.66259 -4.37592,1.93275 -6.17223,4.13824 0.93922,3.00961 1.49247,5.44494 2.49857,8.43206 3.97621,11.57549 6.13384,23.85012 5.61464,36.10993 -0.1638,4.45551 -0.72424,8.90469 -3.55586,19.73988 -2.4682,7.67752 -2.90423,8.93042 -3.49279,10.12232 -0.37182,-0.3677 -1.89167,-0.9145 -2.33165,-1.4211 0.75036,-1.5972 1.3692,-3.1885 3.65663,-10.97291 2.17476,-9.07261 2.57828,-12.05423 2.79569,-15.31794 0.87558,-13.14559 -1.15909,-26.07059 -6.3836,-40.55359 -1.231,-3.41281 -2.23862,-6.51029 -2.23862,-6.88279 0,-0.7425 1.91524,-2.56699 4.13565,-3.93928 0.7805,-0.48231 2.89886,-1.2718 4.70826,-1.75339 4.6064,-1.2259 7.52391,-2.64258 9.5839,-4.65397 3.46332,-3.38172 4.83492,-6.27049 7.04093,-14.82598 1.58599,-6.15011 1.48408,-6.44096 -2.26033,-6.44096 -5.22891,2e-5 -11.59561,1.84031 -15.9675,4.61473 -2.837,1.80049 -6.29026,5.06521 -7.72306,7.30289 -1.03809,1.62071 -1.46923,1.91863 -3.63905,2.51251 -1.3539,0.3705 -2.46134,0.54378 -2.46134,0.38447 0,-0.62169 8.57697,-8.58023 11.0598,-10.26242 1.4451,-0.97891 5.51767,-3.15455 9.05007,-4.83484 16.774,-7.97941 20.63369,-10.18865 24.79487,-14.19344 4.66622,-4.4904 6.65544,-7.7997 9.11574,-15.16549 4.8472,-14.51139 4.81097,-27.6647 -0.11163,-38.8488 l -1.26711,-2.87837 0.26355,12.34032 c 0.14438,6.78701 0.13801,12.22267 -0.015,12.07887 -0.15383,-0.14402 -0.4643,-2.08794 -0.69041,-4.31964 -0.801,-7.91279 -2.4293,-18.17029 -3.45768,-21.78421 -0.71882,-2.52568 -3.42223,-8.8198 -4.85034,-11.56001 0.31305,-0.10441 0.63272,-0.18619 0.91932,-0.20619 z m -48.18621,1.92598 c 4.26271,5.7808 11.30345,17.31078 15.01304,24.67189 2.6357,5.22989 5.28543,11.39926 5.01261,11.67215 -0.091,0.091 -1.97799,-0.044 -4.1951,-0.29922 -4.7058,-0.5415 -16.86131,-0.43368 -26.47021,-1.83346 -1.8465,-0.095 -3.09279,-0.15351 -4.24468,-0.20053 0.24087,-0.79578 0.068,-1.75098 1.33582,-1.69497 2.58699,0.047 5.16017,0.46514 7.74216,0.69453 7.76092,0.79759 15.58206,0.68223 16.06156,-6.24459 0.6962,-10.05218 -7.68824,-17.03178 -10.67583,-25.8532 -0.078,-0.25869 0.09,-0.60389 0.42063,-0.9126 z m -79.57497,2.60088 h 5e-4 c 0.17021,-0.012 0.37653,0.01 0.60204,0.062 h 5.3e-4 c 0.32729,0.077 0.68752,0.29998 1.03661,0.51416 -1.92638,1.93371 -4.82386,5.134 -5.76347,6.51021 -3.16958,4.64309 -5.34498,9.50756 -6.75979,15.11845 -1.14181,4.52871 -1.24936,12.41242 -0.22738,16.66771 0.60248,2.5019 0.60793,2.92473 0.0563,3.98995 -0.33909,0.65529 -0.86183,1.80237 -0.23255,5.18366 0.62942,3.3813 2.04039,4.97404 3.88451,6.80733 2.81088,2.79451 6.02967,4.87233 11.98377,7.73753 4.56671,2.19758 7.97121,3.55015 17.68782,7.02694 12.76919,4.56872 20.04425,8.53053 24.24555,13.20334 2.23279,2.4838 2.92764,3.69615 3.32073,5.79035 0.45929,2.4496 -0.12232,2.50682 -2.14614,0.21032 -5.76038,-6.5346 -14.48263,-10.26139 -25.37984,-10.84379 -4.88609,-0.26141 -5.0731,-0.24069 -5.68442,0.63201 -0.58898,0.84101 -0.49696,1.23775 1.34774,5.81255 2.65131,6.57511 4.29551,9.56443 6.7169,12.21373 4.0355,4.4156 8.02097,6.16653 13.07208,5.74333 l 2.78225,-0.23307 -0.2372,1.1865 c -0.1642,0.82111 0.038,1.6356 0.66146,2.6417 0.52232,0.84379 0.76459,1.67103 0.57931,1.97094 -0.43612,0.70548 -2.30791,2.26036 -5.08963,4.22815 -1.27918,0.9049 -2.87946,2.16892 -3.55584,2.80863 -0.67641,0.63989 -1.94239,1.56583 -2.8138,2.05724 -2.00808,1.13239 -2.58021,2.6457 -1.68103,4.44831 0.3574,0.71609 0.64958,1.97839 0.64958,2.80551 0,1.6906 0.58809,2.69504 2.0066,3.42614 0.53099,0.27389 1.20325,1.20184 1.49654,2.06655 0.63129,1.86209 1.60308,3.01501 3.26647,3.8752 0.9776,0.50569 2.05433,0.57597 5.45652,0.35605 4.1379,-0.26768 4.26247,-0.2499 5.26116,0.74879 0.13592,0.13592 0.20918,0.29501 0.31679,0.43823 -2.511,0.1197 -6.15045,0.67128 -7.62177,0.67128 -2.60358,0.30419 -5.32734,-0.75089 -6.94685,-2.83189 -0.87249,-1.05789 -1.14837,-2.4688 -1.90376,-3.57651 -1.01319,-0.75059 -2.17268,-1.48211 -2.61948,-2.7373 -0.7089,-1.339 -0.21849,-2.92788 -0.8749,-4.27468 -0.71448,-1.4078 -0.92792,-3.1373 -0.13382,-4.562 0.86799,-1.85799 2.97286,-2.45679 4.41317,-3.74499 2.6652,-2.47619 5.8624,-4.2916 8.523,-6.7722 -0.51602,-1.04259 -1.13607,-2.09555 -1.20407,-3.28507 -2.53439,0.268 -5.14056,0.028 -7.54166,-0.84698 -4.8904,-1.89418 -8.61316,-5.99165 -11.12334,-10.49187 -2.01004,-3.92657 -3.73867,-8.01108 -5.14597,-12.1884 -0.53887,-1.82978 0.61696,-4.01637 2.55646,-4.34597 1.80269,-0.3004 3.64532,-0.0201 5.46013,0.0269 4.8247,-0.032 15.14075,2.6806 12.84467,0.8382 -7.83391,-4.04701 -16.33453,-6.51399 -24.50134,-9.75857 -5.25248,-2.18642 -10.52515,-4.45882 -15.26675,-7.63882 -3.0611,-2.1745 -6.13619,-4.66804 -7.80058,-8.12096 -0.91551,-2.2166 -1.43674,-4.65764 -1.25574,-7.06363 -0.043,-1.18452 0.73803,-2.16334 0.87077,-3.30213 -0.93569,-3.8467 -1.30233,-7.82646 -1.12088,-11.78275 0.15994,-6.31571 1.96789,-12.51619 4.86691,-18.10639 2.02186,-4.21431 5.0047,-7.8764 8.2832,-11.17761 0.078,-0.0763 0.21209,-0.12028 0.3819,-0.13229 z m 36.14767,5.95675 c 0.62949,0.22238 1.13683,0.59716 1.16684,1.21645 -1.24529,4.3756 -1.70114,6.6948 -2.82205,11.1063 -1.21391,4.96779 -3.097,13.92214 1.2237,18.20045 3.19,3.15878 4.7416,-3.36068 8.88989,-14.02188 1.77851,-4.30221 3.77402,-8.54747 6.34381,-12.44007 0.4409,-1.15412 2.02957,-1.72136 3.0272,-0.92036 0.95071,0.82839 0.49771,2.23319 0.3483,3.31089 -1.8792,7.92671 -3.56835,15.92646 -4.58525,23.96496 -0.86839,7.12149 -1.4097,14.26228 2.3368,10.53218 1.9037,-1.89521 3.76031,-3.49353 5.52421,-4.99763 l 0.63613,2.01123 -0.27593,0.25892 c -1.7068,1.60078 -4.70937,6.44565 -6.34587,10.24173 -1.61801,3.75272 -3.22977,10.52042 -3.22977,13.56302 0,2.8316 -0.43791,1.58353 -1.04852,-2.97916 -1.54109,-11.51821 -0.07,-29.6092 3.77031,-46.35222 1.95551,-8.524 1.97745,-8.6419 1.41439,-7.87651 -1.56472,2.12651 -5.09889,9.05669 -6.39601,12.54239 -3.5885,9.6421 -4.94581,19.70619 -4.59611,34.04287 0.13102,5.3734 0.15023,9.76943 0.0403,9.76943 -0.97448,0 -6.44326,-3.34876 -7.98245,-4.88807 -2.3608,-2.36059 -3.42082,-4.9833 -4.13411,-10.23142 -0.6477,-4.7662 -0.31867,-16.90057 0.59994,-22.10718 0.88082,-4.9934 3.60021,-15.88375 5.31805,-21.29636 0.32758,-1.03219 0.57216,-1.89656 0.77618,-2.64996 z m 26.48053,27.74611 c 3.98949,3.2017 11.72157,5.64367 25.04448,7.90596 1.6941,0.2876 3.20677,0.57838 4.76509,0.86818 1.17367,2.0057 3.22657,6.26996 4.78007,10.84016 1.96868,5.7912 2.96931,12.11519 2.9383,12.73358 -0.07,1.3811 0.31618,3.81693 0.72348,5.30923 -0.22529,0.086 -0.4051,0.18627 -0.63561,0.27028 -2.72132,0.99041 -3.78576,1.44399 -3.76878,0.51419 0.051,-16.03682 -4.84375,-23.58724 -7.53906,-28.25565 -0.6653,-0.79931 -0.67845,-0.78827 -0.46974,0.41082 0.1179,0.67892 0.60814,4.75223 1.08984,9.05063 1.52985,13.65538 0.14314,20.56664 -5.27925,26.32604 l -1.93633,2.05724 -0.30022,-2.26293 c -0.16489,-1.24439 -0.56603,-3.09502 -0.89194,-4.11292 l 2.43136,0.73226 c 1.3181,-0.3221 4.19304,-6.13664 4.25506,-6.77376 1.11207,-11.46929 -1.10117,-23.66216 -0.82426,-23.94685 -10.93412,-3.44379 -18.70302,-4.28636 -23.75823,-9.45936 -0.69972,-0.51522 -0.84807,-1.4148 -0.62426,-2.2071 z m 31.07616,9.00462 c 7.57579,1.44528 13.60119,2.92983 18.2795,4.54803 0.058,0.6949 0.4404,3.29676 0.6418,4.86637 0.51599,4.0205 0.22641,9.36339 -0.61391,11.32232 -0.90778,2.1168 -3.43164,4.24307 -7.05435,6.11486 1.49281,-2.22221 2.95934,-5.06304 3.63493,-6.59805 1.89021,-4.29429 1.15991,-10.75205 0.39428,-13.21366 -0.22458,-0.7222 -5.47534,-2.15633 -10.15854,-4.25452 -1.93861,-0.8686 -3.77632,-1.93797 -5.12371,-2.78535 z m -92.49463,1.38647 c 0.10012,0 0.51385,1.57556 0.91779,3.50057 0.40399,1.925 0.65786,3.57333 0.56583,3.66334 -0.30818,0.3003 -4.54313,-2.75307 -5.19244,-3.74396 -0.35198,-0.53721 -0.56809,-1.03058 -0.4811,-1.09659 0.43792,-0.33068 4.03162,-2.32336 4.18992,-2.32336 z m 57.30814,0.70487 1.54615,4.88651 c 0.18417,1.66111 -0.67728,4.43733 -1.09398,6.69571 -0.99229,5.37861 -2.20001,13.08642 -2.08049,16.27603 0.083,2.22139 3.94517,-2.98961 4.09897,-1.18703 0.49639,5.81491 1.0627,10.71086 2.76831,12.74188 1.56059,1.85828 4.19434,1.10064 6.12624,0.95703 2.82276,-0.2099 5.04595,-1.37642 7.27345,-5.25651 0.7311,-1.4782 1.63391,-5.1713 3.33521,-4.70101 -0.083,0.89311 -0.36179,2.52677 -0.678,3.91708 -0.5063,2.2266 -1.01211,3.29383 -2.16061,4.56922 -1.99541,2.2152 -3.96624,3.01506 -8.95345,3.63337 -4.98549,0.61809 -6.53841,0.30056 -7.81762,-1.59782 -1.13109,-1.67862 -1.91243,-6.11185 -1.60403,-9.09765 l 0.23773,-2.30735 -1.22267,2.88044 c -0.6727,1.58369 -1.23341,3.21384 -1.24542,3.62305 -0.041,1.41988 -0.71697,0.30186 -1.4981,-2.47635 -0.64259,-2.2847 -0.78565,-4.1399 -0.77565,-10.1973 0.011,-6.4883 0.1505,-8.08236 1.15343,-12.88656 0.6296,-3.01519 1.57233,-6.9574 2.09444,-8.76019 z m 59.47854,4.94078 c 3.07608,1.5076 5.29704,2.94965 6.75204,4.39767 l -0.03,0.16483 -0.55964,1.68 c -0.34111,1.0238 -1.22939,2.25518 -2.27481,3.1528 l -1.71567,1.47225 -0.34001,-1.77766 c -0.1869,-0.97761 -0.61119,-3.0853 -0.93689,-4.6855 z m -92.62173,32.26313 c 0.48906,-0.011 1.90754,0.26149 4.24934,0.80357 6.94521,1.60811 11.09491,4.48024 14.32161,9.91155 1.61951,2.72601 1.65047,2.84311 0.93998,3.62821 -0.4041,0.4463 -0.93763,0.80055 -1.18544,0.78753 -0.91339,-0.048 -7.91286,-2.35561 -9.70536,-3.20032 -1.75499,-0.8268 -1.78724,-0.87183 -0.61752,-0.8578 0.67866,0.011 2.48299,0.34136 4.01008,0.73948 1.5272,0.39838 2.77657,0.69699 2.77657,0.66299 0,-0.1184 -3.92856,-2.59593 -6.47867,-4.08553 -1.41399,-0.82619 -2.56987,-1.57552 -2.56987,-1.66553 0,-0.26059 4.20034,1.05473 5.48804,1.71823 2.64311,1.36242 1.29535,0.036 -2.59726,-2.5554 -2.28589,-1.52209 -4.07712,-2.84752 -3.98012,-2.94452 0.097,-0.097 0.87346,0.11364 1.72444,0.46924 1.69162,0.7067 2.43496,0.57668 1.02267,-0.17934 -0.48411,-0.25908 -2.58236,-1.09804 -4.66275,-1.86343 -2.457,-0.90411 -3.36465,-1.35893 -2.73574,-1.36893 z m 80.28241,2.83239 v 5.3e-4 c 0.0517,0.007 0.13095,0.0622 0.15196,0.0832 0.10128,0.1012 -0.85884,0.8768 -2.13374,1.72341 -2.52119,1.67421 -5.92161,4.65821 -5.92161,5.19711 3e-5,0.1851 1.13718,-0.30549 2.52648,-1.0909 1.3893,-0.78529 2.58244,-1.37235 2.64946,-1.30535 0.12546,0.12552 -5.1276,4.79102 -6.61511,5.87563 -0.78449,0.57179 3.92961,-1.0196 5.72471,-1.93271 l 0.85627,-0.43513 -0.82267,0.82838 c -0.45231,0.45562 -2.21057,1.69598 -3.90726,2.75797 l -3.0856,1.93167 2.05155,-0.28475 c 1.12821,-0.15629 2.55429,-0.54403 3.16828,-0.86143 1.59369,-0.8242 1.94464,-0.69654 0.74467,0.26975 -1.3934,1.1222 -4.7806,2.87443 -6.7877,3.51194 l -1.64436,0.52245 2.67322,0.0542 c 3.434,0.068 2.47856,0.50832 -4.10414,1.88981 -2.59659,0.54502 -4.768,0.99065 -4.82399,0.99065 -0.056,0 0.72414,-0.76239 1.7358,-1.695 1.52252,-1.40308 1.98504,-2.20104 2.68253,-4.62814 0.4635,-1.6128 1.14052,-3.6254 1.50432,-4.4731 0.94557,-2.20382 4.60385,-5.48574 7.62174,-6.83834 2.72169,-1.21981 5.70921,-1.35202 5.70921,-2.05052 0,-0.025 0.0109,-0.0403 0.0258,-0.0403 v -5.1e-4 c 0.006,-10e-4 0.0131,-0.002 0.0201,-5.3e-4 z m -37.65351,15.23164 c 0.0832,10e-4 0.16663,3e-5 0.25064,10e-4 2.79911,0.034 5.49688,0.83215 5.32836,1.57666 -0.059,0.26029 0.17257,1.01422 0.51417,1.67481 0.99118,1.91672 0.72448,2.31531 -0.67644,1.01081 -1.25618,-1.16951 -1.29378,-1.09749 -0.48008,0.92501 0.19399,0.48189 -0.18328,0.3411 -1.23608,-0.46199 -1.6527,-1.26031 -4.18402,-1.75006 -6.65181,-1.28727 -1.90392,0.35721 -4.42352,2.62678 -5.58983,5.03586 -0.49839,1.02931 -1.01928,2.91587 -1.15808,4.19098 -0.16092,1.47878 -0.37727,2.12288 -0.59738,1.77869 -0.18999,-0.2966 -0.7856,-0.70697 -1.32291,-0.91157 -1.62399,-0.6173 -1.6564,-2.09201 -0.1142,-5.1666 2.90185,-5.7858 6.49224,-8.35041 11.73364,-8.36642 z m 2.91457,8.24497 0.91363,0.97256 c 0.81021,0.86238 0.86194,1.13263 0.45114,2.37763 -0.49749,1.50741 -2.50116,4.47206 -2.50116,3.70107 0,-0.25562 0.1967,-0.98584 0.4372,-1.62264 0.4159,-1.1026 0.35708,-1.08021 -1.23404,0.46818 -1.16538,1.13361 -1.67121,1.42132 -1.67121,0.9498 0,-1.10498 -0.80074,-1.26418 -1.1932,-0.23717 -0.35763,0.93649 -0.36856,0.93162 -0.70747,-0.28215 l -0.3452,-1.23405 -0.21497,1.64537 c -0.16222,1.2379 -0.29125,1.45883 -0.52245,0.89194 -0.16912,-0.4145 -0.30797,-1.11882 -0.30797,-1.56631 0,-0.44731 -0.18455,-0.69903 -0.41085,-0.55915 -0.22611,0.13962 -0.40804,0.75124 -0.41804,1.36015 -0.011,0.86579 -0.0925,0.97308 -0.40463,0.4904 -0.21942,-0.3394 -0.39515,-1.03335 -0.40515,-1.54254 -0.011,-1.3452 -0.71769,-1.13401 -1.03455,0.3085 -0.3488,1.58811 -0.8318,1.56689 -1.39941,-0.062 -0.6773,-1.9427 -0.5575,-2.80678 0.59791,-4.3217 1.226,-1.60708 1.84274,-1.69506 3.46593,-0.49504 1.4437,1.06738 4.02897,0.88162 5.78258,-0.41497 z m -34.80668,9.12191 c 0.0246,0 0.0487,5.6e-4 0.0734,10e-4 0.50231,0.013 0.9825,0.1746 1.67431,0.50279 0.83172,0.3947 1.40001,0.82851 1.26399,0.9648 -0.55539,0.55581 -3.43905,1.16054 -3.95994,0.83045 -0.3039,-0.1927 -1.10728,-0.35277 -1.78594,-0.36277 -0.67873,-0.011 -1.50219,-0.18243 -1.82988,-0.38963 -0.4591,-0.2903 -0.31739,-0.43487 0.61703,-0.63098 0.66689,-0.13991 1.8809,-0.45063 2.69751,-0.69143 0.4621,-0.13629 0.82995,-0.21323 1.17562,-0.22323 0.0245,-5e-4 0.0493,-10e-4 0.0739,-10e-4 z m 6.03221,0.94311 h 5e-4 5.3e-4 c 0.2422,0 0.93155,0.933 2.29495,2.98378 1.7989,2.706 3.14301,3.76878 4.76922,3.76878 0.90921,0 1.48979,0.73806 0.97718,1.24386 -0.5724,0.56449 -4.31279,0.79227 -6.31949,0.38497 -2.26219,-0.45918 -5.3549,-1.59787 -5.3449,-1.97197 0,-0.15089 0.54856,-0.58552 1.21594,-0.9653 1.34901,-0.7675 2.62724,-3.336 2.36212,-4.74649 -0.0869,-0.46019 -0.0825,-0.69702 0.0439,-0.69763 z m -3.13005,9.45473 c 0.1972,-0.002 0.31679,0.0683 0.31679,0.26045 v 10e-4 c -3e-5,0.8408 1.54398,0.18111 2.75278,0.57359 2.67708,0.86911 3.19773,1.74665 1.50122,2.52855 -1.3993,0.64468 -5.2333,0.61298 -7.08949,-0.0589 -0.77351,-0.27979 -1.6624,-0.8936 -1.97612,-1.3658 -0.55189,-0.83119 -0.4785,-0.87612 2.29701,-1.372 0.772,-0.1379 1.67108,-0.53935 2.15749,-0.56536 0.0138,8.2e-4 0.0272,2.1e-4 0.0403,0 z m 22.74642,6.32105 4.93715,0.13539 c 4.06458,0.11149 5.31389,0.30369 7.07554,1.08418 2.44422,1.0827 5.74098,4.34038 7.11068,7.0249 0.90982,1.78319 2.13,4.94543 1.90791,4.94543 -0.065,0 -0.71808,-0.92543 -1.45108,-2.05674 -0.7329,-1.1312 -1.41611,-2.05671 -1.5167,-2.05671 -0.10009,0 0.28088,0.91506 0.84749,2.03346 1.90071,3.751 3.10348,8.79062 3.03548,12.7186 -0.034,1.954 -0.1348,2.99804 -0.22482,2.31926 -0.28868,-2.17681 -1.31339,-5.36496 -2.62617,-8.17005 -1.25598,-2.68412 -1.95477,-3.68495 -1.21647,-1.74305 1.29349,3.40149 1.70185,11.2135 0.79787,15.28951 l -0.54051,2.43964 -0.30748,-3.7026 c -0.16891,-2.03611 -0.65405,-4.81288 -1.07746,-6.17019 l -0.76946,-2.46857 -0.26615,6.1712 c -0.15298,3.55449 -0.5208,6.95439 -0.86711,8.02068 l -0.60153,1.85158 -0.0279,-1.56477 c -0.014,-0.86029 -0.34121,-2.89679 -0.72451,-4.5253 l -0.69609,-2.96002 -0.32245,2.67374 c -0.17701,1.47069 -0.5375,4.01577 -0.801,5.65597 -0.48562,3.02242 -1.18597,4.03559 -1.18597,1.7162 0,-1.27871 -1.82528,-6.40498 -2.55177,-7.16598 -0.24979,-0.2617 -0.29665,1.00981 -0.12764,3.49591 l 0.26562,3.90827 -1.30535,-2.26237 c -0.7176,-1.24442 -1.85505,-3.3741 -2.52854,-4.73152 l -1.22473,-2.46753 0.17777,2.88303 c 0.098,1.58528 0.49062,3.52931 0.87384,4.31911 l 0.69662,1.43608 -1.23714,-1.40713 c -1.25801,-1.43021 -3.94994,-6.51015 -4.54133,-8.56798 -0.29448,-1.0246 -0.35616,-1.05558 -0.65577,-0.33226 -0.19119,0.46249 -0.069,2.081 0.2899,3.84421 0.5991,2.94159 0.59513,3.01339 -0.11369,2.081 -1.13289,-1.4909 -3.228,-6.7478 -3.51039,-8.80668 -0.1394,-1.01661 -0.36634,-1.91744 -0.50434,-2.00144 -0.5107,-0.31189 -0.43927,4.16068 0.10284,6.43887 0.62008,2.60501 0.26016,2.73341 -0.95964,0.34211 -2.8003,-5.48921 -4.11637,-11.0445 -4.34187,-18.32859 -0.13941,-4.49961 -0.082,-5.44412 0.26099,-4.31911 0.24188,0.79179 0.88119,2.93272 1.4211,4.75731 0.91009,3.07721 3.22731,7.1405 3.76513,6.60271 0.12858,-0.1287 0.048,-0.4698 -0.17725,-0.75809 -0.33269,-0.4237 -1.76268,-4.23682 -1.76268,-4.70101 0,-0.068 0.72409,0.66141 1.6092,1.62161 0.88511,0.9602 2.41191,2.18818 3.39359,2.72748 l 1.78438,0.98031 -1.08675,-1.19269 c -0.84637,-0.92893 -2.99646,-4.68966 -2.68097,-4.68966 0.036,0 1.03981,0.36999 2.22983,0.82219 1.19028,0.45239 2.73129,0.82217 3.42514,0.82217 h 1.26193 l -1.73789,-1.33583 c -0.95565,-0.7352 -2.03457,-1.79059 -2.39726,-2.34508 -0.63021,-0.9634 -0.6232,-0.99362 0.1633,-0.68472 1.48519,0.58309 3.42469,0.76902 4.97798,0.478 l 1.52757,-0.28628 -2.12132,-1.21182 c -2.3757,-1.3572 -2.80887,-2.23456 -0.89607,-1.81435 0.67379,0.14801 2.29296,0.13404 3.59873,-0.03 l 2.37453,-0.29919 -1.4402,-0.45167 c -1.6328,-0.51199 -4.93615,-2.20803 -4.93615,-2.53473 0,-0.1188 0.60209,-0.1128 1.33739,0.015 0.7353,0.12679 2.53992,0.066 4.01061,-0.13436 1.47042,-0.2009 2.37479,-0.38907 2.00919,-0.41807 -0.36531,-0.029 -2.58725,-0.70561 -4.93665,-1.50481 z m -14.86525,8.54625 c -0.3611,1.9567 -0.76432,2.01369 -4.67412,2.37297 -1.47072,0.13531 -5.91368,0.69779 -9.87227,1.25058 -15.1769,2.11849 -20.36509,2.23922 -41.84809,0.97772 -29.62219,-1.7393 -43.12441,-0.011 -56.1821,7.20783 -4.6555,2.57241 -7.47567,4.6496 -11.79152,8.6863 -1.70241,1.59218 -4.63569,4.23611 -6.51849,5.8756 -6.5351,5.6901 -9.98083,10.29894 -12.41679,16.60674 -0.20743,0.5369 -0.30022,1.1265 -0.48062,1.6758 0.11711,-1.1068 -0.10432,-2.2227 -0.78081,-3.1026 2.13061,-5.2783 5.55025,-9.96948 9.65573,-13.88647 3.08322,-2.85981 6.28402,-5.59195 9.35601,-8.46564 4.71332,-4.52922 10.1885,-8.24918 16.13959,-10.95179 9.44589,-4.4337 19.99689,-5.75847 30.33201,-5.96657 14.28586,-0.4151 28.51883,1.30562 42.79583,1.35962 10.71232,0.20129 21.24424,-1.94985 31.89004,-3.04065 0.61722,-0.12469 2.71132,-0.37634 4.3956,-0.59944 z m -5.49682,6.69986 c 0.8545,-2e-5 0.85265,0.015 -0.11835,1.33633 -2.45359,3.33862 -3.38365,7.41966 -3.02927,13.27828 0.41672,6.8862 2.53365,15.56677 5.46325,22.40737 l 0.9684,2.2629 -0.99581,-1.204 c -1.53551,-1.8567 -4.9575,-8.7111 -6.17688,-12.37134 -0.60291,-1.80991 -1.313,-4.63968 -1.57819,-6.28748 l -0.48162,-2.99569 -0.50488,3.40754 c -0.94339,6.37291 -0.69646,13.86597 0.92605,28.08147 0.128,1.1271 0.14216,1.9572 0.03,1.8449 -0.37631,-0.3763 -2.73716,-10.0348 -3.06287,-12.5326 l -0.32194,-2.4686 -0.54623,3.2913 c -0.30039,1.81 -0.66154,5.8822 -0.80304,9.0496 l -0.25736,5.7598 -0.55811,-3.0861 c -0.30718,-1.6967 -0.65723,-5.8396 -0.77772,-9.2046 l -0.2191,-6.1185 -0.95086,2.2107 c -0.523,1.2163 -1.37589,3.9704 -1.896,6.1196 l -0.94568,3.9082 -0.11988,-3.6447 c -0.1061,-3.2242 0.77777,-11.8059 1.41385,-13.7413 0.58841,-1.78964 -3.03548,4.579 -4.27519,7.5133 l -1.39009,3.2907 0.25217,-2.0567 c 0.4926,-4.0263 2.42872,-10.99372 3.88091,-13.97073 1.7041,-3.49401 1.55551,-3.542 -0.91829,-0.30541 -2.2067,2.88751 -3.80399,5.60654 -5.08497,8.65784 -0.93472,2.2258 -0.96668,2.2552 -0.72708,0.6816 0.87741,-5.76092 4.41698,-14.39078 7.31377,-17.82986 0.82799,-0.9829 1.50532,-1.88386 1.50532,-2.00248 0,-0.337 -2.89713,1.88611 -4.88444,3.74862 -0.98981,0.92729 -2.63308,2.79781 -3.65197,4.15531 -2.09521,2.79059 -2.01324,1.87968 0.20257,-2.26293 2.0606,-3.8526 4.72956,-7.46953 6.96494,-9.43713 1.67251,-1.47222 1.77718,-1.64799 0.74827,-1.25677 -1.74368,0.66299 -5.89806,3.53988 -7.91475,5.48079 -2.1451,2.0646 -2.26967,1.44026 -0.24548,-1.23404 4.21971,-5.5747 11.51512,-10.11325 18.99161,-11.81373 1.2537,-0.1706 2.50666,-0.66127 3.77497,-0.66146 z m -138.85095,39.91848 c -1.76009,6.6663 -1.75623,14.1389 0.24958,22.4017 0.71393,2.9411 1.32453,6.5919 1.35652,8.1127 l 0.0594,2.7663 2.59725,-2.5601 c 3.06382,-3.0194 5.70569,-7.0991 7.43469,-11.4753 1.2524,-3.1702 2.74497,-8.5285 3.01635,-10.8293 0.11962,-1.0144 0.2427,-0.7943 0.69091,1.2341 0.1207,0.5462 0.57978,2.0786 0.86868,3.146 -1.2622,3.6651 -3.7283,9.2307 -5.2963,11.9641 -2.68049,4.9648 -7.03143,8.6806 -10.98074,12.6008 -0.028,-1.3878 -0.0583,-2.7757 -0.0873,-4.1636 0.10318,-3.6655 -0.64551,-7.2732 -1.45831,-10.8267 -1.37178,-5.7012 -1.82456,-11.6869 -1.14308,-17.5266 0.7534,-1.3655 1.49104,-2.7431 2.24174,-4.1005 0.16817,-0.2324 0.3189,-0.4821 0.45061,-0.7436 z m 186.66507,1.2485 c 0.20863,0.9675 1.42701,1.8017 1.72652,3.0189 -0.47858,3.3156 -0.29808,6.6844 -0.73999,10.0196 -0.87291,8.2882 -3.91927,16.2538 -9.53275,22.412 -1.18722,1.5255 -2.80686,2.619 -4.06125,4.0763 -0.91662,1.4184 -1.79652,3.0648 -2.29963,4.6343 -2.10338,7.6513 -4.04995,15.4386 -5.66785,23.2089 l -2.82773,-0.038 c 0.6287,-3.1303 1.44761,-6.7755 2.7714,-12.2432 1.1225,-4.6382 2.59503,-10.2246 3.27163,-12.4142 1.08489,-3.5085 1.43703,-4.1565 2.97553,-5.4648 2.89671,-2.4629 6.37445,-6.8198 8.14525,-10.204 3.24958,-6.2105 4.47521,-11.1296 4.79091,-19.2226 0.19389,-4.9667 0.29097,-5.6037 1.44796,-7.783 z m -169.68835,14.0968 h 5.3e-4 c -1.8e-4,0 -3.1e-4,0.01 -5.3e-4,0.01 0.23543,0.8208 0.3429,1.316 0.58241,2.11 2.8304,9.3848 3.33031,12.1406 3.35433,18.511 0.025,6.5066 -0.78647,10.3815 -3.07218,14.6699 -1.83388,3.4408 -5.79509,7.0608 -9.68518,8.8501 -3.9574,1.8201 -5.59745,4.968 -6.34794,11.0769 h -2.83601 c 0.048,-0.4372 0.043,-0.63 0.1447,-1.3224 0.40809,-3.1749 1.33657,-6.977 3.60545,-9.3478 1.23221,-1.4546 3.56031,-2.6721 5.1785,-3.576 3.70671,-2.0778 6.9732,-4.7245 8.64651,-8.6202 2.09888,-4.5893 2.18458,-8.7736 2.03088,-13.6745 -0.1039,-4.0412 -1.0288,-7.9723 -2.13942,-11.8644 -0.38041,-1.3295 0.39127,-4.436 0.53795,-6.8126 z m 50.57937,3.5176 c 0.19349,0.041 -0.10647,1.624 -0.87128,4.7734 -2.82379,11.6374 -8.0465,20.9967 -16.03261,28.7274 -5.4229,5.2497 -10.18254,8.5884 -18.60454,13.0504 -4.0793,2.1613 -7.1142,3.8367 -9.39271,5.1599 h -2.92902 c 2.3069,-2.1249 5.25407,-4.4264 7.88427,-5.9692 11.07429,-6.4958 17.62151,-12.3477 24.43882,-21.841 1.54321,-2.1494 3.56137,-5.2966 4.48447,-6.9929 0.92321,-1.6968 1.67413,-2.9694 1.68413,-2.8282 0.03,1.3316 -3.47779,8.6059 -1.22111,6.1624 2.2565,-2.4437 5.45383,-8.2916 8.68424,-16.2915 1.07619,-2.6651 1.6936,-3.9887 1.87534,-3.9507 z m 4.0881,3.1585 h 5.3e-4 c 0.16449,0 0.59957,0.2943 1.45468,0.834 5.57128,3.5173 18.45842,7.4399 27.07071,8.2404 1.5906,0.1479 2.89182,0.4268 2.89182,0.6206 0,0.1938 -1.43505,0.3616 -3.18844,0.3726 l -3.18741,0.019 2.35955,1.218 c 1.29791,0.67 3.40844,1.4913 4.69016,1.8252 1.28167,0.3339 2.42629,0.7026 2.5435,0.8196 0.4014,0.4018 -5.07021,-0.2881 -9.98387,-1.2588 -2.7033,-0.5342 -5.00018,-0.8863 -5.1041,-0.7824 -0.30517,0.3051 5.0215,2.5913 8.05069,3.4551 3.41198,0.9731 2.29399,1.0693 -2.60501,0.2243 -4.6277,-0.7982 -10.83509,-2.4328 -13.18266,-3.4711 -3.44503,-1.5239 -1.04933,0.2193 4.38836,3.1936 0.5657,0.3095 2.32304,1.0054 3.90673,1.5472 1.58371,0.5416 2.51037,0.9847 2.05777,0.9947 -1.51352,0.019 -13.13566,-2.9716 -15.38666,-3.9599 -1.22261,-0.5369 -2.30719,-0.8916 -2.41019,-0.7886 -0.2561,0.2563 4.04463,2.9869 7.30652,4.639 6.3423,3.2128 16.81115,5.6869 27.64483,6.5329 1.96971,0.1538 3.55052,0.3939 3.51451,0.5333 -0.18619,0.7079 0.7515,6.217 2.63189,15.4735 0.53441,2.6306 0.85336,5.1334 1.10741,7.4827 l -1.72288,0.1256 c 0,0 -0.89789,-6.3129 -1.53789,-9.463 -0.7651,-4.0499 -1.70752,-8.0901 -2.11201,-12.191 -3.13082,-0.2913 -6.29926,-0.603 -9.42425,-1.0712 -6.35812,-0.952 -12.71995,-2.3123 -16.67804,-3.6773 -3.95779,-1.3649 -6.07615,-2.2348 -8.56485,-3.2138 -5.45441,-2.1454 -8.99615,-3.8542 -10.81225,-5.2188 l -1.35083,-1.0144 0.83664,-1.3534 c 0.46019,-0.7446 0.83664,-1.9209 0.83664,-2.6138 0,-1.1849 0.068,-1.2399 1.15496,-0.9281 0.6356,0.1822 1.79313,0.6538 2.57193,1.048 l 1.41491,0.7157 -1.31569,-1.3844 c -1.47881,-1.5571 -3.00808,-4.7082 -2.10116,-4.331 0.29562,0.1227 1.78755,0.6224 3.31504,1.11 1.52752,0.488 2.88026,1.0548 3.00654,1.2589 0.12621,0.2041 0.39111,0.371 0.58912,0.371 0.1981,0 -0.61761,-0.978 -1.81332,-2.1735 -1.1952,-1.1953 -2.39855,-2.5936 -2.67324,-3.1068 -0.24167,-0.4515 -0.3533,-0.6532 -0.19069,-0.6532 z m 39.1573,0.7736 c 0,0 0.0114,3e-4 0.0114,0.01 l 1.16686,1.1664 c 0.026,0 0.049,0.027 0.077,0.092 0.2055,0.4615 0.77102,3.7012 1.25727,7.1991 0.48612,3.498 1.05542,7.5537 1.26505,9.0134 0.20958,1.4596 0.32266,2.7123 0.25165,2.7833 -0.21908,0.2191 -3.00744,-6.8733 -3.44215,-9.4837 -0.53658,-3.2198 -0.81166,-10.7761 -0.58756,-10.7761 h 5e-4 z m 44.74043,11.806 c 0.5519,0 0.22469,0.1465 -0.67283,0.4981 -4.48598,1.7568 -8.1125,4.2711 -11.61169,8.0507 -1.8832,2.0342 -3.39423,5.765 -4.31395,9.0739 -0.91969,3.3087 -1.77554,10.7019 -2.20864,16.2905 l -2.77968,0.1255 c 0.7525,-9.7866 2.44091,-18.0632 4.93561,-23.29 2.75731,-5.7779 9.00528,-10.3249 14.64199,-10.6573 1.03069,-0.06 1.67831,-0.1009 2.00919,-0.091 z m -21.93768,7.0786 c 0.1774,-10e-5 -0.019,2.0977 -0.33073,4.5863 -0.31229,2.4888 -0.78261,10.356 -1.0454,17.4826 -0.07,1.91 -0.14991,3.3494 -0.22791,5.0328 l -1.60816,0.1173 c -0.27951,-6.6604 0.083,-14.7262 0.98546,-18.9306 0.85162,-3.9667 2.04944,-8.2882 2.22674,-8.2884 z m -51.89554,2.7957 c -0.084,1.4032 -2.1e-4,2.8661 -0.79219,3.9347 -4.57504,5.6643 -9.93386,10.8669 -16.40366,14.3164 -5.2882,2.8584 -11.01318,4.7899 -16.73643,6.5691 -1.3449,0.4071 -2.72389,0.8302 -4.084,1.2785 h -4.98832 c 1.524,-0.6811 3.219,-1.3079 5.1232,-1.8831 16.20409,-4.8954 21.97621,-7.7121 29.1088,-14.2012 2.90449,-2.6427 6.84191,-7.2557 8.7726,-10.0144 z m 63.99869,5.6369 0.50641,4.8607 c 0.27882,2.6736 0.79253,6.7116 1.14155,8.9741 0.13369,0.8659 0.27635,2.6019 0.41444,4.3051 l -2.79157,-0.037 c -0.5039,-5.3863 -1.27497,-12.6218 -1.76887,-18.0521 z"
       sodipodi:nodetypes="ccsccsccccccscccccccscscccccccccccsccccccccccscccscccccccccccccccccccscccccccccccccccccccccccccccsccccscccscccccccccccccccscccccccccccccccccccsccccccscsccccscscsccccsccccccccccccccccccccccccscscccccccccccccscccccscccsssccccccccccccccccccccccccccsccsccccscccccscccccssccccccccccccccccccccscscccscsccsccccccssscccccccccccccccscscssccscsccscccccccccsscccsccscccccsccscsccsccscccccscscsccscscscccsccssccccsccccscssssccscccccccccccccccsscccccccccscccsccccccccssscsscsccscccsscccsccscccccccccccccccccccscccccscccccscssccsccccccccccccccscccsscccsscsccccssccccccccccccccccccccccccccccscccccccccccccccccsccccsccscssccssccscscccccccscscccccsccccscccccccscscccccccsscsccccssccccccccccccccccccccccccccccc" /></g></svg>
