<?xml version="1.0" encoding="UTF-8" standalone="no"?>
<svg
   width="23in"
   height="11in"
   viewBox="0 0 584.2 279.40001"
   version="1.1"
   id="svg8"
   inkscape:version="1.4 (86a8ad7, 2024-10-11)"
   sodipodi:docname="Squarepit Canvas Size.svg"
   xmlns:inkscape="http://www.inkscape.org/namespaces/inkscape"
   xmlns:sodipodi="http://sodipodi.sourceforge.net/DTD/sodipodi-0.dtd"
   xmlns="http://www.w3.org/2000/svg"
   xmlns:svg="http://www.w3.org/2000/svg"
   xmlns:rdf="http://www.w3.org/1999/02/22-rdf-syntax-ns#"
   xmlns:cc="http://creativecommons.org/ns#"
   xmlns:dc="http://purl.org/dc/elements/1.1/">
  <title
     id="title833">Plasma CNC</title>
  <defs
     id="defs2" />
  <sodipodi:namedview
     id="base"
     pagecolor="#ffffff"
     bordercolor="#666666"
     borderopacity="1.0"
     inkscape:pageopacity="0.0"
     inkscape:pageshadow="2"
     inkscape:zoom="0.49497475"
     inkscape:cx="429.31483"
     inkscape:cy="320.21836"
     inkscape:document-units="in"
     inkscape:current-layer="layer2"
     inkscape:document-rotation="0"
     showgrid="false"
     units="in"
     inkscape:showpageshadow="false"
     inkscape:pagecheckerboard="0"
     inkscape:deskcolor="#d1d1d1"
     inkscape:window-width="2560"
     inkscape:window-height="1351"
     inkscape:window-x="-9"
     inkscape:window-y="-9"
     inkscape:window-maximized="1">
    <inkscape:grid
       type="xygrid"
       id="grid835"
       originx="-20.785727"
       originy="-2140.5652"
       spacingy="1"
       spacingx="1"
       units="in"
       visible="false" />
  </sodipodi:namedview>
  <metadata
     id="metadata5">
    <rdf:RDF>
      <cc:Work
         rdf:about="">
        <dc:format>image/svg+xml</dc:format>
        <dc:type
           rdf:resource="http://purl.org/dc/dcmitype/StillImage" />
        <dc:title>Plasma CNC</dc:title>
        <dc:creator>
          <cc:Agent>
            <dc:title>Kale Dobrohoczki</dc:title>
          </cc:Agent>
        </dc:creator>
        <dc:subject>
          <rdf:Bag>
            <rdf:li>CNC plasma 4x8</rdf:li>
          </rdf:Bag>
        </dc:subject>
        <dc:description>48x96</dc:description>
      </cc:Work>
    </rdf:RDF>
  </metadata>
  <g
     inkscape:label="Guide Layer"
     inkscape:groupmode="layer"
     id="layer1"
     transform="translate(-20.785727,-2140.5652)"
     style="display:none"
     sodipodi:insensitive="true">
    <path
       id="path3"
       style="fill:#666666;stroke:none;stroke-width:0.245529"
       d="M 556.51329,2419.9652 H 69.258188 c -16.15749,-93.1333 -32.314981,-186.2668 -48.472461,-279.4 H 604.98575 c -16.15749,93.1332 -32.31497,186.2667 -48.47246,279.4 z"
       sodipodi:nodetypes="ccccc"
       sodipodi:insensitive="true" />
  </g>
  <g
     inkscape:groupmode="layer"
     id="layer2"
     inkscape:label="Art Layer"
     transform="matrix(0.42660555,0,0,1,114.86661,0)">
    <path
       id="path4400"
       style="fill:#ff7f2a;stroke:none;stroke-width:1.59279;stroke-linecap:round;stroke-miterlimit:4;stroke-dasharray:none;stroke-opacity:1"
       d="m 527.40758,52.831675 v 0.01186 c 2.42728,0.01304 4.85317,0.0415 7.27795,0.08774 40.38683,0.815777 80.87762,5.584512 114.82869,15.121154 23.62602,6.534157 42.65902,15.736781 57.4067,25.897945 14.45666,9.568656 22.28494,20.668556 26.54442,31.829396 -4.31146,-2.02106 -7.67234,-3.46313 -10.59575,-4.64328 C 716.15363,107.03553 703.81795,96.374702 680.17248,84.306542 651.69745,69.772794 606.64701,60.087463 554.15323,57.212443 c -8.99257,-0.492549 -17.54072,-0.777952 -26.26731,-0.825381 -26.17893,-0.144065 -53.96548,1.845695 -100.19997,6.75731 -20.48776,2.176392 -25.49463,2.487882 -39.77425,2.511596 -16.16546,0.138255 -28.93279,1.215602 -35.23127,-0.553258 -19.44714,-5.461553 -28.63177,-7.968406 -51.39144,-7.393331 -16.7208,0.422473 -29.55234,2.222873 -48.59618,6.82288 -21.31909,5.158009 -26.69118,5.776956 -44.01289,5.135362 -11.82427,-0.438362 -17.85369,-0.331173 -30.37504,0.696018 -1.61152,-1.654556 -8.7188,-3.796444 5.08302,-4.02683 6.66397,-0.53393 13.47164,-0.609579 20.219,-0.367692 8.67016,0.211296 17.72167,0.781035 26.13084,-0.557052 11.98964,-1.819016 22.18767,-5.220259 33.8927,-7.311161 14.59508,-2.821069 30.65909,-4.240496 46.68447,-4.036671 12.99247,0.113829 25.48463,2.156947 36.34165,5.11639 4.52687,1.042012 8.28856,2.774233 13.46108,3.232752 8.87556,0.3039 17.66775,-0.250781 26.55304,-0.310067 9.00314,0.04506 17.78115,-0.301884 26.49412,-1.1543 35.22404,-3.527996 70.55592,-7.660237 106.94926,-8.102274 v 0 h 10e-4 c 2.42699,-0.02371 4.8551,-0.0249 7.28211,-0.01186 z m -3.45428,7.517714 v 0 h 5.32873 c 19.50829,0.04031 26.8649,0.311726 38.27503,1.405554 5.62667,0.539029 11.30673,1.214179 16.96426,1.960828 -1.8119,-0.1162 -3.19801,-0.242124 -5.19392,-0.355953 -11.79147,-0.672542 -70.66321,0.887275 -78.45563,1.676373 -1.56288,0.157108 -4.43709,0.318722 -6.39019,0.357851 -2.71301,0.05573 -1.60874,0.428994 4.67667,1.582109 8.18765,1.502428 22.96507,5.637277 21.84774,6.113937 -0.32075,0.136832 -3.81394,-0.294178 -7.7574,-0.957115 -20.97054,-3.526336 -56.43584,-4.067381 -78.26607,-1.194259 l -10.49375,1.381722 13.33461,1.882333 c 23.88757,3.374802 42.35856,9.867103 51.7347,18.183045 2.70746,2.401681 4.9235,4.567165 4.9235,4.811898 0,0.244733 -2.46202,-0.874707 -5.47215,-2.487763 -16.69856,-8.947459 -38.82007,-15.13918 -68.11002,-19.066053 -7.57924,-1.015927 -18.22197,-2.550132 -23.65021,-3.409188 l -9.86893,-1.562544 12.70979,-1.111496 c 6.99084,-0.611595 21.02003,-1.923715 31.17664,-2.915452 55.13089,-5.382584 67.04077,-6.262153 92.6866,-6.29891 z m -218.08104,1.102958 c 0.80466,0 1.60235,-2.37e-4 2.39589,0.01186 v -5.93e-4 c 9.52067,0.139678 18.33897,1.545115 28.62843,4.452149 5.36932,1.516894 9.61101,2.823678 9.42673,2.900749 -0.18066,0.07707 -4.16137,-0.441444 -8.84193,-1.155723 -12.12279,-1.850911 -37.46148,-1.803245 -49.64624,0.09367 -6.98917,1.087782 -26.33904,5.836835 -26.33904,6.464437 0,0.09842 2.79946,0.754949 6.21788,1.460691 8.37555,1.729849 20.89244,7.455344 26.31179,12.035433 4.80064,4.056829 8.64154,10.070574 8.59345,13.45273 -0.0556,2.03398 -0.14731,1.9875 -2.8039,-1.16664 -11.69835,-13.876856 -32.41097,-21.860676 -56.71851,-21.860676 -12.94716,0 -13.95776,0.387849 -7.32214,2.810635 6.0828,2.221212 12.39878,6.104926 10.9418,6.726601 -0.49418,0.210584 -3.28251,-0.595234 -6.19786,-1.791034 -5.25397,-2.155405 -18.29813,-5.928254 -20.4961,-5.928254 -0.62815,0 -1.14179,1.102603 -1.14179,2.449109 0,2.598035 -3.27446,5.774229 -9.02872,8.761537 -4.92071,2.55452 -6.13726,1.506105 -2.53928,-2.18742 6.84518,-7.026351 1.405,-12.051322 -13.02888,-12.051322 -7.02446,0 -13.0839,1.934268 -15.87974,5.058052 -2.26884,2.534481 -2.71022,2.695146 -5.93798,2.17165 -5.18809,-0.841626 -17.25556,-0.684873 -26.51274,0.34374 -4.49879,0.499782 -8.61096,0.908619 -9.13794,0.908619 -1.25213,0 3.90732,-1.53053 13.75986,-4.081373 6.22482,-1.610447 7.01613,-1.966045 3.67135,-1.649576 -8.37276,0.792536 -16.03788,1.943754 -22.88612,3.389741 l 1.96339,-1.322909 c 6.20035,-4.17718 12.29315,-5.14876 31.57714,-6.310056 8.20378,-0.493972 18.83178,-1.368679 23.6174,-1.944228 8.31857,-1.000275 9.0782,-0.997429 17.32922,0.06877 14.83744,1.916719 28.11813,0.616338 51.23608,-5.017738 15.98174,-3.89474 28.51699,-5.956948 41.34851,-6.80628 2.55737,-0.169795 5.02661,-0.264653 7.43999,-0.282439 z M 138.22184,63.96584 h 0.001 c 3.31865,-0.01186 6.62923,0.2375 9.71524,0.757321 3.95235,0.454961 12.42907,4.543567 18.04296,6.682491 -7.44193,0.634005 -8.6507,0.392355 -15.65738,-1.984069 -4.16109,-1.411127 -6.83491,-1.82281 -12.07497,-1.857196 -13.2843,-0.08774 -20.89746,4.686447 -19.60279,11.381032 l 1.35859,7.014612 c -3.13715,0.978695 -5.99747,2.039324 -8.53732,3.178921 -10.80087,4.845809 -19.453802,9.858804 -23.70356,13.733268 -3.997933,3.64444 -4.171654,4.1224 -3.28918,9.11204 l 0.930839,5.2665 -5.960778,4.22366 c -8.966736,6.35191 -19.119728,12.10266 -24.809224,14.05009 -5.057732,1.73092 -5.073028,1.74787 -3.003458,3.86142 1.144293,1.16794 3.925119,2.63788 6.18035,3.26714 2.254674,0.62914 4.95212,1.50587 5.99246,1.9479 1.039226,0.44251 2.468139,0.65001 3.174106,0.46445 0.705979,-0.18545 3.620768,0.66009 6.480812,1.88055 9.382806,4.003 16.54791,4.63297 32.829553,2.88842 8.19767,-0.87838 11.06131,-0.91478 21.60232,-0.27331 12.39433,0.75389 17.86814,1.06798 21.02891,1.20778 0.97642,0.0439 1.79413,0.55515 1.82136,1.13841 0.0834,1.76234 5.63614,-1.51393 5.63614,-3.32227 0,-1.28438 0.33076,-1.40485 2.12988,-0.76835 1.17181,0.41512 2.13155,1.45061 2.13155,2.30137 v 1.54665 l 3.55045,-1.42405 c 1.95338,-0.78293 3.55073,-2.07288 3.55073,-2.86767 0,-0.80925 0.62676,-1.28212 1.42195,-1.07165 0.78158,0.20631 1.42058,1.02209 1.42058,1.81249 0,1.34117 0.30406,1.3969 4.61607,0.83273 9.17324,-1.20137 24.51628,-1.32623 32.04131,-0.25979 6.99195,0.99067 7.0845,1.0362 6.53807,3.24935 0,0.0522 -0.10007,0.49066 -0.11667,0.55943 -8.29606,-0.62535 -23.02206,-1.06265 -28.77938,-0.72673 -5.04911,0.0285 -9.71634,1.36571 -14.81993,0.97063 -5.90129,2.42907 -11.97547,4.7953 -17.25724,7.48274 -0.11394,-1.42809 -0.22513,-2.85605 -0.3363,-4.28425 -3.45678,0.18378 -7.0631,-0.55303 -8.7455,-1.86645 -9.76441,-0.30852 -19.19893,-1.54286 -29.0523,-1.28485 -9.7383,0.68689 -19.677553,2.19501 -29.610973,1.17458 -7.962798,-0.53595 -13.742634,-3.11632 -19.643094,-5.22239 -1.585381,-0.20098 -3.380066,-0.3396 -4.818702,-0.76159 -4.621647,-1.4167 -9.474807,-2.79665 -13.095029,-4.70281 -2.980655,-1.73139 -5.842087,-3.79431 -5.407662,-6.02323 0.29962,-2.11201 4.387621,-3.52266 7.879691,-4.78237 10.875653,-4.60298 18.627487,-10.27002 26.481057,-15.85216 0.767399,-1.95715 -0.520307,-3.97039 -0.617584,-5.94853 -0.984754,-3.59487 1.502832,-7.19045 5.515504,-10.32467 7.834668,-5.800431 17.483752,-11.211118 29.208782,-15.684254 1.74883,-0.37125 0,-1.165091 0.4525,-1.770757 -1.03006,-4.227929 -1.89585,-8.796752 2.96454,-12.684971 4.2542,-3.929008 14.28379,-6.216265 24.24055,-6.237608 z m 490.0122,7.629764 c 5.20282,1.233862 10.13798,2.517643 14.59285,3.849209 23.81892,7.120615 48.85634,20.638794 59.97602,32.383247 12.96049,13.68857 12.95827,33.94639 0,50.0013 -1.8839,2.33302 -7.90833,8.61854 -13.38214,13.96555 -5.47466,5.34701 -11.27394,11.75441 -12.88796,14.24004 -1.05285,1.62112 -4.52965,5.6738 -9.76832,6.61764 -2.08291,0.37528 -4.34786,0.5529 -6.60143,0.65013 -0.0862,-2.51456 -1.46226,-6.84352 -3.1252,-8.69051 -1.87556,-2.08498 1.58845,-0.94301 3.78754,1.2488 l 2.27635,2.26959 1.14208,-2.41793 c 0.6879,-1.45891 0.4989,-3.72506 -0.47835,-5.71506 -1.88528,-3.83427 -1.11317,-4.57048 2.59683,-2.47234 3.64856,2.06351 5.06718,1.12868 2.98178,-1.96629 -0.9564,-1.41859 -2.06291,-3.05679 -2.45619,-3.64028 -1.10427,-1.63689 1.65459,-1.25284 3.51459,0.48958 3.086,2.88937 4.80286,1.03431 3.88398,-4.19603 l -0.86468,-4.92822 2.30526,2.27197 c 1.26825,1.24975 2.84837,2.27326 3.51182,2.27326 0.66373,0 1.41723,-1.97743 1.67322,-4.39393 0.39745,-3.72909 0.64704,-4.09714 1.65599,-2.43381 0.65344,1.0777 1.72686,1.81866 2.38586,1.6446 0.65873,-0.17407 3.05848,-2.82866 5.33151,-5.89944 12.57165,-16.98049 11.40958,-36.15539 -2.95316,-48.72191 -4.42429,-3.87138 -19.9088,-12.244707 -25.29617,-13.680024 -1.52508,-0.406346 -2.77638,-0.937668 -2.77638,-1.180148 0,-0.741196 4.68585,0.192205 10.29836,2.053907 2.9298,0.971106 5.32873,1.593847 5.32873,1.385397 0,-1.147067 -16.72413,-12.091756 -24.36285,-15.139535 -10.73833,-4.284369 -16.77999,-7.425702 -22.28994,-9.868763 z m -66.64943,6.550165 c 11.65722,0 35.60205,5.846794 45.23528,11.045829 7.91388,4.27109 10.8031,6.881575 14.08895,12.728492 2.63601,4.69059 3.7475,8.71114 1.80385,6.52562 -0.44554,-0.4999 -2.40004,-2.40761 -4.34481,-4.24074 -10.3092,-9.719004 -32.14026,-19.55528 -54.97331,-24.766883 -5.32623,-1.215839 -5.43546,-1.292318 -1.80996,-1.292318 z M 371.00635,80.70337 v 0 c 0.44721,0.01186 1.07925,0.05454 1.86861,0.1213 6.71205,0.565589 19.01689,4.47029 25.33203,8.038483 9.64937,5.45195 22.4067,19.949177 22.4067,25.462427 0,1.30548 1.95588,2.56045 7.87079,5.04892 16.33029,6.87031 26.79847,14.71813 37.50512,28.11797 3.85119,4.81984 7.74906,9.35926 8.66238,10.08753 1.54454,1.23126 1.32079,1.21299 -3.19718,-0.2573 -2.67159,-0.86925 -6.88632,-2.65756 -9.3678,-3.9749 -2.48175,-1.31721 -10.02181,-6.84635 -16.75164,-12.28597 -14.42638,-11.66051 -21.062,-15.97025 -35.28742,-22.91218 -5.79762,-2.82913 -10.30057,-5.24527 -10.00652,-5.37191 0.29323,-0.12509 3.44539,0.46516 7.00195,1.31319 3.55629,0.84779 6.46775,1.25983 6.46775,0.91537 0,-1.37531 -10.44456,-8.97259 -19.0772,-13.87673 -5.03022,-2.857476 -12.86601,-6.506416 -17.40954,-8.109512 -5.70562,-2.012882 -7.1626,-2.773879 -4.70976,-2.458951 7.25461,0.931503 12.21979,2.024739 17.618,3.87743 3.04988,1.046755 5.76344,1.811072 6.03109,1.696057 1.49451,-0.637445 -9.7294,-7.79387 -17.94262,-11.439254 -6.83991,-3.036041 -8.68185,-3.895096 -7.39969,-3.984025 0.10565,-0.01304 0.23624,-0.01186 0.38495,-0.01186 z M 167.03706,91.051284 c 0.82466,-0.0166 3.59519,0.247223 6.69592,0.645863 18.77452,2.410692 32.38179,10.512133 32.38179,19.282803 0,1.60594 -0.23624,2.92031 -0.52002,2.92031 -0.28323,0 -1.96506,-1.69036 -3.73001,-3.75541 -6.17895,-7.22923 -16.3803,-13.207167 -28.7852,-16.86749 -3.71555,-1.096438 -6.53917,-2.085923 -6.27234,-2.200938 0.0333,-0.01304 0.11122,-0.0249 0.23069,-0.0249 z m 67.31704,2.341328 v 0 c 0.0556,-0.01186 0.11395,0 0.18067,0 h 0.001 c 1.0623,0.07826 3.60492,0.917749 7.42136,2.499976 15.46004,6.409892 19.7262,16.737052 11.01656,26.667592 -1.66654,1.90012 -3.14103,3.45413 -3.28056,3.4546 -0.13898,4.8e-4 -0.0556,-3.20512 0.21124,-7.12429 0.64928,-9.91346 -2.84809,-15.80792 -13.90496,-23.439702 -1.97729,-1.364885 -2.46758,-2.04703 -1.64597,-2.06363 z M 108.55332,116.0731 c 0.2924,0 0.6376,0.0154 1.10872,0.0451 1.37082,0.0854 5.779,2.09576 5.02716,2.93134 -1.04979,1.16781 -3.67218,1.77502 -6.88438,0.53618 -2.68882,-1.03798 -1.92364,-2.97877 -0.87024,-3.2567 0.52671,-0.13944 0.86636,-0.21296 1.24519,-0.24142 0.11951,-0.0142 0.23903,-0.013 0.37355,-0.0142 z m 618.11547,14.35767 h 0.001 c 2.82168,1.12786 6.62617,2.46606 7.55922,3.16421 1.7894,3.20797 4.08382,6.41381 5.47826,9.68866 0.73711,2.13536 2.71162,4.56858 -0.19734,6.59545 -0.189,0.70503 1.06925,1.45073 1.45059,2.17094 1.53703,1.92976 2.42673,4.39559 -1.19654,6.01896 0.27877,0.6365 0.91359,1.29351 1.23823,1.94909 1.574,1.73116 1.36165,3.9717 -2.16017,5.25062 0.8355,1.44895 1.99286,2.85948 2.88533,4.30132 1.51979,1.89692 2.66603,4.26848 -0.6162,5.96264 1.09009,0.79775 24.91318,10.8822 38.52212,16.68239 5.08025,2.16513 5.65864,12.67359 7.78602,19.0574 0.61148,1.83419 0.0277,3.71747 1.42918,5.52451 -0.26404,-0.0806 -5.40544,-0.25042 -5.59861,-0.31801 -1.11121,-0.38856 -1.49255,-18.02427 -9.37335,-21.32093 -15.21935,-6.36638 -36.46395,-15.41676 -38.25196,-16.5758 -4.69391,-3.0428 -11.72837,-10.06571 -10.57547,-10.55743 0.30017,-0.12806 2.36391,0.99885 4.59329,2.50306 2.22856,1.50432 4.50046,2.73522 5.04996,2.73522 0.54865,0 0.0667,-1.29552 -1.0598,-2.8787 -5.16586,-7.22555 -7.33382,-11.05863 -6.25095,-11.05863 0.64678,0 1.55955,0.65191 2.02816,1.44848 0.46722,0.79633 1.76938,1.59728 2.89255,1.7806 1.74632,0.28611 1.72909,-0.11739 -0.13897,-2.81064 -1.19933,-1.73032 -2.75137,-3.6053 -3.44983,-4.16663 -0.69764,-0.56143 -1.23685,-1.65206 -1.23685,-2.42397 0.0556,-1.23836 0.30018,-1.17161 2.3097,0.56619 1.25158,1.08339 2.84754,1.96936 3.54628,1.96936 1.62208,0 0.20847,-2.38413 -4.07047,-6.87742 -3.84035,-4.03205 -3.48292,-6.22208 0.40774,-2.51527 4.0791,3.88489 4.05964,1.10959 -0.0583,-6.0147 -2.02038,-3.50831 -4.08605,-6.83971 -4.5919,-7.40246 -0.63038,-0.7004 -0.38719,-0.88134 0.77435,-0.57531 0.98753,0.26027 1.26325,-0.27841 0.87162,-1.8732 z m -520.8025,25.70988 c 1.64154,0.0119 4.45378,0.14336 6.99473,0.14336 -0.55089,2.5627 -1.03978,4.78782 -1.85722,8.80386 -2.78693,13.69331 -5.26619,20.85294 -10.80088,31.20868 -5.5294,10.3453 -8.84276,14.12135 -14.90749,16.9851 -4.07826,1.92574 -6.31931,2.4069 -14.36161,3.08881 -12.39655,1.05126 -21.15427,3.55551 -25.69586,7.34732 -0.94973,0.79325 -1.66322,1.32208 -2.3553,1.72736 -3.16244,-0.064 -6.36073,-0.013 -7.94307,-1.29599 1.34525,-0.97466 2.62379,-1.96545 4.02463,-2.92577 5.25341,-3.89711 14.6023,-6.47831 24.54101,-7.73588 4.38039,-0.70788 9.42005,-0.56488 13.36908,-1.74325 4.61163,-1.47504 6.82433,-3.89024 8.80608,-6.1169 3.275,-4.17363 5.49271,-8.48503 7.75462,-12.77509 6.44633,-12.41356 8.67099,-23.86443 11.2075,-36.53446 0.0278,-0.13624 0.48891,-0.17715 1.22378,-0.17715 z m 329.10496,4.54345 c 0.0417,0 0.0778,0 0.1168,0.0202 l 0.001,-5.9e-4 c 0.22514,0.096 1.45282,4.25958 2.72468,9.25171 3.28112,12.87623 6.53362,18.69634 18.2859,32.71169 8.34163,9.94773 6.59198,12.78185 -8.96701,14.53292 -9.52011,1.0713 -16.5482,3.39745 -20.34823,6.73454 l -1.14041,1.00064 c -1.23434,-0.032 -2.47341,-0.0261 -3.7072,-0.0628 -2.41922,0.0285 -5.45464,-0.31896 -5.88462,-1.50978 2.03483,-2.09197 4.48628,-2.25287 7.82799,-4.02386 4.76257,-2.63065 11.69114,-4.39547 19.11028,-5.31797 2.98679,-0.53132 6.61978,-0.6161 8.99842,-1.62681 1.22295,-0.95628 0.41385,-2.15469 0.0277,-3.17583 -4.84593,-7.35041 -15.70879,-20.44552 -20.60394,-28.96043 v -5.27883 c 0,-5.03624 2.31777,-14.19558 3.55906,-14.29518 z m -190.01959,7.92217 c 1.27437,0.0391 4.60497,1.73293 12.88657,6.33021 15.99036,8.87655 17.31475,9.41925 17.31475,7.09239 0,-1.49519 1.01145,-1.10746 8.51591,3.26287 4.68251,2.7274 14.19207,7.88873 21.13232,11.46985 16.13377,8.3253 21.49169,11.94804 21.49169,14.53481 0,2.87953 -4.97797,4.80905 -13.66953,5.2965 -15.10734,0.8472 -26.12863,3.82704 -30.39534,8.22168 l -0.34882,0.36034 c -3.84784,0 -7.68373,0.0593 -11.45904,0.44049 1.49032,-2.21967 3.5674,-2.50993 6.81545,-4.37365 6.63229,-4.43638 18.42291,-6.9526 30.25163,-7.90924 3.40286,-0.38536 7.81326,-0.12972 10.1188,-1.48464 0.64455,-1.34342 -1.45865,-2.62175 -3.02207,-3.72613 -12.1781,-7.41468 -26.37933,-14.14436 -38.96294,-21.43667 -2.31331,0.11739 -4.74921,-0.0794 -6.6976,-0.6372 -6.53862,-2.52286 -18.96296,-9.61644 -25.89237,-13.47419 0.43193,-1.21098 0.96475,-2.42895 1.22518,-3.50179 0.075,-0.30817 0.2696,-0.47868 0.69541,-0.46563 z m 157.29176,8.46617 c 0.90998,0.0344 7.23153,0.84554 14.69487,1.89099 l 5.19087,0.72661 c -2.53735,1.4595 -4.99186,3.05074 -8.88363,2.52701 3.83923,7.97232 3.84173,16.15024 5.08747,24.23319 -1.46864,-0.24663 -2.97955,-0.45188 -4.42958,-0.7157 -0.76045,0.69495 -1.957,1.31152 -3.49152,1.71621 1.62958,2.01063 1.42947,4.6402 -2.82668,6.0454 -0.69514,0.42117 -2.59182,0.30153 -2.6502,0.74013 -0.95556,3.56392 -1.35969,7.35645 -5.87016,10.503 -1.76522,1.05589 -3.67468,0.53868 -6.94163,0.75483 -1.65071,0 -3.30169,-0.0142 -4.9524,-0.0154 l 3.02069,-3.27141 c 6.26929,-6.79051 7.60536,-9.22716 6.62284,-12.08203 l -0.90221,-2.61451 3.53766,1.81735 c 3.06294,1.57405 3.53766,1.65586 3.53489,0.60662 -0.002,-0.66638 -1.27188,-2.98458 -2.82252,-5.15066 -1.55065,-2.16655 -2.82669,-4.02422 -2.83225,-4.12738 -0.0556,-0.60709 3.44568,0.89226 5.6317,2.42575 1.41334,0.99103 2.90673,1.56705 3.32226,1.28011 0.75962,-0.52374 -1.58595,-3.68369 -7.33243,-9.8811 -3.3217,-3.58183 -3.40509,-3.59949 5.90185,1.25556 l 3.98431,2.07774 -0.7396,-5.45396 c -0.40802,-2.99976 -1.98924,-7.63451 -3.51626,-10.29954 -1.52758,-2.66502 -2.62879,-4.90817 -2.44729,-4.98524 h 0.10837 z m -161.27469,0.60661 c 2.08652,2.3086 4.4332,4.81356 1.5929,5.2965 -1.71658,2.18517 -3.37618,4.455 -6.16201,6.46752 -1.75382,1.76151 -5.89879,3.35441 -10.62995,3.08573 -3.27944,5.2148 -9.1988,10.24274 -18.22835,14.09301 -2.76054,1.52899 -7.85663,2.54456 -12.2145,1.6593 -11.47768,7.21488 -26.58445,12.63979 -43.08345,17.73449 -1.52869,0.76716 -3.88953,0.55622 -5.94632,0.44357 -2.09235,-0.0545 -4.16415,-0.15236 -6.25095,-0.22113 -0.25293,-0.14976 0.31853,-0.36995 1.53258,-0.72673 26.69841,-7.84438 44.14131,-15.84836 55.0667,-25.26809 l 4.92099,-4.24204 -0.85329,3.33271 c -0.46722,1.83336 -1.21683,4.01474 -1.65876,4.84794 -0.71543,1.34627 -0.22514,1.24572 4.39929,-0.90873 2.86197,-1.33323 6.67174,-3.6512 8.46281,-5.15125 4.16053,-3.48437 9.25997,-10.77869 9.25997,-13.24558 0,-3.00261 2.37502,-2.22051 3.41536,1.12501 0.52087,1.66653 1.43196,3.03059 2.03093,3.03059 1.98007,0 7.67597,-5.70487 8.77301,-8.78727 0.86635,-2.43381 1.28299,-2.76333 2.11431,-1.67341 0.56896,0.74594 1.50785,1.23078 2.08541,1.07972 0.30074,-0.0794 0.81244,-0.90981 1.37332,-1.97186 z m 314.67303,22.02917 c 6.11586,2.09719 12.55469,4.04877 12.68838,4.19734 0.97837,1.08742 27.47694,5.36527 44.82866,7.23765 7.66845,0.82739 12.90379,1.48321 17.04765,2.11947 1.09065,0.99233 2.31249,1.95965 3.81339,2.87253 1.45336,0.92783 3.10212,1.80159 4.94071,2.59555 -0.7888,0.10197 -1.54091,0.2439 -2.28635,0.39093 -6.34351,-0.96126 -7.80493,-2.34702 -12.26899,-2.94237 -12.04995,-1.49211 -24.24249,-2.78929 -36.0876,-4.57226 -8.6218,-1.39986 -17.66469,-2.57231 -25.2431,-4.88909 -0.98864,3.26833 -2.87921,6.48697 -5.58721,9.57281 -2.68633,3.32998 -4.05658,4.46377 -8.61791,7.37744 -0.72405,0.82621 -2.48092,1.43496 -4.58746,1.48832 -2.42034,0.0688 -5.14668,0.0545 -7.65706,0.10316 0.8883,-0.66057 1.8233,-1.36406 4.04908,-2.7555 10.28334,-6.42756 15.50174,-14.65849 14.96781,-22.79633 z"
       sodipodi:nodetypes="ccccccccscccssccccccccccccscscccccccccccscccccscccccccccccccccsccccscccssccscccsccccccccccccscccccccccccccccccccccscsccscsccccccccccccccccccccccscccscccscccccccccccccscccccsscsccssscccscsccssscccccccscccscccccccssccccccssccssccccccccccccccccccccccccccccsscscsccccccscccccccccccsccccccccccccccccccccccccccscccssccsccccccccccccccccccccccccccccccccccccccccccccccccccccccccccscscsccccccccccccccccccc" />
  </g>
</svg>
