<?xml version="1.0" encoding="UTF-8" standalone="no"?>
<svg
   width="23in"
   height="11in"
   viewBox="0 0 584.2 279.40001"
   version="1.1"
   id="svg8"
   inkscape:version="1.4 (86a8ad7, 2024-10-11)"
   sodipodi:docname="Squarepit Canvas Size.svg"
   xmlns:inkscape="http://www.inkscape.org/namespaces/inkscape"
   xmlns:sodipodi="http://sodipodi.sourceforge.net/DTD/sodipodi-0.dtd"
   xmlns="http://www.w3.org/2000/svg"
   xmlns:svg="http://www.w3.org/2000/svg"
   xmlns:rdf="http://www.w3.org/1999/02/22-rdf-syntax-ns#"
   xmlns:cc="http://creativecommons.org/ns#"
   xmlns:dc="http://purl.org/dc/elements/1.1/">
  <title
     id="title833">Plasma CNC</title>
  <defs
     id="defs2" />
  <sodipodi:namedview
     id="base"
     pagecolor="#ffffff"
     bordercolor="#666666"
     borderopacity="1.0"
     inkscape:pageopacity="0.0"
     inkscape:pageshadow="2"
     inkscape:zoom="0.49497475"
     inkscape:cx="728.31998"
     inkscape:cy="267.69042"
     inkscape:document-units="in"
     inkscape:current-layer="layer2"
     inkscape:document-rotation="0"
     showgrid="false"
     units="in"
     inkscape:showpageshadow="false"
     inkscape:pagecheckerboard="0"
     inkscape:deskcolor="#d1d1d1"
     inkscape:window-width="2560"
     inkscape:window-height="1351"
     inkscape:window-x="-9"
     inkscape:window-y="-9"
     inkscape:window-maximized="1">
    <inkscape:grid
       type="xygrid"
       id="grid835"
       originx="-20.785727"
       originy="-2140.5652"
       spacingy="1"
       spacingx="1"
       units="in"
       visible="false" />
  </sodipodi:namedview>
  <metadata
     id="metadata5">
    <rdf:RDF>
      <cc:Work
         rdf:about="">
        <dc:format>image/svg+xml</dc:format>
        <dc:type
           rdf:resource="http://purl.org/dc/dcmitype/StillImage" />
        <dc:title>Plasma CNC</dc:title>
        <dc:creator>
          <cc:Agent>
            <dc:title>Kale Dobrohoczki</dc:title>
          </cc:Agent>
        </dc:creator>
        <dc:subject>
          <rdf:Bag>
            <rdf:li>CNC plasma 4x8</rdf:li>
          </rdf:Bag>
        </dc:subject>
        <dc:description>48x96</dc:description>
      </cc:Work>
    </rdf:RDF>
  </metadata>
  <g
     inkscape:label="Guide Layer"
     inkscape:groupmode="layer"
     id="layer1"
     transform="translate(-20.785727,-2140.5652)"
     style="display:none"
     sodipodi:insensitive="true">
    <path
       id="path3"
       style="fill:#666666;stroke:none;stroke-width:0.245529"
       d="M 556.51329,2419.9652 H 69.258188 c -16.15749,-93.1333 -32.314981,-186.2668 -48.472461,-279.4 H 604.98575 c -16.15749,93.1332 -32.31497,186.2667 -48.47246,279.4 z"
       sodipodi:nodetypes="ccccc"
       sodipodi:insensitive="true" />
  </g>
  <g
     inkscape:groupmode="layer"
     id="layer2"
     inkscape:label="Art Layer"
     transform="matrix(0.42660555,0,0,1,114.86661,0)">
    <path
       id="path16"
       style="fill:#000000;stroke:none;stroke-width:1.59279;stroke-linecap:round;stroke-miterlimit:4;stroke-dasharray:none;stroke-opacity:1"
       d="m 336.21452,2.1039755 c 3.00597,-0.047393 5.96183,0.7350201 7.24509,1.8923683 1.25809,1.4675125 0.6678,3.097848 0.10121,4.6060136 -1.71603,4.3822106 -5.28933,8.5686336 -7.71192,12.8785966 7.98892,-4.188319 13.10988,-9.170215 19.13514,-13.8761765 1.49879,-1.4976338 4.45291,-3.1202809 8.67524,-3.0265472 5.39152,0.1021593 8.81249,2.5471359 8.37676,4.6821591 -1.2208,2.8968986 -4.1337,5.6042256 -6.61629,8.3346166 2.28607,-1.400109 4.34033,-2.8652 6.37904,-4.332186 2.56282,-1.556085 3.95766,-3.5807337 7.91609,-4.6300254 3.576,-1.0570851 8.69252,-0.4041084 10.91786,1.1152207 2.35372,1.3412347 1.2919,3.0827877 0.19255,4.5352387 0.84631,-0.36514 1.7079,-0.725014 2.63048,-1.055294 2.43296,-1.213694 6.95771,-1.384626 9.95875,-0.462034 3.12693,0.869302 4.40821,2.621492 3.24568,4.119968 2.1019,-0.03476 4.63561,0.193365 6.283,0.87404 3.31383,1.331546 2.46309,3.536186 0.65324,5.1067 -7.32162,5.833188 -16.3805,11.262163 -26.62537,16.226261 -15.44088,7.659207 -35.68401,13.366118 -57.46319,17.221208 -14.80196,2.701954 -30.42827,4.494165 -46.2644,5.681425 -0.3908,0.245497 0.25824,0.860243 0.0246,1.258243 -0.92406,3.08679 -8.13162,8.491225 -12.96546,12.052476 -1.99154,-0.198737 -6.24373,-0.588416 -6.31261,-0.617801 -0.16294,-0.06951 1.17044,-1.058348 2.9662,-2.196003 5.35032,-3.389159 10.80307,-9.193912 9.74298,-10.372323 -0.72309,-0.80411 -8.68412,-0.692999 -17.24455,0.241074 -8.63575,0.942077 -17.21519,2.600216 -23.27774,4.498799 -4.8879,1.530704 -5.14564,1.488787 -2.95584,-0.480043 2.18214,-1.961563 9.77531,-3.958514 19.93379,-5.242771 1.50445,-0.189996 10.9413,-0.96767 20.96992,-1.727967 10.02886,-0.760296 21.33579,-1.716907 25.12634,-2.12586 11.90338,-1.284364 27.96245,-3.817386 38.51148,-6.074368 24.95402,-5.338928 42.18229,-11.958005 60.08502,-23.083254 13.84062,-8.600968 14.55806,-11.10566 2.00415,-7.000753 -3.4311,1.121856 -6.89847,1.944606 -8.19557,1.944606 -2.18361,0 -2.20953,-0.03159 -0.89048,-1.120065 0.7468,-0.616116 2.30855,-1.622332 3.47133,-2.236235 1.16279,-0.613799 3.20495,-1.840657 4.53809,-2.726178 2.03055,-1.348819 2.23867,-1.718592 1.27956,-2.278257 -1.02084,-0.595473 -1.98095,-0.256557 -8.83596,3.121229 -7.76179,3.824653 -14.61211,6.406439 -16.99966,6.406439 -1.79528,0 -1.0275,-0.943867 4.74718,-5.833821 6.0196,-5.098695 7.70231,-7.311864 5.91171,-7.783903 -1.80393,-0.475621 -2.09994,-0.337126 -6.85724,3.216541 -9.3539,6.987378 -18.65744,11.320511 -22.83755,10.636254 -2.38778,-0.390943 -1.31067,-2.541027 4.17197,-8.326506 3.00176,-3.167358 5.72061,-6.3173387 6.04058,-7.000121 0.5994,-1.2786758 -0.92357,-2.6005324 -2.51321,-2.1813636 -0.46043,0.1214327 -3.33358,2.3512428 -6.38521,4.9549346 -9.41439,8.032141 -18.89987,13.554322 -24.27018,14.129258 -5.43942,0.582413 -5.51027,-2.192106 -0.24194,-9.590227 4.18951,-5.884479 6.70986,-11.2944962 5.50486,-11.8167723 -1.72443,-0.747553 -3.40764,0.2230653 -6.75898,3.8967966 -4.61734,5.0613067 -13.38589,12.6383647 -17.71784,15.3097757 -1.93624,1.194211 -4.97406,2.482786 -6.87526,2.917122 l -3.4049,0.777779 -1.76814,-0.91817 c -2.5053,-1.301108 -2.26484,-3.498797 1.04355,-9.520505 1.54692,-2.815173 3.04374,-6.580216 3.32591,-8.3668437 0.46981,-2.9762048 0.37599,-3.2363423 -1.11883,-3.1114342 -1.2181,0.1021593 -3.63946,2.4536127 -9.55166,9.2767979 -12.21124,14.093134 -17.82545,19.107574 -22.17813,19.808997 -9.04013,1.456875 -11.00477,-6.989695 -5.13997,-22.098207 1.76048,-4.5355549 1.70023,-5.1006958 -0.5498,-5.1006958 -1.76566,0 -4.31514,2.2505581 -7.15965,6.3203938 -1.30796,1.871726 -3.44368,4.927025 -4.74596,6.789483 -2.96621,4.242769 -7.85808,8.675954 -12.62747,11.356424 -3.25186,1.828018 -3.54811,2.171358 -2.73145,3.170728 0.50363,0.616326 1.72197,1.432652 2.70849,1.813485 1.55507,0.600634 1.96315,0.618222 3.06818,0.134913 1.19241,-0.521539 6.63306,-6.282583 7.63687,-7.999385 0.25008,-0.427806 0.50067,-0.02633 0.55992,0.891523 0.13085,2.059931 -2.31497,7.250675 -4.11692,8.737356 -2.94153,2.425597 -9.21343,2.386734 -12.15939,-0.07688 -4.0915,-3.421387 -10.93787,-16.859017 -10.96256,-21.480933 0,-2.157667 -0.68088,-3.046242 -2.31051,-3.046242 -2.45889,0 -3.61377,6.364416 -2.26065,12.446473 0.54733,2.460038 1.23586,6.165364 1.53088,8.234564 l 0.53597,3.761777 -4.67707,2.109536 c -5.13034,2.314277 -4.26776,2.371359 -1.56396,3.415174 1.89428,0.707216 3.61303,0.405899 4.22529,-0.588837 0.57522,-0.604847 0.76557,-0.40137 0.81,0.861508 0.0543,1.575569 -2.17349,3.208853 -4.37836,3.208853 -2.24361,0 -5.99663,-1.961563 -9.17787,-4.79643 -6.47458,-5.769681 -9.42821,-11.450473 -11.05586,-21.262712 -1.19439,-7.199279 -1.42546,-7.778427 -3.09361,-7.778427 -1.58446,0 -1.93971,0.49721 -3.31827,4.647298 -1.79553,5.406121 -0.32982,13.513564 3.83498,21.217004 2.12906,3.937977 1.85132,6.181057 -1.02083,8.257944 -2.67614,1.935234 2.72329,1.471094 2.8961,1.404743 0.91961,-0.355241 1.66617,-0.450027 1.66617,-0.212323 0,0.813904 -2.07129,2.369252 -3.45726,2.59611 -2.26879,0.371459 -7.82597,-1.501426 -12.86497,-4.335451 -9.01666,-5.071628 -15.09353,-11.727988 -17.44108,-19.104834 -0.92405,-2.903956 -1.42989,-3.592215 -2.57072,-3.498482 -1.93601,0.159137 -2.66872,1.503637 -2.77735,5.088269 -0.11357,3.810225 1.9318,8.089645 5.85072,12.235731 l 3.04522,3.220965 -2.44161,-0.750607 c -10.37423,-3.189264 -23.31476,-12.0886 -27.62942,-19.001411 -1.65605,-2.653192 -2.3157,-3.208328 -3.81079,-3.208328 -1.68616,0 -1.77206,0.190101 -1.27066,2.819806 1.46571,7.684588 10.13402,15.014463 27.07443,22.894943 8.78954,4.088899 11.06896,5.725343 10.10909,7.258154 -1.69331,2.703639 -8.64758,2.526914 -17.47662,-0.44413 -10.90651,-3.669835 -19.42349,-9.931776 -23.84406,-17.530846 -1.50101,-2.580205 -3.1089,-4.864677 -3.57353,-5.076789 -3.20371,-1.463299 -3.08719,6.101436 0.17034,11.081542 1.04972,1.604322 3.71895,4.606435 5.93121,6.671421 2.54702,2.377362 4.00779,4.05804 4.86692,5.578001 -7.57245,-3.573362 -16.17188,-8.966318 -17.82743,-12.290812 -1.71827,-3.562093 -2.90796,-7.285746 -1.24896,-10.8926 0.692,-2.044554 6.57679,-3.246979 10.79813,-2.294581 -0.33946,-0.606215 -0.60855,-1.219592 -0.85616,-1.833601 -0.4861,-1.651504 -1.1786,-3.321229 -0.92752,-4.98969 0.0863,-1.608639 3.02276,-3.080576 6.81527,-3.26383 4.54449,-0.305636 8.58463,1.260455 9.81951,3.033603 2.28014,3.840872 5.70951,7.563155 10.37201,10.99497 -0.31798,-1.184521 -0.49326,-2.376625 -0.51794,-3.56915 0.1333,-2.040658 -0.0494,-4.216018 2.1572,-6.085848 1.72418,-1.577992 6.36472,-2.38484 10.15008,-1.706271 3.7103,0.545446 4.63534,2.345977 5.35943,3.791794 0.88604,2.271622 1.48965,4.566729 2.93068,6.793907 2.83932,4.801696 7.77586,9.658684 15.1624,13.489762 1.39287,-1.323015 1.3714,-2.734919 0.80506,-4.182 -4.01964,-7.95431 -7.17645,-16.161175 -4.67436,-24.303478 0.87296,-1.96883 0.63373,-4.254249 4.0747,-5.808228 3.55206,-1.785681 10.9813,-1.03897 12.91583,1.062877 1.75578,2.967675 1.81652,6.0631 2.4495,9.101548 1.0564,5.890799 2.80082,11.844156 8.12915,17.369708 1.40004,-0.662666 2.91339,-1.279835 4.30578,-1.94566 -0.3081,-3.655511 -1.26031,-7.344725 -1.88169,-11.017298 -0.47475,-4.060672 -1.37857,-8.230771 1.13933,-12.206978 0.40932,-1.878677 4.99011,-3.249402 9.26823,-2.915015 4.55412,0.304056 6.78885,2.390632 7.07054,4.165676 0.39377,4.888269 2.51271,9.723982 5.23304,14.467332 3.11188,-2.111854 5.60533,-4.375682 7.80647,-6.682902 4.16086,-4.403169 6.45335,-9.30397 10.52139,-13.814143 1.65752,-1.8401307 3.70882,-4.0489824 8.56931,-4.6728911 4.76571,-0.7471319 9.96493,1.0086384 10.32733,3.0700438 -0.32488,3.5336573 -2.13596,7.0377193 -3.14865,10.5133463 -0.94703,4.211595 -2.32953,8.506917 -0.48734,12.709876 4.06161,-2.969675 7.13992,-6.158308 10.0543,-9.356735 4.01741,-4.307541 7.62106,-8.682063 11.59677,-12.9956059 1.53334,-1.4772019 2.8803,-3.0042196 4.73311,-4.4111738 2.45913,-1.6746747 8.60117,-2.1709366 11.93992,-0.6955256 2.8186,1.1150105 2.17524,2.8736242 2.17524,4.3457708 -0.51647,4.8250765 -3.82584,9.4822755 -5.72433,14.2218335 -0.49301,0.817905 -0.18022,1.032334 0.97195,0.202422 8.14026,-5.337874 13.75621,-11.229199 19.53731,-17.0643878 1.57013,-1.7574553 4.65411,-3.6885809 9.50697,-3.7749423 z M 97.313995,30.218941 c 0.81025,-0.01053 1.627653,0.05476 2.412472,0.188837 4.099133,0.58831 5.351543,2.580522 6.261523,4.183053 1.66666,4.049403 3.63526,8.106706 7.39691,11.91198 3.97298,4.104064 9.7615,8.112394 17.25345,11.316087 0.35748,0.158821 7.44653,3.244136 18.05975,6.378109 8.46218,2.498794 7.12238,3.212223 -2.41643,1.287101 -23.62903,-4.768626 -40.42846,-15.276706 -45.61362,-28.529607 -2.159423,-5.519549 -4.126042,-5.896169 -5.298462,-1.01443 -0.650765,2.710485 0.63423,7.22624 2.89611,10.175273 2.093262,2.729022 1.107235,3.052139 -2.63713,0.864246 -5.431029,-3.173467 -8.709309,-6.380741 -10.52508,-10.297759 -1.250428,-2.697636 -2.109805,-3.728392 -3.18174,-3.817912 -3.305916,-0.277095 -3.086695,3.32007 0.790997,12.995078 1.208455,3.015068 3.001266,6.584323 3.984333,7.931878 l 1.787376,2.450242 -3.660186,-1.514695 C 77.244918,51.590659 68.149995,44.509758 66.108579,40.155773 c -0.363161,-0.774726 -1.082804,-1.140182 -2.244113,-1.140182 -1.433357,0 -1.695296,0.298052 -1.695296,1.847187 0.04686,6.398434 10.310545,14.896927 24.74219,20.485038 14.49979,5.614442 33.77985,8.620978 68.69237,10.711978 13.41846,0.803793 19.27536,1.358613 20.84746,1.974517 0.80038,0.31364 -7.74845,3.187686 -14.51311,4.879211 -2.03204,0.508164 -9.99331,1.629387 -17.6924,2.491528 -25.81832,2.891529 -34.94041,4.670679 -43.93115,8.568739 -6.66147,2.888053 -10.888978,6.167892 -12.52281,9.715871 -1.820215,3.95346 -3.755975,9.61371 -3.755975,10.98296 0,1.60906 2.507031,3.11207 6.313864,3.78474 2.757121,0.48699 16.432341,0.40843 19.214381,-0.11048 0.95196,-0.17746 1.78222,0.12733 2.73391,1.00306 1.89084,1.73945 8.00349,3.00864 14.49263,3.00864 6.20376,0 12.03301,-1.13797 15.40879,-3.00812 6.22129,-3.44666 5.58608,-3.28383 11.05958,-2.83603 6.57554,0.53809 13.79667,1.98348 16.79943,3.36295 1.42769,0.65592 3.36888,2.40854 4.68596,4.2315 1.23637,1.71122 3.17853,3.72385 4.31713,4.47267 l 2.07056,1.36115 0.28439,-1.68879 0.28465,-1.68879 3.01831,2.66078 c 1.66001,1.46382 5.19355,3.71174 7.85241,4.99516 6.421,3.09964 9.54102,5.2551 11.75872,8.12513 2.55985,3.31291 4.60127,7.7064 4.73458,10.19318 0.0617,1.15546 0.28367,2.1008 0.49352,2.1008 0.75741,0 4.81977,-2.15872 5.48978,-2.91712 0.52857,-0.59852 0.80458,-0.37399 1.19415,0.97251 l 0.50634,1.7504 1.62543,-1.55609 c 0.89395,-0.8556 1.87379,-2.43054 2.17769,-3.50005 0.54758,-1.92681 0.56363,-1.93471 1.62545,-0.82992 0.94702,0.98505 1.15044,1.03066 1.74764,0.38905 0.37203,-0.39947 0.90826,-2.11259 1.19167,-3.80695 l 0.51547,-3.081 2.13795,1.06066 2.13819,1.06077 -0.037,-1.09173 c -0.0247,-0.6 -0.55844,-2.3602 -1.19662,-3.91102 -0.63891,-1.55103 -1.00923,-2.8197 -0.82406,-2.8197 0.18515,0 1.5637,0.56914 3.06446,1.26425 1.50077,0.69531 2.50185,1.00126 2.22485,0.68036 -1.73579,-2.01044 -4.88865,-9.17222 -4.17295,-9.47764 0.36637,-0.15619 3.1657,0.86687 6.78689,2.3267 1.25586,2.80222 2.91338,5.9919 3.31332,6.47164 1.49656,1.37114 0.11603,3.202 -3.20224,3.812 0.82532,2.80296 0.57967,5.63477 0.47598,8.45216 0.27502,0.52122 -0.34538,1.29647 -1.8654,1.1087 -1.68394,-0.33345 -2.45221,-1.15652 -3.83349,-1.66436 -0.49054,1.19958 -1.81034,2.48215 -4.54696,3.02001 -1.12675,1.27015 -2.2214,2.64519 -3.62564,3.90554 -1.49631,1.06636 -1.75381,2.55862 -4.52771,3.2155 -2.87611,0.65297 -5.84998,-0.54819 -6.62517,-1.68448 -2.10462,0.36999 -4.58745,0.0652 -6.19116,-0.59052 -3.19607,-1.24013 -2.2019,-3.33219 -2.76848,-4.90375 -0.82703,-2.92702 -1.97056,-5.70628 -4.21146,-8.45763 -1.9486,-3.03539 -6.87427,-5.45109 -11.45877,-7.82571 -0.16294,0.96461 -0.32291,1.92955 -0.48091,2.89426 -1.10108,-0.72574 -2.20264,-1.45172 -3.30567,-2.17693 -4.1147,-2.90649 -9.31515,-5.56579 -12.2868,-8.74284 -2.00982,-1.87077 -2.60553,-4.02212 -5.49473,-5.7087 -3.08916,-1.22623 -7.21347,-1.90795 -11.25879,-2.35662 -1.06947,-0.0443 -2.45296,-0.38578 -3.32715,-0.19641 -4.32404,3.06593 -11.80416,5.38547 -20.23744,5.79348 -8.3195,0.42432 -17.79263,-0.65751 -22.77782,-3.70796 -3.91545,0.25276 -7.891394,0.2476 -11.840178,0.1802 -8.113352,0.34871 -16.454303,-2.16251 -17.929884,-5.62108 -0.516968,-3.54408 1.364732,-7.05551 2.667747,-10.53883 1.480014,-5.869102 8.885566,-11.319035 19.518035,-15.047954 11.21461,-3.956934 25.56158,-5.621813 39.32815,-7.217815 8.0136,-1.020434 16.54936,-1.670462 23.57225,-3.721651 -19.20377,-1.303321 -38.83193,-2.341449 -56.84575,-5.649302 -17.658327,-3.059196 -32.275385,-8.928193 -41.403642,-16.027103 -5.1681,-4.229499 -9.624466,-8.90892 -8.818177,-13.771174 -0.232059,-1.398318 1.561741,-2.838869 4.647698,-3.390635 4.102095,-0.82591 9.33366,0.07162 11.128451,1.830863 1.197096,1.476781 1.889346,3.032761 3.394794,4.469941 -1.111186,-2.967252 -2.176961,-5.976211 -1.728629,-8.989382 0.125909,-1.712169 2.865736,-3.401483 6.944134,-3.72597 4.453655,-0.422328 8.505629,1.175042 9.55412,2.930286 0.311796,-0.615379 0.800612,-1.223384 1.610125,-1.753559 1.204015,-0.929543 3.567612,-1.532494 5.998602,-1.548924 z M 260.33683,64.839135 c 0.36513,0.02949 0.56781,0.09057 0.56781,0.187784 0,0.221907 -1.94958,0.882888 -4.33144,1.468986 -9.00876,2.216436 -14.4993,4.340401 -20.1034,7.776216 -1.09859,0.673725 -3.49082,1.600214 -5.315,2.059405 l -3.31555,0.834968 0.59572,-1.272462 c 1.46323,-3.121335 7.70427,-6.925977 14.22995,-8.675428 4.60696,-1.234969 15.11648,-2.583366 17.67191,-2.379469 z m -49.34812,5.29343 c 1.186,0 0.73989,2.123649 -0.61867,2.950929 -0.71569,0.436019 -2.97165,1.113746 -5.01382,1.50648 -2.04215,0.392944 -3.71252,0.866984 -3.71252,1.053083 0,0.186203 1.64049,1.097948 3.64611,2.026228 2.00563,0.92828 3.6476,1.786734 3.6476,1.908694 0,0.121959 -1.23117,0.07162 -2.73538,-0.112586 -2.82451,-0.345656 -3.48961,-0.08846 -1.72098,0.666141 0.5577,0.238021 0.7542,0.612113 0.43648,0.831598 -0.62534,0.431386 -2.65343,0.333545 -7.63564,-0.367879 -1.75504,-0.247393 -5.17232,-0.347657 -7.61638,-0.224223 -5.18763,0.262138 -5.93418,-0.345762 -2.03105,-1.655613 2.88647,-0.968195 1.00552,-1.038022 -2.95462,-0.108899 -5.84949,1.372093 -10.56952,3.581156 -7.65194,3.581156 2.10042,0 0.76236,1.568724 -1.82441,2.139446 -3.04991,0.672777 -2.99832,0.602003 -1.88811,2.642345 0.5962,1.096264 0.53177,1.38926 -0.25009,1.14134 -0.57893,-0.183466 -2.87784,-0.933336 -5.10936,-1.666565 -3.17581,-1.043604 -3.90188,-1.164932 -3.34147,-0.558401 0.39353,0.426225 0.95492,1.382309 1.24648,2.124808 l 0.52956,1.349765 -3.9562,-1.444447 c -2.17597,-0.794526 -4.0547,-1.401372 -4.17567,-1.349767 -0.21232,0.09163 0.51771,1.784945 1.95576,4.540717 l 0.69668,1.334494 -3.42046,-1.614853 c -3.42172,-1.615696 -10.4204,-3.30006 -15.56433,-3.746086 l -2.73514,-0.237283 2.25546,0.81917 2.25423,0.819065 -6.58791,-0.13228 c -3.6229,-0.07267 -6.58541,-8.44e-4 -6.58443,0.159452 0.001,0.160611 0.71989,0.303108 1.5973,0.317852 3.51009,0.05793 -2.12956,0.708795 -8.30394,0.958401 -4.57758,0.185046 -5.98231,0.368827 -5.24217,0.684678 1.75603,0.749028 1.10279,1.371462 -1.71456,1.635496 -4.0784,0.382202 -4.02557,0.803161 0.1654,1.338813 3.70636,0.473725 10.24809,1.307639 10.24809,1.818962 0,0.144286 -1.12797,0.197051 -2.50679,0.119115 l -2.50826,-0.142496 2.29892,0.487626 c 9.72396,2.064775 11.63776,6.619499 6.55629,10.318399 -2.91759,2.12387 -8.82928,4.41738 -13.69669,5.31408 -8.55527,1.57619 -10.57841,1.29615 -4.21888,-0.584 11.26152,-3.32933 17.9099,-8.87722 13.26294,-11.06785 -2.01944,-0.951976 -6.67109,-1.054452 -9.20997,-0.20242 -1.73998,0.58389 -1.73504,0.60432 0.28194,1.21421 1.12821,0.34124 2.05153,0.91945 2.05153,1.28437 0,1.9088 -13.72583,8.14967 -14.94441,6.79496 -1.78096,-1.9801 0.71373,-11.788333 3.16273,-12.433938 0.46265,-0.122064 0.84186,-0.389364 0.84186,-0.594314 0,-0.425699 -8.694504,1.351029 -11.305714,2.310378 -1.659993,0.609691 -1.703437,0.587574 -1.067733,-0.5307 1.181056,-2.077836 5.108607,-5.015915 9.014437,-6.743249 6.39263,-2.826757 16.9061,-4.794851 39.82708,-7.456152 13.39207,-1.554927 16.2257,-2.103533 27.58079,-5.336926 10.31622,-2.937764 12.82103,-3.436027 19.03441,-3.788529 3.20792,-0.181991 5.15996,-0.608638 8.12791,-1.777571 3.26395,-1.285522 8.1679,-2.30048 11.12722,-2.315224 z m 46.1523,1.222962 c 1.16946,0.357242 -5.6821,3.68795 -10.03774,4.635924 -4.08482,0.888997 -11.72688,1.599162 -11.72688,1.089524 0,-0.186309 0.40019,-0.339021 0.88926,-0.339021 0.48905,0 4.899,-1.159877 9.80049,-2.577574 4.90148,-1.417697 9.425,-2.66109 10.05182,-2.764303 0.52511,-0.08637 0.85591,-0.09584 1.02305,-0.04423 z m 24.04575,2.267831 c 5.00345,0.469194 6.21389,0.935968 11.1961,1.446133 3.30518,0.186308 7.26162,0.744498 8.30517,2.265723 4.89753,0.314482 9.85382,-0.123012 14.54127,-0.718485 3.51576,-0.648553 8.19456,-0.834651 11.11585,0.424013 6.91451,-0.662665 13.79471,-1.528702 20.68134,-2.29458 3.0383,-0.62254 7.08608,-0.336389 9.11664,0.862666 5.19798,-0.367247 10.32857,-0.97599 15.6206,-1.0455 3.6249,-0.277409 7.90697,0.411375 9.20208,1.979362 5.47473,0.393787 11.01834,0.759559 16.21904,1.622963 3.1141,0.632861 7.12657,1.080782 8.61894,2.553139 0.0543,0.585467 1.68715,0.587784 2.609,0.841392 3.35603,0.568301 7.18188,1.465091 7.81018,3.140819 2.15942,0.513113 4.49808,0.932281 6.70047,1.434126 3.52909,0.73344 7.89707,1.642973 8.48883,3.502798 0.80507,0.457716 2.41052,0.680255 3.46368,1.079308 3.05979,0.776832 5.55473,2.308062 4.58401,3.87826 7.07424,2.082576 14.59607,3.823704 22.45217,5.261835 15.2108,2.70711 31.35576,4.68121 47.81205,5.34177 14.31808,0.66172 28.72455,-0.15166 43.06857,-0.74882 20.5485,-1.05119 41.49572,0.0779 61.15522,2.75167 21.0156,2.84255 41.276,7.52597 55.83405,14.71873 8.51675,3.91333 13.41329,9.06689 14.98021,14.32526 0.21726,1.74102 1.51903,3.52827 0.33033,5.24929 -1.04577,1.82907 -7.0824,3.64635 -16.75847,0.47509 0.20985,-0.7269 0.63768,-1.8791 0.72582,-2.31417 0.29304,-1.44382 0.84876,-2.62549 1.23512,-2.62549 0.38636,0 1.78393,0.78778 3.10644,1.75029 1.54077,1.12175 3.04078,1.7504 4.17567,1.7504 1.62198,0 1.72617,-0.20505 1.23488,-2.43117 -1.35634,-6.14578 -4.65757,-9.94157 -12.09175,-13.90452 -16.6454,-8.87353 -46.20909,-15.22657 -80.54441,-17.30883 -12.80499,-0.77651 -21.89251,-0.72406 -41.21378,0.23792 -28.69371,1.42855 -48.81338,0.48879 -75.73353,-3.53819 -13.70016,-2.04929 -24.03243,-4.322914 -36.25725,-7.977687 -4.98937,-1.491736 -6.87724,-2.492685 -3.72907,-1.977255 0.82284,0.13228 2.30188,0.133754 3.28643,0 1.4741,-0.199685 0.6873,-0.550396 -4.45884,-1.985366 -7.82499,-2.182101 -8.84509,-2.593792 -5.56607,-2.248346 4.86,0.51206 2.40778,-0.273302 -6.60865,-2.116593 -8.1827,-1.672673 -8.90753,-1.903005 -7.07399,-2.252032 1.86739,-0.355346 1.51064,-0.49405 -4.16035,-1.6138 -3.41183,-0.673725 -7.28237,-1.340288 -8.60118,-1.481415 l -2.39718,-0.256872 2.2261,-0.357031 2.22757,-0.357031 -2.29892,-0.520275 c -2.98992,-0.676569 -15.28016,-1.755244 -19.99897,-1.755244 -3.63845,0 -4.97455,-0.591154 -2.31815,-1.02591 0.75222,-0.123119 1.36768,-0.396842 1.36768,-0.607901 0,-0.473302 -6.83378,-0.151343 -17.07372,0.804425 l -7.50134,0.700371 0.53449,-0.907743 c 0.29403,-0.499317 0.25947,-0.907848 -0.0766,-0.907848 -0.336,0 -4.38032,0.463929 -8.98778,1.03086 -8.36689,1.029703 -22.50847,2.436972 -22.50847,2.240132 0,-0.05687 0.66435,-0.387258 1.47607,-0.733651 2.27028,-0.968407 0.90135,-1.122489 -3.92434,-0.441392 -6.86736,0.969144 -12.41838,1.15419 -18.9132,0.631281 -5.99045,-0.482149 -7.30704,-0.872461 -4.49192,-1.333336 0.82407,-0.134913 1.30894,-0.326594 1.07935,-0.42454 -0.23206,-0.09795 -7.11868,-0.790629 -15.3056,-1.538077 -0.64509,-0.05898 -0.57077,-0.05898 -1.1966,-0.117008 1.58074,-1.210219 2.91684,-2.461302 3.20864,-2.433918 z m -24.38125,8.017921 3.99815,0.954084 c 2.19918,0.524803 6.89329,2.091632 10.43202,3.482051 l 6.43508,2.5286 -2.826,-2.236867 c -1.55384,-1.230124 -2.64873,-2.23634 -2.43149,-2.23634 0.21726,0 3.97273,1.239497 8.34615,2.753982 8.78559,3.042555 11.14252,3.701009 11.14252,3.115753 0,-0.209375 -0.71742,-0.61264 -1.59481,-0.896895 -2.62061,-0.848765 -5.44808,-2.385998 -6.11587,-3.325338 -0.59078,-0.830859 -0.37995,-0.810112 3.7098,0.367353 4.20062,1.209586 12.80154,2.649927 15.76726,2.649927 0.81248,0 0.28761,-0.261402 -1.18895,-0.589891 -1.45337,-0.323329 -4.22407,-1.197475 -6.15686,-1.942501 -3.92286,-1.511851 -2.71465,-1.791367 2.68158,-0.620433 3.86879,0.839497 15.14438,2.373465 17.38232,2.373465 0.82457,0 -0.75692,-0.47425 -3.51479,-1.049818 l -5.01504,-1.046658 8.66117,-0.244866 c 4.76372,-0.134808 9.63632,-0.381254 10.8275,-0.547553 2.98005,-0.415799 1.64369,0.478043 -1.46965,0.982941 -5.41031,0.877621 -0.53227,0.704898 10.36954,-0.367352 6.4494,-0.634231 14.17441,-1.273832 17.16532,-1.421067 l 5.43745,-0.267721 -7.8882,2.266777 c -4.3386,1.246659 -7.81092,2.29574 -7.7171,2.331549 0.0939,0.03581 3.85324,-0.449396 8.3538,-1.077622 8.55525,-1.194421 26.00743,-2.054771 24.80219,-1.222858 -0.31996,0.220643 -1.78122,0.503635 -3.24691,0.628543 -1.46596,0.125119 -5.27008,0.864246 -8.45305,1.643079 -3.18274,0.778622 -4.96543,1.290788 -3.96263,1.138076 3.07733,-0.469196 14.5546,-0.687627 20.8971,-0.397895 6.12574,0.279832 7.14214,0.714061 2.59738,1.109218 -1.38941,0.1208 -5.06836,0.714272 -8.17629,1.318697 l -5.65174,1.099423 h 9.29787 c 6.6101,4.22e-4 10.67912,0.204002 14.07417,0.70532 2.62651,0.387784 4.94419,0.823067 5.15156,0.967143 0.20738,0.143339 -1.94292,0.262244 -4.77631,0.276988 -2.8334,0.01053 -8.02299,0.172723 -11.53308,0.36472 l -6.38274,0.348816 7.74278,0.323855 c 8.24814,0.344814 16.16472,1.658982 21.43282,3.557248 l 2.73415,0.985048 -3.64635,-0.54365 c -2.00564,-0.29922 -5.38093,-0.546401 -7.50011,-0.561146 l -3.85275,-0.0179 7.666,3.300266 c 5.17971,2.22949 9.31761,4.49712 12.75636,6.9898 5.51422,3.99685 14.08281,7.94578 20.66503,9.52388 l 3.94335,0.94587 -1.79627,-1.00569 c -0.98776,-0.55314 -3.16348,-1.72344 -4.83532,-2.60107 -1.67185,-0.87762 -2.78032,-1.59568 -2.46334,-1.59568 0.317,0 2.80649,0.60885 5.533,1.35303 2.7265,0.74397 7.44382,1.88827 10.48286,2.54272 l 5.52535,1.18968 -6.42349,-2.68089 c -6.46964,-2.70775 -8.1637,-3.74978 -4.37193,-2.70775 1.12823,0.31006 3.9994,1.02991 6.38126,1.6001 2.38187,0.5701 6.23215,1.49574 8.5555,2.05625 6.57185,1.58558 3.98211,0.48457 -8.48144,-3.6057 -12.36258,-4.05709 -20.4695,-7.13724 -18.78432,-7.13724 0.57867,0 1.33362,0.19421 1.67752,0.43159 0.80062,0.55261 19.92416,5.85615 25.14534,6.97348 l 3.96781,0.84898 -4.10285,-1.48258 c -2.25645,-0.81559 -8.00052,-3.12143 -12.76425,-5.12407 l -8.66115,-3.64098 14.13168,3.64203 c 25.35865,6.53567 24.61037,6.43024 14.58719,2.05572 l -8.66115,-3.78042 5.47053,1.27678 c 3.00867,0.70237 7.61094,1.85108 10.22661,2.55314 2.61589,0.70195 6.92092,1.74429 9.56694,2.31628 l 4.81088,1.04013 -6.83181,-2.81813 c -3.75746,-1.55008 -5.80678,-2.56219 -4.55314,-2.24887 4.08902,1.02159 26.6503,5.38664 27.02211,5.22802 0.19996,-0.0853 -2.82428,-1.06298 -6.71949,-2.17262 -4.11296,-1.17177 -6.12673,-1.93006 -4.80323,-1.808 1.25364,0.11511 4.94518,0.48847 8.20445,0.82949 9.07344,0.94945 35.66721,1.14682 52.31285,0.38799 31.10667,-1.41791 52.74217,-0.23907 73.04677,3.98116 6.60592,1.37304 17.86372,4.62792 19.20154,5.55135 0.29403,0.20295 -1.65036,0 -4.31984,-0.44349 -4.20306,-0.70353 -15.61221,-2.27647 -21.26321,-2.93134 -1.00306,-0.11627 0.33773,0.3109 2.98028,0.94913 2.64233,0.63834 6.75899,1.85846 9.14727,2.71143 4.97752,1.778 14.76641,6.89417 11.11067,5.80718 -7.80869,-2.32207 -19.70072,-5.27437 -30.65685,-7.61077 -14.41141,-3.07319 -19.31734,-3.86203 -13.09581,-2.10574 2.25645,0.63697 6.38472,2.1858 9.17294,3.44129 5.81023,2.61666 12.77264,6.2809 11.09141,5.83762 -0.62262,-0.1642 -6.23436,-1.77493 -12.46923,-3.57947 -6.23536,-1.80464 -11.63701,-3.28131 -12.00387,-3.28131 -0.3671,0 0.17775,0.39378 1.21216,0.8752 1.03368,0.4813 2.74033,1.60705 3.79277,2.50185 2.06437,1.75502 7.48528,7.90196 6.96833,7.90196 -0.17282,0 -1.74961,-0.83117 -3.50342,-1.84719 -4.89977,-2.83908 -12.67216,-5.93913 -18.54709,-7.39738 l -5.31475,-1.3187 5.47053,2.33534 c 3.09658,1.32207 7.03179,3.57168 9.07074,5.18453 l 3.60265,2.84919 -3.60265,-1.27362 c -4.87187,-1.72291 -18.5219,-5.92197 -19.25142,-5.92197 -0.32267,0 0.037,0.30658 0.8011,0.68088 2.1061,1.03244 17.19569,10.69987 16.89895,10.82625 -0.61151,0.26088 -10.10318,-2.52965 -14.03492,-4.12649 -2.35694,-0.95725 -7.01698,-3.31586 -10.35647,-5.24119 -7.20434,-4.15357 -10.17378,-5.38096 -6.81403,-2.81644 1.26055,0.96208 3.15582,3.20601 4.21146,4.98695 1.05564,1.78073 2.68947,4.00423 3.63081,4.94125 0.94158,0.93692 1.71208,1.80157 1.71208,1.92059 0,0.77515 -7.01547,-3.80391 -10.54557,-6.88311 -6.20474,-5.41265 -8.31899,-6.22762 -20.85512,-8.03688 l -6.43483,-0.92849 4.10283,1.52112 c 2.25645,0.83676 3.81523,1.64719 3.46368,1.80094 -0.35131,0.15377 -4.15543,-0.53185 -8.45329,-1.52332 l -7.81537,-1.80264 5.3787,2.35229 c 4.3549,1.90449 9.64101,5.26553 11.89647,7.56347 0.20245,0.20654 -3.48885,-1.14196 -8.20444,-2.99663 -11.12844,-4.37705 -22.82989,-8.14483 -17.5213,-5.64171 1.83281,0.86423 8.56265,5.1188 10.34781,6.54187 0.73941,0.58842 0.64707,0.68879 -0.46831,0.50617 -0.7636,-0.12513 -1.38794,-0.36936 -1.38794,-0.54261 0,-0.37398 -14.04406,-5.09227 -17.32258,-5.81971 -1.45608,-0.32312 -0.38612,0.34734 2.96252,1.85541 2.88351,1.29826 5.24216,2.55482 5.24216,2.79253 0,0.2378 -2.35865,-0.24361 -5.24216,-1.07005 -8.14914,-2.33586 -8.35504,-2.32438 -2.44457,0.13934 3.04324,1.26825 7.32136,3.44361 9.50721,4.83403 l 3.97397,2.5286 -4.03643,-1.56746 c -5.47029,-2.12386 -15.83219,-5.24224 -17.3722,-5.2275 -0.84729,0.0105 -0.73446,0.14028 0.34834,0.40927 1.91256,0.47509 9.5245,5.21423 12.75512,7.94115 2.6438,2.23159 5.28291,4.86182 4.87852,4.86182 -0.15059,0 -2.27101,-1.09373 -4.71139,-2.43065 -6.85946,-3.75809 -14.03418,-6.85678 -19.5373,-8.43856 -7.63663,-2.19495 -8.05706,-2.24888 -3.95348,-0.50458 5.40264,2.29626 7.74896,3.71248 12.66576,7.64182 l 4.3339,3.4631 -11.08154,-4.72735 c -6.09488,-2.60021 -11.56269,-4.72733 -12.15149,-4.72733 -0.6172,0 -0.32736,0.37061 0.68384,0.87509 2.8724,1.43286 3.15878,1.68257 11.93968,10.40445 1.81652,1.80411 1.44595,1.63223 -12.96817,-6.02866 -6.43977,-3.42255 -11.44148,-5.96042 -11.11437,-5.63951 0.32686,0.32091 2.20041,2.2455 4.16282,4.27774 1.96267,2.03212 4.84668,4.92038 6.40941,6.41781 l 2.84105,2.72238 -6.73849,-3.00485 c -3.7061,-1.65266 -8.41749,-4.10153 -10.47027,-5.44193 -2.05278,-1.34018 -3.73277,-2.23634 -3.73277,-1.99137 0,1.16525 6.856,8.65258 9.59634,10.48007 1.69949,1.13323 2.54331,1.97062 1.87651,1.86183 -1.97478,-0.32334 -10.38092,-4.95757 -15.20834,-8.38412 -3.64142,-2.58473 -4.37612,-2.93439 -3.89497,-1.85319 0.32662,0.73313 1.55409,2.47036 2.72898,3.86088 l 2.13672,2.52808 -3.65107,-1.7503 c -2.0076,-0.96272 -7.19767,-4.11291 -11.53307,-7.00075 -6.58691,-4.38769 -14.2265,-9.09786 -18.87493,-11.6371 -1.69481,-0.92565 14.12799,4.57716 19.88663,6.91629 4.82792,1.96093 5.21279,2.05224 3.64612,0.86161 -0.96356,-0.73228 -5.45547,-3.00759 -9.98294,-5.05614 -9.83531,-4.45046 -16.43505,-7.76189 -20.22732,-10.14916 -4.14703,-2.61075 -10.92873,-5.71018 -15.30288,-6.99412 -3.42468,-1.00516 -16.75254,-3.5208 -18.48586,-3.48816 -0.36291,0.0105 0.95566,0.43549 2.93043,0.95303 5.37968,1.40991 13.37304,4.91818 18.62879,8.1757 2.57147,1.59389 4.67584,3.01348 4.67584,3.15609 0,0.14207 -1.69999,-0.56536 -3.7777,-1.57231 -4.32379,-2.09553 -15.07378,-5.31176 -22.32848,-6.68069 -6.81848,-1.28636 -6.96093,-1.1742 -0.70287,0.55292 5.61274,1.54882 12.72055,4.64877 16.50468,7.1977 3.6787,2.47826 3.40318,2.66573 -1.22748,0.83381 -4.60819,-1.82275 -10.43595,-3.3761 -17.96667,-4.78937 l -4.42797,-0.83107 5.48832,2.50248 c 5.94303,2.71017 9.18157,4.62265 13.66213,8.06637 l 2.87931,2.21338 -6.5879,-2.73156 c -6.01217,-2.4932 -12.25394,-4.46319 -22.08629,-6.97073 l -3.64611,-0.93018 2.81833,1.54682 c 1.54989,0.85066 5.59743,3.2018 8.99421,5.22477 7.02535,4.18358 7.38457,4.24214 -9.53388,-1.54345 -11.44864,-3.91523 -11.87105,-3.99233 -6.60222,-1.20285 2.47321,1.30932 5.64556,3.29795 7.04858,4.41929 l 2.55047,2.03876 -3.09386,-1.19895 c -2.61663,-1.01412 -10.42559,-3.36852 -15.40236,-4.64403 -0.75224,-0.19263 -0.0988,0.34312 1.45435,1.19072 1.55186,0.84762 3.88608,2.32861 5.18613,3.29112 2.83217,2.09742 8.4723,8.30523 6.53703,7.19496 -1.99796,-1.14597 -17.24382,-8.28364 -17.49735,-8.19096 -0.1185,0.0432 1.36201,1.72912 3.29036,3.74608 2.98227,3.11923 4.76027,5.79538 7.95066,11.96317 0.2955,0.57114 -1.60914,-0.71164 -4.23196,-2.85077 -6.50692,-5.30713 -12.05743,-8.95421 -11.24694,-7.38981 1.11662,2.15482 4.98542,7.75021 7.65316,11.07007 1.45484,1.81011 2.50234,3.35229 2.32706,3.42707 -0.53103,0.22654 -11.45012,-6.92408 -11.45012,-7.49859 0,-0.29405 -0.33774,-0.62433 -0.75002,-0.73313 -1.36498,-0.35988 0.8063,4.84098 4.02112,9.63099 1.74147,2.59453 3.39554,5.06752 3.6755,5.49532 0.73767,1.12702 -7.19842,-4.32175 -11.06475,-7.59717 -1.81134,-1.53429 -3.51651,-2.69426 -3.78905,-2.5781 -0.84951,0.3625 2.31668,7.32187 4.58005,10.06648 1.18574,1.4376 1.83799,2.53102 1.4494,2.4278 -1.57136,-0.41432 -10.1276,-7.2394 -12.171,-9.7088 -1.20427,-1.45531 -1.26055,-1.24182 -0.87765,3.30574 0.22465,2.67394 0.57325,5.43034 0.77321,6.12556 0.19998,0.69521 0.21973,1.26424 0.0445,1.26424 -0.60609,0 -8.36838,-6.03561 -10.34635,-8.0451 -1.09169,-1.10922 -1.98514,-2.38884 -1.98514,-2.84318 0,-0.51406 -0.38858,-0.72343 -1.027,-0.55514 -1.51261,0.39874 -0.19257,6.24825 2.07574,9.19518 2.10807,2.73945 5.75765,5.99517 7.86375,7.0154 0.77396,0.37556 1.1897,0.77619 0.92109,0.89089 -0.2681,0.11437 -2.75365,-0.67594 -5.5241,-1.75631 -3.53181,-1.37693 -6.28399,-2.97978 -9.20848,-5.36356 l -4.17173,-3.39991 0.54486,1.94461 c 0.95294,3.40106 3.94237,9.23288 5.35056,10.4371 v 0 c 2.26953,1.94071 0.86826,1.58599 -2.63837,-0.66783 -11.92389,-7.66342 -14.05418,-16.88967 -6.20672,-26.8821 l 3.35925,-4.2789 0.47326,3.50059 c 0.2597,1.92523 0.72951,3.23792 1.04477,2.91712 0.31552,-0.3209 1.52718,-2.596 2.69195,-5.05604 1.97772,-4.17694 2.16116,-4.36999 2.77612,-2.91723 0.36241,0.85571 0.68458,2.22275 0.71175,3.0375 0.0296,0.81475 0.42685,1.38263 0.8843,1.26214 0.45771,-0.1207 1.12748,-2.3306 1.48867,-4.9108 0.36094,-2.58053 0.96011,-4.54894 1.33314,-4.37411 0.37303,0.17494 1.65135,1.54324 2.84006,3.04067 2.00168,2.52164 2.18338,2.62506 2.45962,1.40369 0.16295,-0.72544 -0.36562,-2.97852 -1.17636,-5.00718 -0.81049,-2.02854 -1.32844,-3.74914 -1.1507,-3.82602 0.17777,-0.0758 1.50152,1.18094 2.94327,2.79253 2.72009,3.04087 4.69139,4.21654 3.78141,2.25487 -0.28539,-0.61496 -0.77396,-1.99357 -1.08577,-3.06309 -0.3118,-1.06961 -0.78136,-2.29437 -1.04353,-2.72228 -0.84778,-1.3822 2.0424,0.14081 5.16563,2.72228 1.55311,1.28342 2.62356,1.98379 2.37916,1.55598 -0.24442,-0.42791 -0.89963,-2.23866 -1.4556,-4.02359 -0.55621,-1.78495 -1.40818,-3.69059 -1.89329,-4.23477 -0.49006,-0.54429 -0.70459,-1.06551 -0.4898,-1.15714 0.51869,-0.22117 6.95302,3.38442 6.95302,3.89627 0,0.21969 0.24688,0.29278 0.54584,0.16493 1.89989,-0.8105 -13.91822,-14.676175 -18.9043,-14.676175 -0.51498,0 -0.0421,0.616851 1.04997,1.370934 2.06338,1.424321 4.54622,4.861831 4.48945,6.213701 -0.0246,0.45856 -1.18576,-0.17999 -2.8423,-1.55598 -3.32617,-2.76314 -10.68259,-6.82455 -14.08331,-7.775158 l -2.41495,-0.674883 2.26708,1.30785 c 3.33381,1.923647 5.15132,4.224961 5.69864,7.213391 0.31057,1.69784 0.20737,2.30153 -0.28835,1.67909 -2.77563,-3.48668 -9.56054,-7.489846 -16.01981,-9.45204 l -2.77982,-0.844131 2.08856,1.250134 c 2.45174,1.468882 6.9276,5.627177 7.85364,7.295747 0.72532,1.30701 0.64681,1.27836 -4.77657,-1.7504 -2.1066,-1.17641 -5.87861,-3.101634 -8.38195,-4.278255 l -4.55067,-2.13892 2.82205,2.91712 c 1.55211,1.604425 3.41332,3.507115 4.1374,4.228855 0.72433,0.72176 1.165,1.37684 0.97985,1.45583 -0.18515,0.079 -3.73498,-1.77462 -7.88819,-4.11944 -4.15295,-2.34492 -8.15063,-4.475625 -8.88311,-4.734919 -1.48397,-0.525542 -1.9128,-1.024016 5.07504,5.892049 l 3.73278,3.69491 -4.32232,-1.96968 c -6.46149,-2.94429 -8.97544,-4.680571 -13.41725,-9.266362 -2.21768,-2.289526 -5.23919,-5.11344 -6.71429,-6.275211 -1.91131,-1.505429 -2.25176,-2.011906 -1.18524,-1.761774 1.74911,0.409901 8.98407,3.605695 11.83277,5.226447 1.08454,0.617062 1.97107,1.013483 1.97107,0.881202 0,-0.834125 -6.08007,-5.331239 -10.17674,-7.527557 z m -69.29351,0.923015 0.49253,0.881202 c 0.78505,1.405902 5.30684,1.429177 7.91237,0.04003 1.38918,-0.740708 1.38696,-0.717538 2.18413,-0.520907 10.3493,2.552612 4.52549,4.200009 -1.29883,4.045928 -10.14365,0.231596 -10.77541,0.227068 -10.33102,3.8533 0,0 1.35238,2.276677 1.24128,2.261933 -1.53753,-0.119327 -5.29031,-1.337023 -6.45162,-2.093213 -2.78945,-1.816222 -1.84366,-6.118918 2.94697,-7.509548 z m 55.9528,47.704056 c 5.42659,2.22181 10.89071,4.2354 15.16118,5.44414 l 8.20567,2.32239 -0.10862,1.92712 c -0.56239,10.06227 -0.44808,14.23384 0.43375,15.80614 1.91577,3.4156 4.91482,6.26299 9.85531,9.35843 l 4.93482,3.09184 -3.16915,3.94851 c -4.42577,5.51386 -5.61571,7.69344 -8.23877,15.0806 -2.74551,7.73167 -4.93679,10.51703 -13.72607,17.4547 -7.71859,6.09259 -8.01287,6.45078 -10.41424,12.64942 -2.68207,6.92314 -10.73147,17.74401 -20.09968,27.02208 -8.01065,7.93345 -22.1737,17.1221 -31.32763,20.32442 -7.27495,2.54493 -13.92334,5.63488 -16.87845,7.8313 l -7.19151,0.0589 c 0.82211,-0.56641 1.65828,-1.12922 2.53494,-1.68015 5.15082,-3.47563 12.73338,-6.0709 19.66715,-8.85984 7.97707,-3.58506 14.35414,-7.77011 19.91107,-12.09376 9.49438,-7.54821 16.42815,-15.64006 22.00558,-23.85504 2.80896,-3.73787 4.4097,-7.60549 6.04205,-11.46027 1.76764,-5.26446 8.94309,-9.73809 14.38055,-14.40034 6.11414,-4.97884 7.78179,-10.62667 9.75457,-16.10378 1.70789,-5.16399 5.50486,-10.13577 9.42155,-15.05722 -6.11858,-3.71639 -11.69577,-7.74935 -13.78977,-12.25658 -1.56767,-4.64635 -0.95394,-9.36421 -0.75397,-14.04216 -0.0963,-0.94871 0.30861,-1.9285 0,-2.85572 -4.70027,-1.18632 -9.1127,-2.58294 -13.30763,-4.09111 -0.31748,-0.11416 -1.88711,-3.00781 -3.30295,-5.56388 z m 423.78229,15.16886 c 2.94203,0.87783 6.12748,1.79937 6.05367,2.04034 -1.97501,5.40381 -2.21671,10.88586 -1.90096,16.34328 0.35304,4.96367 1.087,10.2751 7.3853,14.64742 7.60059,4.99443 19.4393,8.3739 30.60058,11.77759 4.67856,1.56336 10.26784,2.75251 13.68658,4.89986 3.02572,1.67847 3.24865,3.8555 3.80436,5.87194 1.16032,6.70133 4.75905,13.30525 8.81547,19.80089 4.54549,7.01328 9.01345,14.03879 16.79055,20.53022 5.62212,5.14125 16.17684,8.98012 21.23905,14.25006 1.89157,1.37535 2.20263,3.24751 -0.22219,4.54671 -2.21127,1.3067 -6.65483,1.31934 -9.64992,0.52407 -1.74296,-0.55019 -0.63349,0.20158 -0.0246,0.61128 2.88326,1.87246 7.11376,3.75946 6.49361,6.18158 -1.32004,2.75735 -7.0123,7.78821 -11.27635,9.83562 l -9.43561,-0.32597 c 2.58503,-0.10942 6.1919,-0.22495 6.8086,-0.32216 1.32104,-0.20833 0.38389,-0.36557 -3.40739,-0.57199 l -5.23204,-0.2852 5.98724,-2.75883 c 7.29322,-3.36051 10.78826,-5.78243 10.0723,-6.97948 -0.28613,-0.47794 -2.15102,-1.79168 -4.14505,-2.91986 -3.45899,-1.95693 -4.35984,-3.1761 -4.93975,-6.68617 -0.24688,-1.48615 2.60776,-1.43496 7.98103,0.14366 2.61639,0.76883 5.03728,1.39821 5.37502,1.39821 2.647,0 -3.51358,-5.04214 -10.69225,-8.75094 -12.13744,-6.27078 -20.51074,-15.13305 -30.50232,-32.28222 -3.74807,-6.43277 -5.49522,-10.68691 -6.38397,-15.546 -0.92924,-5.07922 -1.29858,-5.3225 -13.58192,-8.95674 -36.73173,-10.86743 -42.20548,-15.12284 -42.1808,-32.7927 0,-5.42256 0.48562,-8.55168 1.88566,-12.324 0.25527,-0.68804 0.34685,-1.17061 0.5957,-1.90047 z m -138.80623,27.81438 c 0.17035,0.0779 2.43865,2.67932 5.03948,5.78106 9.04186,10.78255 17.75856,18.99352 28.13181,26.49959 17.68844,12.79961 17.95508,16.85754 2.035,30.90897 -11.88981,10.49397 -24.66418,19.55644 -35.02633,24.84723 -3.07681,1.57095 -8.67893,3.74441 -13.2207,5.13008 -4.49217,1.37042 -9.96665,3.49069 -12.73092,4.93093 l -4.84916,2.52692 -5.42461,-0.0295 c 1.19415,-0.75587 2.44827,-2.18494 3.07188,-2.68963 6.15043,-3.58989 15.0407,-6.01402 22.80571,-8.89576 6.95424,-2.76071 12.32899,-6.15388 17.4576,-9.54177 9.79457,-6.69754 18.6288,-13.67713 26.15581,-20.90632 3.76709,-3.6871 7.46851,-7.47331 6.62518,-11.52999 -1.03959,-4.41686 -6.53507,-8.32218 -11.56369,-12.10629 -12.29987,-8.77327 -21.59403,-18.23395 -29.76861,-27.82038 -0.65126,-0.77242 -2.64379,-3.96211 -4.21145,-6.38517 2.37766,-0.33376 5.36092,-0.77136 5.473,-0.72007 z m -189.31393,0.74619 c 0.36291,0.0105 2.2357,0.20337 3.36419,0.29995 -1.60643,2.24498 -3.53824,5.17273 -4.3196,5.79569 -8.44094,7.25068 -18.39402,14.15401 -28.60162,20.97046 -6.9871,4.5425 -13.23973,9.27668 -19.87898,13.90998 -4.65238,3.35514 -10.38387,6.39528 -15.70455,9.55484 -9.00332,5.17253 -13.62856,11.38686 -18.21948,17.44375 -4.98467,5.84857 -6.74046,12.04889 -9.26453,18.1676 -1.05218,4.24267 -5.73592,8.06942 -9.76469,11.90334 l -13.50414,0.11206 c 2.48827,-1.77336 2.6011,-3.02949 0.19997,-4.41433 l -1.91502,-1.10437 1.95971,-1.889 c 2.32656,-2.2436 5.20736,-3.64919 7.48109,-3.64919 1.66271,0 1.7938,0.13723 3.33975,3.50059 l 0.80382,1.75029 2.02711,-1.94513 c 1.25585,-1.20475 2.87586,-4.3858 4.25861,-8.36189 2.6117,-7.51029 4.44426,-10.7698 10.01479,-17.81816 7.77735,-9.84057 10.8944,-12.39371 23.9117,-19.58541 3.35629,-1.85424 8.74264,-5.3543 11.96931,-7.77843 3.22643,-2.42401 8.72511,-6.33272 12.21939,-8.68575 3.49454,-2.35303 9.98689,-6.72861 14.4277,-9.72356 4.44057,-2.99485 11.57753,-8.37695 15.8591,-11.95989 5.55348,-4.64741 8.22938,-6.50819 9.33588,-6.49344 z m 67.28022,0.19758 c 0.43451,-0.0337 1.403,0.11184 3.32469,0.40495 7.86746,1.19958 25.12066,2.94271 34.42419,3.47773 23.48017,1.3503 48.86005,0.18136 72.79398,-3.28668 0.69051,1.48816 1.83206,3.1721 1.17636,3.2633 -13.52635,1.87973 -27.53857,3.14113 -41.72779,3.61054 -20.89167,0.79495 -41.93615,-0.56504 -61.96795,-3.08152 4.44502,9.81919 7.40137,19.80404 12.89164,29.50865 2.71712,3.68373 2.65517,7.57938 2.8181,11.39992 -0.0963,4.44393 2.7186,8.81992 5.72062,13.07343 4.16037,6.32335 10.00417,12.41341 16.38074,18.38203 3.04275,2.6512 5.87146,5.42193 6.43631,8.40045 0.1975,1.72796 0.87963,3.73365 -2.02069,5.15029 -2.2794,1.25499 -6.83649,1.29291 -9.54916,0.27374 -1.30252,-0.67994 -1.08898,0.0927 -0.56387,0.58399 3.36838,1.57009 4.67757,3.84045 3.66513,5.91386 l -7.24237,0.0316 c 1.64814,-1.74587 1.37115,-3.19232 -1.08971,-4.43992 -1.84713,-0.93639 -2.27472,-1.57431 -2.27472,-3.36241 0,-5.29153 3.41405,-6.58306 8.37429,-3.17895 1.55853,1.06952 3.18248,1.94462 3.60908,1.94462 1.29956,0 0.86482,-4.13893 -0.63274,-6.02056 -0.77445,-0.97325 -4.08037,-4.2277 -7.34705,-7.23192 -6.54492,-6.01919 -12.39763,-13.14042 -16.9167,-20.58467 -2.62182,-4.31882 -2.96869,-5.51292 -3.11434,-10.69555 -0.14072,-5.02034 -0.49721,-6.32029 -2.55394,-9.3165 -1.31461,-1.91502 -4.46056,-8.74073 -6.99006,-15.16824 -4.0389,-10.26226 -6.18055,-15.34884 -7.74007,-18.37992 -0.21971,-0.42538 -0.31945,-0.63844 0.11603,-0.67215 z m -60.45088,0.41096 c 0.47474,0.0485 0.60485,0.0453 1.08428,0.0969 l 6.36226,0.68405 1.62912,2.3088 c 3.37531,4.784 8.57057,9.93999 17.61216,17.47798 7.41198,6.17926 10.30981,9.09828 14.09715,14.19624 5.33993,7.18801 7.38283,9.11798 13.2464,12.51609 2.23397,1.29458 4.8763,3.13839 5.87096,4.09764 7.16484,6.90986 16.71081,27.21786 15.03501,31.98511 -1.30252,3.70554 -3.67747,5.5007 -11.85697,8.96379 -3.76684,1.59485 -7.5322,3.42993 -9.49684,4.5581 l -7.3663,0.0326 c 4.6593,-3.12271 11.43186,-5.49848 16.96016,-8.31566 4.33589,-1.93702 5.64607,-4.71944 5.31353,-7.31629 -1.31092,-6.07774 -3.96632,-12.15032 -7.35347,-18.10884 -2.70181,-4.24855 -4.63387,-8.72345 -10.3019,-12.48291 -4.35367,-2.43097 -8.16519,-5.05499 -10.848,-7.90144 -4.14924,-4.50723 -6.98931,-9.28259 -11.48814,-13.69386 -9.10381,-8.43868 -20.21596,-16.55287 -26.29505,-25.52802 z m 259.72603,9.85741 c 0.95961,0.14587 2.86771,0.88352 7.16608,2.55578 11.72194,4.56051 22.9479,7.97842 41.34884,12.5896 18.95713,4.75082 28.20315,7.58896 37.50002,11.51092 5.41178,2.283 7.28112,3.44456 11.58022,7.1955 6.26745,5.46804 11.88192,11.8668 17.40405,19.83521 5.52115,7.96758 11.50197,18.96277 12.16311,22.36056 0.49079,2.52123 0.21478,3.12502 -3.67673,8.03151 -2.31423,2.91775 -4.20753,5.67416 -4.20753,6.12544 0,0.56504 -1.88785,0.693 -6.59183,0.72828 1.60643,-2.66172 4.80866,-7.42739 6.54074,-9.82097 2.13918,-2.26246 1.55408,-4.75241 0.41352,-7.0807 -5.36142,-11.14694 -12.08114,-22.28462 -22.14876,-32.88527 -3.91719,-3.76704 -7.17868,-7.79096 -13.65967,-10.93178 -10.09972,-4.70638 -22.70621,-8.09912 -35.37196,-11.36011 -14.24056,-3.54861 -44.99593,-13.63436 -50.58669,-15.47249 0.23206,-1.15367 0.53079,-2.16957 0.93121,-2.80843 0.15801,-0.25267 0.28219,-0.44066 0.49894,-0.53439 0.16295,-0.0706 0.37674,-0.0874 0.69644,-0.0389 z m -2.52456,6.2551 c 3.27235,1.06361 6.44224,2.10743 6.45409,2.61949 0.0445,2.53165 0.58535,5.06025 1.72739,7.52261 1.78541,4.93281 8.3938,9.06426 12.67094,13.63236 2.57837,1.96093 2.18782,4.43202 -0.35081,6.36168 -7.87857,5.26467 -17.14014,10.12261 -25.55764,15.22983 -10.13624,6.21045 -19.25117,12.88219 -25.94399,19.9554 -4.91628,4.77336 -6.70516,12.56717 -7.28976,17.92706 l -22.248,-0.15072 v -1.4395 c 0,-2.0514 1.59777,-3.73671 4.24429,-4.47647 3.19186,-0.89226 4.44007,-0.51068 7.04857,1.88637 2.14832,1.97452 4.52105,0.70879 4.7383,-1.10427 0.90209,-7.49943 5.11627,-13.07722 16.35803,-22.2903 7.48776,-6.13672 14.97428,-11.00361 30.23816,-19.65618 12.51514,-7.09449 14.18674,-8.27512 14.11762,-9.97665 -0.0247,-0.53481 -2.63862,-3.16041 -5.81616,-5.83434 -6.34399,-5.3383 -8.31332,-8.04531 -9.89999,-13.61278 -0.50535,-1.77251 -0.64705,-4.26172 -0.49104,-6.59359 z"
       sodipodi:nodetypes="scccccccccccccccccccccssssssssssssssssssssssssssssssssscssssssssssssssscsscssscsccsssssssscssssscscssssssssssscccccccccccccccccccccccccccccccccccccccccsssccccssssssscsscssscssssssssssssssssscccssssssscsssssccccsssssccccccccccccccccccccccccccccccccccccccsscssscssscssssssssssssssssssscscscsscccsscsssssccsssssssssssssssssscsscsssssccscccccccccccccccccccccsssssssssscssssssscccssssscsssssssssscscsssssssssscssscscssssscsssssssssscssscscsscsccssscsssssccssssssscsscsscssscssssssssssssssssssssssssscsscsssssssssssscssscssssssssssssscssssssssscsssssssscsssscssscsssssssssssssssssscsscsscssssscssssssssssssssssssscsssssssssssscssssscsssscsssssscssssssscsssssscscssssccssscsssssscsssssssccssssccssccssssscsssssscccccccccccccscccccscccccccccccsscsssssssssscscsssssccccccccccccssccccccsccscssscsssssssssssscsccssccccccccsssssssssssscccsssssscccccccccccsssssssscsccccccssscccccccccssscsscsscscccscccss" />
  </g>
</svg>
