<?xml version="1.0" encoding="UTF-8" standalone="no"?>
<svg
   width="23in"
   height="11in"
   viewBox="0 0 584.2 279.40001"
   version="1.1"
   id="svg8"
   inkscape:version="1.4 (86a8ad7, 2024-10-11)"
   sodipodi:docname="Squarepit Canvas Size.svg"
   xmlns:inkscape="http://www.inkscape.org/namespaces/inkscape"
   xmlns:sodipodi="http://sodipodi.sourceforge.net/DTD/sodipodi-0.dtd"
   xmlns="http://www.w3.org/2000/svg"
   xmlns:svg="http://www.w3.org/2000/svg"
   xmlns:rdf="http://www.w3.org/1999/02/22-rdf-syntax-ns#"
   xmlns:cc="http://creativecommons.org/ns#"
   xmlns:dc="http://purl.org/dc/elements/1.1/">
  <title
     id="title833">Plasma CNC</title>
  <defs
     id="defs2" />
  <sodipodi:namedview
     id="base"
     pagecolor="#ffffff"
     bordercolor="#666666"
     borderopacity="1.0"
     inkscape:pageopacity="0.0"
     inkscape:pageshadow="2"
     inkscape:zoom="0.35"
     inkscape:cx="501.42857"
     inkscape:cy="272.85714"
     inkscape:document-units="in"
     inkscape:current-layer="layer2"
     inkscape:document-rotation="0"
     showgrid="false"
     units="in"
     inkscape:showpageshadow="false"
     inkscape:pagecheckerboard="0"
     inkscape:deskcolor="#d1d1d1"
     inkscape:window-width="2560"
     inkscape:window-height="1351"
     inkscape:window-x="-9"
     inkscape:window-y="-9"
     inkscape:window-maximized="1">
    <inkscape:grid
       type="xygrid"
       id="grid835"
       originx="-20.785727"
       originy="-2140.5652"
       spacingy="1"
       spacingx="1"
       units="in"
       visible="false" />
  </sodipodi:namedview>
  <metadata
     id="metadata5">
    <rdf:RDF>
      <cc:Work
         rdf:about="">
        <dc:format>image/svg+xml</dc:format>
        <dc:type
           rdf:resource="http://purl.org/dc/dcmitype/StillImage" />
        <dc:title>Plasma CNC</dc:title>
        <dc:creator>
          <cc:Agent>
            <dc:title>Kale Dobrohoczki</dc:title>
          </cc:Agent>
        </dc:creator>
        <dc:subject>
          <rdf:Bag>
            <rdf:li>CNC plasma 4x8</rdf:li>
          </rdf:Bag>
        </dc:subject>
        <dc:description>48x96</dc:description>
      </cc:Work>
    </rdf:RDF>
  </metadata>
  <g
     inkscape:label="Guide Layer"
     inkscape:groupmode="layer"
     id="layer1"
     transform="translate(-20.785727,-2140.5652)"
     style="display:none"
     sodipodi:insensitive="true">
    <path
       id="path3"
       style="fill:#666666;stroke:none;stroke-width:0.245529"
       d="M 556.51329,2419.9652 H 69.258188 c -16.15749,-93.1333 -32.314981,-186.2668 -48.472461,-279.4 H 604.98575 c -16.15749,93.1332 -32.31497,186.2667 -48.47246,279.4 z"
       sodipodi:nodetypes="ccccc"
       sodipodi:insensitive="true" />
  </g>
  <g
     inkscape:groupmode="layer"
     id="layer2"
     inkscape:label="Art Layer"
     transform="matrix(0.42660555,0,0,1,114.86661,0)">
    <path
       id="path14052"
       style="fill:#ff6600;stroke:none;stroke-width:1.59279;stroke-linecap:round;stroke-miterlimit:4;stroke-dasharray:none;stroke-opacity:1"
       d="m 457.75763,39.933452 c 1.37598,0.022 2.88651,0.3633 4.39563,0.9075 7.46451,2.6912 9.74929,6.7169 17.42242,8.9361 2.38605,0.7199 5.89866,1.5268 8.63866,0.6666 2.50958,-1.8461 2.46504,-4.0422 3.14295,-6.0964 -0.12892,-1.6475 3.55739,-2.9691 7.29386,-2.8865 3.53113,0 6.23902,1.2231 7.30909,2.5703 1.90387,2.3043 3.64529,4.7335 6.17761,6.8389 10.21318,8.3495 23.95163,20.7414 31.99513,29.8824 -1.35981,-0.044 -3.6992,-0.185 -4.62746,-0.1881 l -3.49199,-0.01 -3.15185,-3.5601 c -7.50694,-8.4778 -13.76612,-13.6255 -28.0266,-25.3557 -3.10826,-2.5564 -6.16307,-7.7034 -6.18885,-6.8959 -0.83661,3.1566 -1.27425,4.2175 -2.34526,5.6825 -1.43458,1.9624 -3.51871,2.888 -7.54116,3.3477 -7.62414,0.8716 -17.25834,-1.7086 -25.60961,-6.8572 l -3.99104,-2.459 0.42967,2.7133 c 0.89685,5.6632 -2.0049,7.7672 -10.85405,7.8695 -6.18792,-0.012 -12.37115,-1.362 -17.74755,-3.1262 -2.10381,-0.6903 -3.47299,-1.456 -3.58012,-1.4446 -0.10783,0.012 0.57571,0.998 1.51967,2.1897 2.34995,2.9663 1.44677,4.147 -1.19079,5.8331 -3.99245,2.5523 -12.51602,1.8198 -15.6742,1.4391 l -4.83163,-0.5827 0.78761,1.4348 c 0.95545,1.7372 0.0305,3.3461 -2.3755,4.1337 -2.83986,0.9296 -8.35854,-0.1744 -14.12428,-0.7408 l -5.09511,-0.5005 1.12657,1.8166 c 3.23601,5.2013 -5.30561,7.7666 -20.10898,6.0389 l -5.28638,-0.6166 2.77751,1.566 c 5.0665,2.8563 5.86303,6.1883 1.8612,7.7889 -2.39565,0.9586 -9.10583,1.3412 -15.29375,0.872 -2.97254,-0.2287 -5.22239,-0.3241 -5.0004,-0.2194 5.37241,2.5347 6.7873,3.4524 7.89511,5.1197 1.36988,2.0612 0.96858,3.389 -1.40762,4.6632 -2.22712,1.1942 -7.23737,1.6927 -12.49867,1.2429 -2.24235,-0.1915 -4.04284,-0.2966 -4.0037,-0.2338 0.0399,0.062 1.25714,0.6794 2.70813,1.3698 3.75522,1.787 5.63987,3.8714 5.18699,5.739 -0.12189,0.4988 -0.42498,0.926801 -0.84551,1.314398 -3.76015,-2.343098 -10.29406,-5.244798 -12.19745,-6.152398 -3.71515,-1.2728 -3.04544,-4.1344 1.34339,-4.9874 4.15818,-0.9221 8.69047,0.1484 13.02163,-0.042 1.60664,0.036 2.38347,-0.662 2.11718,-1.2553 -0.47913,-2.1808 -4.95751,-3.5109 -7.51092,-5.2411 -1.12539,-0.8309 -2.6896,-1.8799 -1.22478,-2.8165 2.07193,-1.4875 6.41435,-2.0725 10.27436,-1.7962 4.08785,0.1577 8.51817,0.7857 12.44311,0 0.80215,-1.1614 -0.99717,-2.2509 -2.33893,-3.1982 -4.72193,-2.9146 -7.29479,-4.5791 -4.13965,-6.2916 3.0752,-1.6693 6.53038,-0.649 14.92057,0.2236 3.30094,0.2705 7.34402,0.8105 10.20146,-0.2398 1.19291,-1.1864 -0.3563,-2.431 -0.91747,-3.6014 -2.0185,-1.5497 -0.11018,-3.919 4.21161,-4.246 5.91015,0 11.5015,0.9795 17.20302,1.5295 -0.51875,-2.3043 -2.82791,-4.4921 -2.63757,-6.8357 4.75756,0.3739 9.36767,1.0029 14.031,1.5381 2.86845,0.232 6.12509,0.892 8.88314,0.1704 2.61577,-0.8029 1.61977,-2.3634 0.62376,-3.4326 -1.98942,-1.9434 -2.03771,-4.1347 -0.83683,-6.1685 0.0305,-0.8603 2.11975,-1.515 4.03534,-1.1914 3.89587,0.8016 7.15626,2.0857 10.42813,3.2837 4.1624,1.3893 9.26594,2.797 14.81088,2.4273 v 6e-4 c 3.53347,-0.3847 1.54967,-3.1569 1.5349,-4.1858 -0.39076,-2.4699 -0.24003,-6.254 3.91299,-7.4497 0.45686,-0.1314 0.94208,-0.2071 1.45052,-0.2343 0.18987,-0.01 0.38443,-0.014 0.58086,-0.011 z m 6.35529,13.4353 c 0.30309,-0.034 3.50323,1.305 7.11125,2.9762 18.0579,8.3641 28.56878,15.6731 35.10175,23.3924 v 6e-4 c 1.10571,1.304 1.53842,2.1609 1.12024,2.209 -0.37599,0.043 -4.0037,-2.0451 -8.06155,-4.6401 -4.05784,-2.595 -10.90281,-6.8543 -15.21053,-9.4651 -13.34044,-8.0856 -21.23461,-12.8221 -20.91816,-13.6294 0.16877,-0.4291 0.55391,-0.8085 0.857,-0.8436 z m 33.98878,0.8661 h 0.001 c 0.061,0 0.11252,5e-4 0.15471,0.011 1.3584,0.3267 4.89281,4.2998 11.09831,9.6162 6.18979,5.3027 9.18014,8.3614 13.91895,14.2386 1.07078,1.3282 1.72571,2.5156 1.45427,2.638 -0.27098,0.1227 -2.44395,-1.3964 -4.82765,-3.3756 -2.38393,-1.9792 -13.1693,-8.5651 -19.78642,-15.4896 l -5.65464,-5.918 1.59046,-0.9284 c 0.76581,-0.4468 1.62164,-0.772 2.05037,-0.7919 z m -63.46613,2.558 c 0.91419,0.038 7.90543,2.2316 13.42997,4.2143 11.89436,4.2685 19.21916,6.6916 30.25746,13.6692 4.54331,2.8721 11.14824,7.9206 11.8735,9.0753 0.6172,0.9825 -0.93787,0.4893 -4.65653,-1.4773 -13.25815,-7.0117 -16.01456,-7.3094 -32.11609,-14.9622 -11.84513,-5.6298 -18.52695,-9.0341 -18.90036,-9.6285 -0.31786,-0.5058 -0.26746,-0.9063 0.11252,-0.8908 z m -21.44862,6.0389 c 0.0774,0 0.17815,0 0.29887,0.013 v -6e-4 c 2.26696,0.1977 11.81279,2.5242 16.54385,4.1047 10.637,3.5535 17.33475,4.5008 26.284,9.1646 6.0672,3.162 13.74408,7.8193 15.64021,9.4877 0.57993,0.5101 0.81668,0.9545 0.52813,0.987 -0.28903,0.033 -3.5527,-1.2983 -7.25378,-2.959 -13.5024,-6.0579 -19.03515,-6.6445 -35.41796,-13.3729 -9.21507,-3.7849 -16.78038,-7.0962 -16.81343,-7.3583 0,-0.042 0.0609,-0.064 0.18987,-0.067 z m -19.92239,4.4003 c 0.13362,0 0.31599,0.01 0.53821,0.025 1.77681,0.1544 6.21979,0.9964 11.31888,2.1779 6.19636,1.4357 9.99589,1.3386 19.34668,4.825 8.96214,3.3414 23.232,9.6714 27.33743,12.1263 1.45662,0.8709 2.6228,1.7677 2.59115,1.9929 -0.0609,0.4261 -4.27326,-1.0479 -25.45606,-8.9038 -11.84256,-4.3919 -13.34371,-4.0333 -28.99986,-9.42 -3.67506,-1.2646 -6.81004,-2.4835 -6.95233,-2.7101 -0.0469,-0.071 0.0516,-0.1087 0.2759,-0.1129 z m -17.30873,7.5862 c 0.0516,0 0.11252,7e-4 0.17815,0 10.45439,0.4357 20.73368,0.9356 40.68911,7.9942 7.1211,2.5187 20.40973,8.0613 20.79345,8.6722 0.12189,0.1928 -0.0234,0.3711 -0.31879,0.3941 -0.82747,0.067 -8.08077,-2.0349 -21.64037,-6.2718 -11.36811,-3.5523 -27.71225,-7.0127 -37.10008,-9.7108 -2.54263,-0.7307 -3.37923,-1.0775 -2.601,-1.0817 z m 174.91428,3.0354 c 23.6026,1.4349 47.07417,3.2329 70.59238,4.875 9.77765,0.6646 19.62094,1.4042 29.32616,2.0961 8.01021,0.6806 16.24357,0.3249 24.28144,0.8871 5.53322,0.4612 10.84281,1.3175 16.30711,1.9068 16.19974,1.9755 32.57669,3.6753 48.7469,5.6906 6.14291,0.76 12.75933,2.0681 15.53191,4.6977 2.26439,1.9317 0.90201,4.224498 -1.7958,5.937798 1.09961,-0.075 2.21235,-0.1183 3.32696,-0.1177 5.74301,-0.157 11.23333,1.3965 13.62148,3.5912 2.74586,2.294 1.91887,5.1038 -1.15938,7.2588 -3.46269,2.324 -7.8187,4.3577 -12.52258,6.2379 -0.91372,0.3652 -7.43497,0.5943 -13.39973,0.8779 12.32333,-4.3494 20.05576,-8.0434 21.26977,-10.3506 0.71635,-1.362 -0.64322,-3.1701 -2.93386,-3.9014 -3.02575,-0.966 -6.41295,-0.8397 -18.8134,0.7 l -11.19699,1.3897 7.82713,-3.4413 c 10.90821,-4.7953 12.01907,-6.323698 6.10564,-8.406498 -2.6392,-0.9297 -8.8508,-1.7662 -32.01646,-4.31 -10.49236,-1.1522 -22.60285,-2.5651 -26.91292,-3.1402 -12.27668,-1.6379 -15.414,-1.8907 -23.26458,-1.8768 -4.03628,0.01 -9.05989,-0.1402 -11.16394,-0.3279 -2.10429,-0.1877 -16.62988,-1.2328 -32.27877,-2.3225 -15.64865,-1.0896 -35.62799,-2.5145 -44.39675,-3.167 -8.71507,-0.6485 -16.46157,-1.1619 -22.7667,-1.5188 -0.80121,-1.2247 -3.29414,-3.3167 -2.31502,-3.2659 z m -190.07324,6.1518 c 0.51452,-4e-4 1.48872,0.02 2.66405,0.059 15.01926,0.4968 27.30391,0.6564 48.21151,7.6942 4.33492,1.4594 8.21814,2.7966 8.62835,2.9714 0.45757,0.1946 0.33614,0.3644 -0.31364,0.4387 -0.58321,0.067 -12.26285,-2.5727 -25.9563,-5.8653 -13.69344,-3.2964 -18.67064,-2.2368 -23.83536,-3.287 -5.16496,-1.0501 -9.5634,-1.9442 -9.77297,-1.9875 -0.0797,-0.016 0.0656,-0.023 0.37436,-0.024 z m 186.31028,1.5601 c 6.89326,0.028 14.37183,0.3286 23.38038,0.8801 25.03836,1.5328 55.387,3.468 60.62299,3.8654 4.63074,0.3512 4.96547,0.643 0.83449,0.7263 -11.90444,0.2416 -22.1563,-0.091 -43.95208,-1.4252 -26.91198,-1.6468 -52.29022,-2.0195 -73.76697,-1.0843 l -10.53901,0.4585 9.46026,-1.1806 c 12.60767,-1.5741 22.47064,-2.2865 33.95994,-2.2402 z m 101.12082,6.9034 c 7.33136,-0.025 14.56568,1.2095 19.38934,3.5708 3.17811,1.556 3.90126,2.5858 0.94771,1.3505 -4.81756,-2.0146 -14.87158,-3.5012 -22.95587,-3.3944 -4.80396,0.063 -12.50218,0.995 -15.24194,1.8439 -0.74871,0.2321 -1.01476,0.2117 -0.82184,-0.062 0.15705,-0.223 2.34643,-0.9517 4.86445,-1.6203 4.01307,-1.0655 8.56669,-1.616 13.11,-1.6817 0.23652,0 0.47163,-0.01 0.70815,-0.01 z m -295.13611,1.2914 c 0.73885,-3e-4 1.59655,0.015 2.55692,0.045 10.24507,0.3146 32.24361,2.2736 47.40375,4.678201 1.77517,0.281499 2.59092,0.9941 2.4498,1.098399 -14.81134,-0.138199 -42.33184,-2.4735 -51.58489,-4.307299 -4.74841,-0.9412 -4.85812,-1.403401 -2.02271,-1.496201 0.35443,-0.011 0.75386,-0.018 1.19713,-0.018 z m 262.92415,0.7107 h 10e-4 c 0.65728,0.034 0.45429,0.2139 0,0.572501 -3.66263,2.941999 -2.92659,9.893697 1.39637,13.183297 l 1.10641,0.8413 -0.60501,-1.1058 c -0.87856,-1.6058 -0.3781,-4.9828 1.03843,-7.004 l 1.2276,-1.752598 0.61485,1.612798 c 1.31175,3.4469 6.40006,6.9005 13.02046,8.8372 7.20057,2.1061 18.65635,2.16 26.53084,0.1247 4.1005,-1.0597 8.30415,-2.9519 9.39228,-4.2266 l 0.67439,-0.7876 0.43975,0.7021 c 0.79512,1.2658 -1.54663,4.553 -4.33773,6.0873 -2.40761,1.3236 -31.46068,12.8687 -37.27917,14.8138 l -2.45871,0.8215 5.39374,0.4091 c 2.96715,0.225 5.75567,0.3658 6.20269,0.3242 2.34432,-0.2473 8.06811,0.5465 13.12618,1.8209 4.30046,1.0834 6.53929,1.4402 9.07606,1.4402 8.0878,0.01 14.6053,-1.9493 27.51019,-8.2469 5.16191,-2.519 8.59483,-3.9324 10.37516,-4.2702 10.54346,-1.9998 55.82136,-7.9187 56.18211,-7.3443 0.27051,0.4307 -21.82297,6.1522 -37.2426,9.6447 -11.92061,2.7002 -26.43449,5.4488 -32.40089,6.1309 -3.47347,0.3981 -4.79037,0.7605 -9.11006,2.5031 -2.95425,1.1917 -6.94646,2.4484 -9.61778,3.0283 -2.51192,0.5449 -4.73482,0.9952 -4.94133,0.9952 -0.20628,0 -1.20158,0.042 -2.21165,0.089 -6.3091,0.2904 -13.13086,0.031 -17.83943,-0.6791 -1.16571,-0.176 -4.26483,-0.2383 -6.88809,-0.1387 -17.51642,0.665 -32.36292,-1.3175 -41.02338,-5.4782 -6.41178,-3.0805 -8.71602,-8.2935 -5.89514,-13.3343 l 0.87715,-1.5676 -1.99997,1.6795 c -5.1155,4.2962 -6.2123,8.5677 -3.37478,13.1558 l 1.88277,3.0434 -3.53488,-0.2113 c -18.46765,-1.1053 -32.77313,-4.0466 -42.60728,-8.7593 -2.38065,-1.1405 -4.45001,-2.1031 -4.59862,-2.1407 -0.44468,-0.1096 3.06161,3.1787 4.66918,4.3788 0.82371,0.615 3.4819,2.0452 5.90639,3.1778 8.81564,4.118 27.35314,7.6518 43.91551,8.3716 6.94342,0.3018 -5.97765,0.9147 -13.86714,0.6575 -16.43415,-0.535 -33.24945,-5.0142 -40.79905,-10.8677 -4.58058,-3.5515 -6.41248,-8.4043 -4.36773,-11.5704 1.10875,-1.7172 7.55967,-6.4415 11.71972,-8.5829 4.49338,-2.3132 11.75395,-4.972498 15.11115,-5.534698 2.00935,-0.3366 4.99244,-0.4522 9.61779,-0.3747 3.68818,0.062 6.85457,0.1476 7.03811,0.1909 0.18284,0.042 -1.08156,1.296898 -2.81149,2.787398 -6.59509,5.6825 -8.19258,8.8676 -6.82012,13.608 0.39943,1.3789 0.43178,1.355 1.73392,-1.3263 4.95868,-10.2107 22.3954,-17.623198 45.67475,-19.416798 2.99152,-0.2306 4.50955,-0.3449 5.168,-0.3118 z m -326.4606,1.7763 c 4.1413,0.6118 8.03834,1.5165 11.98695,2.3299 l 17.07432,2.603698 c 2.66828,-0.3316 10.55214,1.0737 17.11089,2.0429 l 3.12162,1.0424 c 12.15198,4.0554 10.43985,4.9916 7.94809,7.0647 -1.6132,1.3424 -3.30117,1.0981 -17.25341,-2.4918 -15.62427,-4.0202 -38.8272,-9.352797 -45.6506,-9.151198 -6.8234,0.201701 -18.08555,1.142298 -31.22275,2.913298 -5.32998,0.8607 -3.96666,1.7317 -1.56139,1.8951 21.48635,1.3955 43.67851,4.469 62.03716,8.5915 4.69356,1.054 4.56276,1.9083 -4.3389,0.5726 -38.76415,-5.816 -51.5502,-7.3478 -64.13278,-7.6873 -5.20926,-0.1404 -5.5086,-0.5184 -11.37468,1.587 0,0 1.44419,-0.9568 -7.3834,3.7332 -3.37595,2.2951 -3.93337,2.8922 -3.90548,2.9907 0.0281,0.098 4.77725,0.2583 10.55425,0.3564 13.35683,0.2267 25.03999,0.8435 36.2105,1.8075 9.68107,0.8353 32.29001,3.9286 31.93488,4.1912 -0.12424,0.091 -9.10466,-0.5179 -19.95802,-1.3532 -22.64714,-1.7432 -32.14163,-2.3388 -46.29944,-2.9052 -15.09755,-0.6039 -14.60201,-0.6581 -19.27612,2.4896 -4.6741,3.1479 -10.60652,6.2974 -9.92157,6.447 1.06304,0.2323 12.03992,0.4236 21.98916,0.3828 10.05355,-0.041 24.13025,0.5523 31.21268,0.7908 11.06666,0.373 24.65884,1.679 23.0011,1.9112 -1.39661,0.1957 -62.51981,-0.3735 -69.91072,-0.651 l -8.32478,-0.3129 c -4.39282,3.1868 -7.55335,5.7508 -11.00806,9.1414 0.62071,0.1127 8.85689,0.4329 12.69791,0.4925 6.20058,0.097 14.81767,0.4828 26.94808,0.2882 23.69871,-0.3803 33.59145,0.2704 23.54798,0.9526 -16.31038,1.1083 -35.77473,1.4483 -50.46066,0.8822 -6.39022,-0.2464 -12.17589,-0.4524 -12.85661,-0.4618 -0.87739,-0.01 -1.65446,0.5934 -2.66663,2.072 -0.78551,1.1476 -1.33871,2.227 -2.00115,3.4584 -0.66244,1.2316 -0.0586,6.0441 1.08109,7.8576 3.99761,6.3644 18.76207,10.3636 32.55607,8.8184 2.81502,-0.3152 5.18371,-0.4711 5.26248,-0.3467 0.14767,0.2354 -2.82346,1.7976 -5.87358,3.2676 -7.89582,0.6359 -15.83453,0.7585 -24.01071,-1.958 -8.30462,-2.2896 -13.88824,-6.1349 -15.61372,-10.2629 -0.70838,-2.0202 -1.08296,-4.08 -0.30379,-7.1497 0.77917,-3.0697 1.77518,-4.7785 5.77301,-9.328 3.99784,-4.5493 7.13118,-6.6573 9.9265,-8.8394 3.80961,-2.8978 5.32975,-3.9513 6.5897,-5.0605 13.57812,-12.3312 31.97755,-25.014798 86.74453,-25.014798 z m 361.79019,1.78 c 0.28012,0 0.55907,0.013 0.83426,0.032 4.40548,0.3033 8.06506,2.697198 6.85669,5.391598 -0.47984,1.07 -1.49108,1.9023 -3.22101,2.6499 -5.45985,2.1451 -12.73261,1.9594 -16.38,0.1876 -1.12634,-0.4756 -2.08905,-1.2345 -2.32252,-1.8294 l -0.39944,-1.0161 2.2658,0.9472 c 3.94744,1.6503 9.65482,1.9395 12.96349,0.6575 2.32745,-0.9019 3.73812,-2.0894 3.30446,-2.7799 -0.32864,-0.5229 -1.02155,-0.661 -3.15936,-0.635 -5.35154,0.067 -8.26899,-1.993697 -4.40828,-3.113798 1.20368,-0.349199 2.45214,-0.500699 3.66591,-0.491299 z m -111.29297,3.149298 c 0.0352,0 0.0633,0 0.0844,0.01 0.24871,0.061 -1.67906,1.1954 -4.28358,2.5203 -5.72613,2.9135 -18.60055,12.0543 -18.55883,13.1768 0.0539,1.4437 4.41579,5.0803 9.72749,8.1098 2.86306,1.6329 5.56603,3.1814 6.00719,3.4412 h 10e-4 c 3.44815,2.0299 -10.86483,-2.2322 -16.53377,-4.9234 -4.3007,-2.0416 -4.68419,-2.3327 -6.14854,-4.6643 -1.49646,-2.3821 -1.49388,-2.5524 0.0492,-4.0471 3.19381,-3.0911 8.299,-6.0206 15.60622,-8.9539 5.48,-2.1999 12.94498,-4.6722 14.04623,-4.668 z m 193.12899,0.4457 c 0.68119,-0.02 -0.64626,0.5206 -3.86751,1.5483 -13.8526,4.4194 -37.0178,12.8911 -48.68267,17.8034 -5.08268,2.1404 -10.36672,4.2202 -11.74129,4.6223 -5.76317,1.6857 -14.65968,1.6794 -19.80284,-0.014 -3.15748,-1.0399 -3.09443,-1.1561 0.45124,-0.8187 4.6877,0.4459 8.8454,-0.3524 7.04444,-1.3623 -1.80096,-1.0099 -4.3532,-0.2856 -4.62863,-0.3532 -0.86567,-0.2133 4.19966,-2.6629 9.92908,-4.8009 10.29265,-3.8409 32.74664,-9.3305 56.59045,-13.8359 5.84756,-1.1049 11.59104,-2.2111 12.76331,-2.4584 0.85255,-0.1798 1.44443,-0.2851 1.78198,-0.3188 v -6e-4 c 0.0633,-0.01 0.1172,-0.01 0.16174,-0.011 z m -369.00505,0.1193 c 6.15885,-0.011 12.3688,0.2609 18.18612,0.7457 2.27189,0.1892 3.80703,0.9475 3.89774,1.0919 0.0914,0.1443 -0.0656,0.3342 -0.36544,0.322 -14.23024,-0.6029 -27.65271,-0.2954 -33.59942,-0.4258 -3.76226,-0.082 -6.39279,-0.6702 -5.99992,-0.7811 5.61408,-0.6475 11.72254,-0.9418 17.88092,-0.9527 z m 21.33915,7.455 c 0.4871,0.013 1.4906,0.7073 0.0422,1.0042 -3.4669,0.7113 -20.60475,4.3057 -37.92825,9.0598 -13.24572,3.635 -15.71006,3.5676 -15.19928,3.1902 0.79394,-0.5866 18.11837,-5.7667 26.27884,-7.8572 11.30529,-2.8959 25.50717,-5.4328 26.80579,-5.397 z m 108.60877,5.8675 v 5e-4 c 0.2616,-0.026 0,0.8713 -0.56821,1.9994 -1.70837,3.3476 0.65751,6.0924 7.90637,9.1716 1.89144,0.8035 3.23905,1.4846 2.99433,1.5122 -0.24496,0.028 -4.71747,-0.046 -9.93916,-0.1629 -24.00625,-0.5404 -41.13847,0.1723 -59.87077,2.4929 -17.87834,2.2148 -26.26149,4.0747 -28.80061,6.3895 -1.19712,1.0912 -2.34807,3.0151 -1.75548,3.1611 0.14768,0.036 2.47254,-0.4623 5.16941,-1.1085 12.79941,-3.067 20.3687,-3.9166 33.10904,-5.1718 7.26854,-0.7163 15.14983,-1.2887 19.73978,-1.4343 8.14125,-0.2582 21.87009,-0.2761 23.01494,-0.03 0.37928,0.082 -3.54004,0.3394 -8.70921,0.573 -7.77487,0.3516 -12.99468,0.8326 -30.21457,2.7806 -19.86777,2.2481 -24.03016,3.2817 -37.52858,5.854 l -4.49642,0.8564 1.94066,2.967 c 1.154,1.7395 5.67715,4.4227 6.74464,4.8364 0.65213,0.2528 1.35512,0.1579 3.5159,-0.4742 4.49923,-1.316 17.72293,-4.4965 27.49518,-6.1476 16.96087,-2.8653 41.61456,-5.2888 60.09885,-5.9067 6.67643,-0.2233 8.7261,0.3932 3.26133,0.7258 -18.3195,1.1148 -39.2836,3.1438 -57.41979,6.5448 -10.53573,1.9758 -35.53353,6.9004 -29.11941,7.9142 3.04942,0.4819 5.06979,1.424 7.59648,1.7945 2.52669,0.3706 2.27634,0.3246 7.39629,0.9929 7.37215,0.9622 6.4153,0.5253 12.89177,-1.8439 10.91664,-3.9932 40.003,-9.9502 48.95249,-10.4092 8.94925,-0.459 -20.3469,4.3631 -32.79048,7.9722 -9.90049,2.8712 -17.85959,5.5394 -17.07573,5.725 0.17112,0.041 3.95494,0.191 8.40941,0.3344 5.43687,0.1746 9.86907,0.1106 13.48271,-0.1941 6.29247,-0.5305 7.95231,-0.9574 28.90914,-7.4443 13.42951,-4.1568 21.85368,-6.4985 22.66333,-6.2991 -4.58597,1.9937 -9.87024,3.909 -15.08841,5.7685 -7.49029,2.6749 -15.88095,5.5948 -18.64463,6.489 -2.76391,0.8939 -5.25403,1.7761 -5.53345,1.9601 10.1281,0.8329 31.87512,-1.4359 43.91669,-4.588 4.28381,-1.1214 5.04119,-1.236 6.67009,-1.0123 1.01054,0.1386 4.97908,0.703 8.81775,1.2548 6.02641,0.8661 9.75116,1.1746 17.05932,1.4117 1.30941,0.043 1.1622,0.163 -0.98311,0.7952 -3.49433,1.0299 -14.65733,3.3334 -22.35836,4.6142 -8.47645,1.4114 -46.30718,5.7407 -58.60566,6.7088 -18.95944,1.4922 -42.2259,2.5819 -60.57001,2.8365 -4.53299,0.062 -20.34549,0.067 -35.13832,0.01 -34.37273,-0.1343 -46.8857,-0.011 -60.08876,0.5924 l -10.65364,0.4876 12.35756,-1.4456 c 26.37776,-3.0855 43.99192,-4.1279 112.8975,-6.6798 14.81978,-0.549 27.00738,-1.0436 27.08286,-1.0999 0.27027,-0.1998 -19.49974,-1.6317 -29.72699,-2.1532 -20.38933,-1.0395 -43.23127,-0.9004 -65.88686,0.4006 -13.94708,0.8012 -50.79915,5.0291 -62.13281,7.1286 -21.27281,3.9407 -38.28782,8.0725 -54.72526,13.2892 -12.29051,3.9004 -30.48905,11.4457 -39.20108,16.253 -4.01729,2.2166 -14.03146,8.4661 -14.98762,9.3533 h -0.001 c -0.35536,0.3298 -0.9095,0.6297 -1.23252,0.6671 -0.32301,0.038 -2.71961,-0.4512 -5.32553,-1.0843 -4.54002,-1.103 -11.94897,-4.0866 -11.55095,-4.6515 0.10549,-0.1489 10.27624,-4.02 22.60402,-8.6027 12.32778,-4.5826 22.28874,-8.3632 22.13684,-8.4007 -0.15236,-0.038 -4.36468,1.1197 -9.3597,2.5714 -13.6264,3.9606 -41.72097,10.7843 -43.05077,10.457 -0.71893,-0.1772 -1.76979,-2.144 -1.87902,-3.5154 -0.16174,-2.0271 0.421,-2.2297 10.66629,-3.7117 16.91211,-2.4463 26.07913,-5.0702 54.68002,-15.6471 33.99728,-12.5724 49.20195,-17.8083 69.28186,-23.8595 64.96915,-19.5789 123.40792,-30.4594 182.69477,-34.0145 4.60683,-0.2761 8.59248,-0.5241 8.85526,-0.5542 z m 251.91866,9.5188 h 10e-4 c 0.72854,-0.01 1.11485,0 1.00444,0.039 -14.26775,4.8869 -29.29357,9.4093 -45.47808,13.0693 -5.17199,1.2659 -11.02048,2.007 -15.79796,3.5632 -6.01305,2.1215 -12.41967,4.3935 -19.11462,6.2729 -13.22041,3.8228 -28.14098,6.4162 -43.36605,8.3882 -7.53296,0.8625 -14.79306,2.2877 -21.38791,4.1283 -0.45944,0.3259 -2.81244,0.3528 -1.85628,0.8516 5.01915,5.946 7.50951,12.5091 4.01354,18.7378 -2.98308,6.2111 -14.27337,11.5493 -28.51065,13.3902 -4.1366,0.9611 -9.68928,-0.3371 -10.4647,-2.2697 -0.67345,-1.7772 2.56912,-3.1968 5.4064,-4.2827 1.28268,-0.2985 1.02952,-0.7456 0.25832,-1.1983 -0.54945,-0.2417 -0.1594,-0.9476 -1.24002,-0.8731 -5.16754,-0.8541 -9.39463,-2.5242 -13.3695,-4.1412 -4.44509,5.0627 -10.64308,9.9019 -19.13617,13.9419 -9.49519,4.6707 -23.24654,7.2789 -37.0082,8.8265 -3.90853,0.6847 -9.08122,0.6536 -12.01601,-0.8081 -1.92966,-0.054 -4.01074,-0.3054 -5.63683,-0.8198 -3.32297,-1.2081 -7.24932,-2.5632 -7.79315,-4.5439 -0.90318,-0.5626 -2.26556,-1.1035 -2.74352,-1.8134 -0.88208,-1.7497 -2.0417,-3.5909 -1.06351,-5.3809 0.69877,-0.4934 -0.11955,-0.9697 -0.14533,-1.4898 0.20159,-2.6129 10.43189,-9.4927 20.43293,-13.6004 l 20.41019,-2.3203 -9.76664,2.7606 c -11.06338,3.1264 -16.81084,5.4493 -20.21609,8.1711 -2.10968,1.6867 -4.2292,4.6454 -3.46292,4.8342 0.43553,0.1073 12.89903,-4.2801 23.25169,-8.1851 9.57254,-3.6107 10.03597,-3.365 1.51357,0.8032 -5.55782,2.7185 -13.87323,5.8828 -21.27093,8.0953 -4.23553,1.2667 -4.28734,1.3302 -3.36846,4.0149 0.63103,1.8434 1.1172,2.0529 2.56326,1.1021 0.46437,-0.3053 5.45961,-2.4117 11.10112,-4.6804 11.53173,-4.6379 15.60294,-6.4761 22.9622,-10.3727 6.87028,-3.6381 7.23994,-3.7674 4.67387,-1.63 -7.59062,6.3224 -17.61651,11.7071 -30.65923,16.4654 -3.98729,1.4546 -7.15322,2.7859 -7.03062,2.9584 0.44045,0.6334 5.2531,2.6381 5.9582,2.4822 1.1929,-0.2634 13.8226,-5.8441 17.83685,-7.8808 9.62364,-4.8829 20.15937,-11.994 29.11941,-19.6561 3.55902,-3.0436 14.64913,-10.6242 15.30641,-10.4624 0.19924,0.05 -1.00843,2.0635 -2.68679,4.4762 -10.74482,15.4453 -27.81071,26.9714 -49.23846,33.2543 -2.36472,0.6931 -4.22545,1.3697 -4.14857,1.5069 0.2398,0.3628 12.58892,-1.2357 19.01499,-2.4612 3.07708,-0.587 7.72423,-1.7042 10.32734,-2.4827 10.59597,-3.1686 21.10334,-9.8628 26.87377,-17.1234 l 3.01684,-3.7987 4.77115,2.1816 c 4.69028,2.1447 12.39553,4.8593 13.45131,4.7385 0.29605,-0.034 0,-0.9798 -0.64885,-2.1021 -0.65329,-1.1223 -1.58319,-3.0109 -2.06561,-4.1971 l -0.87575,-2.1568 3.03466,3.3611 c 1.66875,1.8485 4.07167,4.6521 5.34076,6.2308 1.26862,1.5784 2.50466,2.7803 2.74586,2.6714 0.70651,-0.3202 1.70767,-4.5123 1.66102,-6.9539 -0.0539,-2.7931 0.73417,-1.8565 1.33566,1.5897 0.80051,4.5863 -1.04124,7.0108 -6.99287,9.2049 -1.57288,0.5798 -2.69008,1.0965 -2.48122,1.1479 0.20863,0.051 2.4709,-0.3026 5.02572,-0.7866 19.58554,-3.7096 26.19774,-14.0169 16.78834,-26.1665 -1.35089,-1.7442 -2.72546,-3.3303 -3.05598,-3.5245 -0.43014,-0.2526 2.03701,-1.0351 8.67523,-2.751 8.65202,-2.2365 10.05237,-2.5008 20.78946,-3.9234 25.54303,-3.385 38.86354,-6.4323 57.84055,-13.2327 3.62232,-1.2982 7.38645,-2.4521 8.36393,-2.5639 4.19006,-0.4788 19.40411,-3.9982 29.09433,-6.7303 6.70807,-1.8915 12.81207,-3.7422 18.37482,-5.5282 4.28194,-0.1425 9.56809,-0.3412 11.7577,-0.3677 z m -203.49923,9.885 c 0.40834,0 2.42707,0.412 4.88953,1.0027 7.89746,1.8944 19.8237,3.2838 30.39342,3.5407 5.65065,0.1373 24.17104,-0.4914 28.45274,-0.9667 2.52576,-0.2799 2.71071,-0.2569 1.65845,0.2049 -1.8959,0.8324 -20.46762,2.9864 -26.76782,3.1046 -10.47268,0.1967 -20.52177,-0.7409 -27.99519,-2.6122 -3.48471,-0.8723 -10.27647,-3.5681 -10.70426,-4.2492 0,-0.016 0.0234,-0.025 0.0727,-0.025 z m 83.17942,4.3396 c 0.0328,-0.001 0.0609,1e-4 0.0703,0 0.44678,0.11 -7.38621,2.4124 -13.81815,4.0617 -3.40315,0.8725 -7.42349,1.5783 -13.27362,2.3294 -8.6907,1.1157 -12.6215,1.3476 -18.58415,1.0962 -3.64505,-0.1536 -11.50501,-1.049 -11.19817,-1.2758 0.0961,-0.072 2.20907,-0.1206 4.6931,-0.1091 3.66451,0.018 7.77768,-0.3451 21.78875,-1.9569 9.56269,-1.0959 20.1221,-2.4824 23.6551,-3.1063 3.29063,-0.5808 6.15979,-1.0278 6.66658,-1.0419 z m 12.3613,0.5564 c 0.0656,0 0.0891,0.015 0.0797,0.049 -0.0234,0.067 -0.20159,0.2028 -0.52695,0.3946 -1.92051,1.1294 -11.15293,4.2859 -17.00002,5.8115 -5.94225,1.5503 -17.70183,3.3106 -22.91929,3.4305 -2.59631,0.059 -2.59045,0.056 1.37996,-0.8112 5.64339,-1.2327 37.51217,-8.4961 38.67671,-8.8152 0.14299,-0.039 0.24519,-0.058 0.31012,-0.06 z m 19.5771,1.1156 c 0.15002,0 0.26254,0 0.3352,0.017 0.58134,0.1057 -1.30917,0.6965 -5.6394,1.9923 -7.08711,2.121 -14.73515,3.816 -23.49641,5.2073 -7.67852,1.2191 -13.1318,1.9294 -12.74948,1.6601 0.11955,-0.084 3.36235,-0.8819 7.20455,-1.7719 3.84219,-0.89 10.28561,-2.5421 14.31978,-3.6713 6.50062,-1.8195 8.15133,-2.1473 14.50239,-2.8854 1.97607,-0.2294 3.45987,-0.3974 4.45212,-0.4833 0.4653,-0.041 0.82137,-0.062 1.07125,-0.065 z m -430.15873,7.4324 c 7.0632,0.013 12.52609,0.2816 12.99913,1.0193 0.35067,0.5471 -1.1901,0.4615 -11.61026,0.9596 -11.55705,0.5524 -33.86008,0.9795 -35.10667,0.6726 -0.45921,-0.1132 0.16409,-1.5671 3.06349,-1.744 5.54985,-0.3388 16.17161,-0.7648 25.55194,-0.879 1.75877,-0.021 3.47253,-0.032 5.10237,-0.028 z m -18.46554,20.221 c -5.76879,1.6313 -12.30527,2.9309 -20.42777,4.0106 -10.96938,1.4581 -16.83991,1.7303 -36.64415,1.7042 -31.87723,-0.043 -70.232565,1.796 -78.066735,3.7434 -5.94015,1.4769 -8.71039,4.8552 -8.10679,9.8855 0.0727,0.6036 0.51312,1.5074 0.82535,2.2935 -4.10824,-1.7413 -8.18531,-3.1381 -8.19258,-3.8827 0.0844,-3.1751 1.57078,-6.5551 6.47367,-9.0517 4.06909,-2.1908 10.66652,-2.992 16.81483,-3.5278 19.217285,-1.6142 38.819235,-2.2444 58.376175,-2.4799 10.48463,-0.204 21.00559,0.059 31.46842,-0.343 2.79954,-0.1113 21.63591,-1.1617 37.47958,-2.3521 z m 268.54691,7.9238 c -3.37501,1.7262 -6.40381,3.9326 -7.2158,4.0149 -9.62412,0.9748 -19.33285,1.7962 -29.09808,2.4697 -16.82491,1.0882 -33.77804,1.8587 -50.77969,2.2058 -0.77988,0.016 -0.75785,-1.539 -0.8052,-3.138 9.88923,-0.2156 22.95681,-0.6197 32.56732,-1.1042 20.4627,-1.0319 34.19178,-2.1414 55.33145,-4.4482 z m -145.14837,1.508 c 0.78222,-0.066 1.10453,6.8333 0.39708,9.8597 -2.02646,8.6655 -9.10794,14.8257 -21.97299,19.1169 -5.4507,1.8181 -5.49125,1.8429 -3.29789,1.9698 1.2215,0.072 4.34945,0.1304 6.94881,0.1409 l 4.72567,0.012 3.33822,-1.6127 c 4.53041,-2.1893 11.60439,-7.5523 14.33994,-10.8699 2.89752,-3.5146 5.24911,-8.7476 6.24675,-13.9063 l 0.79137,-4.0977 1.00186,2.3042 c 2.10874,4.853 1.0532,12.2062 -2.3755,16.5589 -2.54474,3.2306 -6.40966,6.0085 -12.16088,8.7388 l -5.5386,2.6289 7.25752,-0.7371 7.2587,-0.7386 2.51286,-1.5602 c 6.70736,-4.1668 12.30879,-12.0421 13.60015,-19.12 0.76956,-4.2189 1.5042,-4.166 2.35158,0.1693 1.21565,6.2207 -2.90268,13.4628 -10.2317,17.9916 l -1.95192,1.2054 1.99107,-0.4387 c 9.42487,-2.0821 15.741,-6.9491 17.6376,-13.5918 0.64838,-2.27 0.70206,-2.3189 1.10032,-0.9849 0.22972,0.7717 0.31153,2.1771 0.18049,3.1229 -0.12892,0.9459 -0.0281,1.6977 0.22738,1.6672 1.0096,-0.1156 6.57352,-7.9248 7.53342,-10.5738 0.56164,-1.5493 1.05461,-2.8655 1.09375,-2.9251 0.0399,-0.06 1.90223,-0.094 4.13989,-0.077 0.26582,0 1.18025,-0.031 1.49459,-0.031 -1.27424,3.623 -3.01285,9.5624 -4.99431,12.1468 -1.25549,1.6839 -2.65303,3.7516 -6.95256,4.4346 -2.6092,2.8616 -6.06485,5.708 -11.72089,7.69 -4.73904,1.7769 -10.53222,2.7788 -16.07528,3.9578 -5.59205,0.4711 -11.15597,1.0895 -16.78951,1.6139 -2.9648,0.2922 -6.40897,0.9904 -9.23218,0.1587 -3.19194,-0.1091 -6.45913,0.033 -9.61661,-0.2699 -0.96553,-0.095 -1.87973,-0.3596 -1.89918,0.2843 -5.20504,-0.8706 -10.50971,-1.658 -15.44612,-2.7885 -5.58877,-1.4352 -11.53103,-2.8521 -15.49159,-5.1288 -2.31666,-0.9754 -4.55901,-1.9965 -6.2191,-3.2036 -2.42941,-0.9095 -2.95167,-5.6551 -3.39259,-8.263 2.7168,-0.65 5.2688,-1.2405 5.46172,-1.193 0.11486,0.029 0.0727,0.8631 -0.0914,1.8554 -0.30918,1.8655 1.15845,5.0234 2.2747,4.8959 1.73861,-0.1988 14.9916,-7.5811 20.72265,-11.543 2.85393,-1.973 3.26625,-2.1565 2.66031,-1.1784 -1.14861,1.8538 -7.79831,6.9696 -11.60768,8.9291 -1.92637,0.9913 -5.01494,2.372 -6.86302,3.0692 -1.84854,0.6972 -3.43853,1.316 -3.53253,1.3784 -0.25035,0.1613 4.77537,2.8315 5.23106,2.7795 0.21097,-0.025 1.8891,-0.6721 3.72662,-1.4403 8.93871,-3.7371 19.03515,-10.6853 24.58126,-16.9153 1.82722,-2.0524 3.38603,-3.63 3.46433,-3.5052 0.37739,0.6007 -2.05952,5.0856 -4.39798,8.0921 -2.86939,3.6893 -8.5674,8.2189 -13.08351,10.4021 -2.91956,1.4111 -9.34986,3.4468 -11.76005,3.7225 -1.7958,0.2052 -1.51803,0.4205 2.46364,1.8993 2.07615,0.7712 3.99666,1.2314 4.76857,1.143 1.89191,-0.2163 7.61758,-2.5902 12.29825,-5.0992 8.14851,-4.3678 16.74029,-12.5119 20.12796,-19.0808 1.2944,-2.5089 1.60335,-2.1813 1.13782,1.2037 -0.4278,3.1123 -2.84713,8.3829 -5.06346,11.0334 -4.83351,5.7806 -16.23139,11.5079 -24.86606,12.495 l -1.8223,0.2081 2.19899,0.5843 c 1.20931,0.3213 3.99924,0.8843 6.20011,1.251 l 4.00112,0.6667 3.39634,-1.5236 c 14.53099,-6.5186 23.76786,-15.7631 26.59764,-26.6207 0.28598,-1.0967 0.66736,-2.1316 0.84692,-2.3005 v -5e-4 c 0.0399,-0.038 0.0797,-0.059 0.1172,-0.062 z m -196.34274,3.4127 c 4.42728,-0.01 7.56226,0.1183 8.52404,0.4468 5.70996,1.9475 -16.6838,1.798 -46.617315,3.288 -15.56379,0.7749 -24.30629,-0.6833 -20.72007,-1.0822 3.92704,-0.437 37.176495,-2.3677 55.553195,-2.6246 1.1486,-0.016 2.2386,-0.025 3.26015,-0.028 z m 5.86631,8.0508 v 5e-4 c 3.01403,0.01 3.62302,1.2996 3.8511,1.6628 0.38724,0.6164 -1.72079,1.0187 -16.19716,3.0907 -11.78489,1.6865 -43.610085,6.2875 -44.133515,5.5412 -3.16241,-4.5082 39.149285,-8.1195 54.609465,-10.1641 0.58157,-0.077 1.10383,-0.117 1.57148,-0.1279 h 0.29863 z m 115.709,4.803 c -3.14858,2.4288 -6.34872,5.4364 -8.99543,6.3201 -4.57401,1.4496 -8.65929,3.1964 -11.55611,5.304 -5.69636,4.1715 -10.51908,8.5459 -16.03073,12.7617 -7.09438,5.4316 -15.10834,10.8017 -26.2186,14.9068 -10.15458,3.7889 -23.27794,6.2078 -36.84317,6.3324 -18.31458,0.2228 -36.15752,-2.9775 -50.3008,-7.8028 -13.697205,-4.6306 -23.954215,-10.8583 -31.640945,-17.4985 -4.85272,-4.0729 -7.75775,-8.4887 -10.47244,-12.8892 -1.14625,-2.0158 -2.50864,-4.0249 -3.73764,-6.0454 -0.60618,-0.9965 4.81874,1.2986 8.90588,2.1461 0.40248,0.6534 0.48336,0.8551 0.95639,1.6118 5.09534,8.1473 6.04188,9.3867 9.71249,12.7155 10.36883,9.4038 23.066505,15.8449 39.788045,20.185 23.84896,6.1902 49.1808,5.9495 67.54788,-0.6419 12.11494,-4.3475 20.08647,-9.35 35.62706,-22.3586 3.47581,-2.9094 7.64547,-6.0317 9.2664,-6.9378 3.45261,-1.9299 9.72561,-4.2034 18.24262,-6.6125 1.59468,-0.4511 3.73389,-0.9769 5.7491,-1.4967 z m -109.24659,5.2723 c 2.66382,0 4.82249,0.5697 4.82273,1.272 7e-4,0.7026 -49.67423,9.2108 -52.33852,9.2108 -2.664525,0 -4.824835,-0.5695 -4.824135,-1.2719 0,-0.7027 49.675875,-9.2109 52.339925,-9.2109 z m 15.75109,5.825 c 0.42451,0.054 1.97653,0.7914 2.16382,1.0897 0.38232,0.6088 -1.85933,1.3742 -15.24851,5.2035 -10.08496,2.9387 -27.68342,10.2892 -40.18771,9.8474 -3.17952,-2.96 9.41455,-3.7023 32.49301,-10.4178 11.00432,-3.202 20.35511,-5.777 20.77939,-5.7228 z m 15.85071,6.7249 c 0.18049,0 0.35067,-1e-4 0.50655,0.014 v 6e-4 c 0.9367,0.079 1.38723,0.4493 0.89357,0.9074 -0.8216,0.7623 -14.17328,6.5428 -21.38674,9.2592 -3.55035,1.3369 -9.6227,3.4591 -13.49302,4.7155 -3.87032,1.2564 -7.20901,2.3049 -7.4188,2.3278 -1.1254,0.1286 -2.09069,-1.286 2.62256,-3.2004 2.86635,-1.1641 11.78935,-4.9523 19.82909,-8.4184 8.03998,-3.466 17.21005,-5.4904 17.87225,-5.5653 0.20159,-0.023 0.39357,-0.04 0.57454,-0.04 z m 20.85626,1.1214 v 0 c 0.0914,0 0.17347,9e-4 0.24074,0.014 0.72854,0.1318 0.0539,1.118 -2.27587,2.8988 -7.81565,5.9711 -15.95197,10.9244 -27.75445,14.5557 -7.5653,2.3277 -11.72746,2.6948 -7.75282,1.008 9.21085,-3.9084 19.86284,-9.3727 31.64492,-16.2341 2.9723,-1.4833 5.00111,-2.2159 5.89772,-2.2429 z"
       sodipodi:nodetypes="ccccccccccccccscccscsccscccsscccccccccscccccccccccccccccccccccccccccccccccccccsccccsccsccccccccccscsscccccsccccccccccscscsccccccccccscccccccccccccsccsccccsccscscccccccccccccsccccccccccccssccccccccccccscccsccccccccsccccccscsccscsccscscscccccscscscccccccscccccccccccccscccccccccccccccccccccccssccccccsccccccsccccssccsccccccsccsccscccsscccscssscccccccccccscsscsscccsccsccccsccccccscccccccccscccccccccscccccccccccccccscccccsccccccccsccccsccccccccccccccccccccccccccsscssscccscccsccccccccsccccccccssccsssccccccccssccccccccccccccccccccccccccccccccssccccccsccccccscccccccccccccccccccsccccccccscccccccccccccccccccccccccccccccccsccccccsccccccscccccsscscccccccccccccccccccccccccccccscccccscscscscscscccccccssscccccccsccscccc" />
  </g>
</svg>
